define(['three'], function(Three) {
return new Three.Font({"glyphs":{" ":{"ha":347,"x_min":0,"x_max":0,"o":""}," ":{"ha":347,"x_min":0,"x_max":0,"o":""},"¨":{"ha":1389,"x_min":0,"x_max":0,"o":""},"©":{"ha":1389,"x_min":0,"x_max":0,"o":""},"®":{"ha":1389,"x_min":0,"x_max":0,"o":""},"´":{"ha":1389,"x_min":0,"x_max":0,"o":""},"Æ":{"ha":1389,"x_min":0,"x_max":0,"o":""},"Ø":{"ha":1389,"x_min":0,"x_max":0,"o":""}," ":{"ha":595,"x_min":0,"x_max":0,"o":""}," ":{"ha":1191,"x_min":0,"x_max":0,"o":""}," ":{"ha":595,"x_min":0,"x_max":0,"o":""}," ":{"ha":1191,"x_min":0,"x_max":0,"o":""}," ":{"ha":397,"x_min":0,"x_max":0,"o":""}," ":{"ha":298,"x_min":0,"x_max":0,"o":""}," ":{"ha":198,"x_min":0,"x_max":0,"o":""}," ":{"ha":198,"x_min":0,"x_max":0,"o":""}," ":{"ha":149,"x_min":0,"x_max":0,"o":""}," ":{"ha":238,"x_min":0,"x_max":0,"o":""}," ":{"ha":66,"x_min":0,"x_max":0,"o":""}," ":{"ha":238,"x_min":0,"x_max":0,"o":""}," ":{"ha":298,"x_min":0,"x_max":0,"o":""},"™":{"ha":1389,"x_min":0,"x_max":0,"o":""},"∞":{"ha":1389,"x_min":0,"x_max":0,"o":""},"≠":{"ha":1389,"x_min":0,"x_max":0,"o":""},"◼":{"ha":388,"x_min":0,"x_max":0,"o":"m 0 0 z "},"":{"ha":1389,"x_min":72,"x_max":1317,"o":"m 1317 1046 q 1283 986 1317 1019 l 794 496 l 794 -99 l 1042 -99 q 1077 -114 1062 -99 q 1091 -149 1091 -129 q 1077 -184 1091 -169 q 1042 -198 1062 -198 l 347 -198 q 312 -184 327 -198 q 298 -149 298 -169 q 312 -114 298 -129 q 347 -99 327 -99 l 595 -99 l 595 496 l 105 986 q 72 1046 72 1019 q 86 1075 72 1064 q 115 1088 100 1085 q 149 1091 131 1091 l 1240 1091 q 1273 1088 1258 1091 q 1303 1075 1289 1085 q 1317 1046 1317 1064 z "},"":{"ha":1190,"x_min":0,"x_max":1190,"o":"m 1190 1017 l 1190 149 q 1164 80 1190 110 q 1097 33 1138 50 q 1017 8 1057 16 q 942 0 977 0 q 868 8 908 0 q 787 33 828 16 q 721 80 747 50 q 694 149 694 110 q 721 218 694 188 q 787 265 747 248 q 868 289 828 281 q 942 298 908 298 q 1091 267 1024 298 l 1091 684 l 496 500 l 496 -50 q 470 -119 496 -88 q 403 -165 443 -149 q 323 -190 363 -182 q 248 -198 283 -198 q 173 -190 213 -198 q 93 -165 133 -182 q 26 -119 53 -149 q 0 -50 0 -88 q 26 19 0 -11 q 93 66 53 50 q 173 91 133 83 q 248 99 213 99 q 397 69 329 99 l 397 818 q 412 862 397 842 q 450 890 426 882 l 1094 1088 q 1116 1091 1104 1091 q 1169 1070 1147 1091 q 1190 1017 1190 1048 z "},"":{"ha":1290,"x_min":0,"x_max":1290,"o":"m 791 300 q 842 351 791 300 q 893 546 893 402 q 791 791 893 689 q 546 893 689 893 q 300 791 402 893 q 198 546 198 689 q 300 300 198 402 q 546 198 402 198 q 791 300 689 198 m 1290 -99 q 1260 -169 1290 -140 q 1190 -198 1231 -198 q 1121 -169 1149 -198 l 855 96 q 546 0 716 0 q 334 43 435 0 q 159 159 233 86 q 43 334 86 233 q 0 546 0 435 q 43 758 0 656 q 159 932 86 859 q 334 1048 233 1005 q 546 1091 435 1091 q 758 1048 656 1091 q 932 932 859 1005 q 1048 758 1005 859 q 1091 546 1091 656 q 995 236 1091 375 l 1261 -29 q 1290 -99 1290 -58 z "},"":{"ha":1389,"x_min":0,"x_max":1389,"o":"m 1290 25 l 1290 620 q 1236 569 1265 592 q 906 307 1028 409 q 842 255 867 274 q 775 217 817 236 q 695 198 732 198 l 694 198 l 694 198 q 614 217 656 198 q 547 255 572 236 q 483 307 522 274 q 153 569 360 409 q 99 620 124 592 l 99 25 q 107 7 99 15 q 124 0 114 0 l 1265 0 q 1282 7 1275 0 q 1290 25 1290 15 m 1290 839 q 1290 848 1290 841 q 1290 858 1290 855 q 1289 868 1290 862 q 1287 878 1289 875 q 1283 885 1285 881 q 1276 891 1280 889 q 1265 893 1271 893 l 124 893 q 107 885 114 893 q 99 868 99 878 q 213 648 99 738 q 524 402 363 530 q 551 379 529 398 q 587 350 574 360 q 621 326 600 340 q 660 305 643 312 q 694 298 678 298 l 694 298 l 695 298 q 729 305 711 298 q 768 326 746 312 q 802 350 789 340 q 838 379 815 360 q 865 402 860 398 q 1176 648 1026 530 q 1254 737 1218 681 q 1290 839 1290 794 m 1389 868 l 1389 25 q 1352 -63 1389 -26 q 1265 -99 1316 -99 l 124 -99 q 36 -63 73 -99 q 0 25 0 -26 l 0 868 q 36 956 0 919 q 124 992 73 992 l 1265 992 q 1352 956 1316 992 q 1389 868 1389 919 z "},"":{"ha":1389,"x_min":0,"x_max":1389,"o":"m 729 -85 q 694 -99 715 -99 q 660 -85 674 -99 l 177 381 q 155 401 169 388 q 112 452 142 415 q 60 528 83 489 q 18 622 36 567 q 0 729 0 677 q 98 995 0 899 q 370 1091 197 1091 q 469 1075 419 1091 q 562 1030 519 1058 q 636 977 605 1001 q 694 924 667 952 q 753 977 722 952 q 827 1030 784 1001 q 920 1075 870 1058 q 1018 1091 970 1091 q 1290 995 1192 1091 q 1389 729 1389 899 q 1211 380 1389 557 l 729 -85 z "},"":{"ha":1290,"x_min":0,"x_max":1290,"o":"m 1290 689 q 1270 652 1290 672 l 988 377 l 1055 -10 q 1056 -26 1056 -16 q 1047 -53 1056 -42 q 1024 -64 1039 -64 q 993 -55 1009 -64 l 645 128 l 297 -55 q 266 -64 280 -64 q 241 -53 250 -64 q 233 -26 233 -42 q 235 -10 233 -21 l 301 377 l 19 652 q 0 689 0 673 q 43 725 0 718 l 432 781 l 607 1134 q 645 1166 622 1166 q 683 1134 668 1166 l 857 781 l 1246 725 q 1290 689 1290 718 z "},"":{"ha":1290,"x_min":0,"x_max":1290,"o":"m 881 412 l 1118 643 l 791 691 l 645 987 l 498 691 l 171 643 l 408 412 l 352 86 l 645 240 l 937 86 l 881 412 m 1290 689 q 1270 652 1290 672 l 988 377 l 1055 -10 q 1056 -26 1056 -16 q 1024 -64 1056 -64 q 993 -55 1009 -64 l 645 128 l 297 -55 q 266 -64 280 -64 q 241 -53 250 -64 q 233 -26 233 -42 q 235 -10 233 -21 l 301 377 l 19 652 q 0 689 0 673 q 43 725 0 718 l 432 781 l 607 1134 q 645 1166 622 1166 q 683 1134 668 1166 l 857 781 l 1246 725 q 1290 689 1290 718 z "},"":{"ha":1091,"x_min":0,"x_max":1091,"o":"m 1091 102 q 1035 -45 1091 9 q 884 -99 978 -99 l 207 -99 q 57 -45 113 -99 q 0 102 0 9 q 3 182 0 143 q 14 266 5 221 q 34 350 22 312 q 67 426 47 389 q 115 489 88 463 q 182 530 143 515 q 268 546 221 546 q 301 529 275 546 q 358 492 326 512 q 442 455 391 471 q 546 438 494 438 q 649 455 598 438 q 733 492 701 471 q 791 529 765 512 q 823 546 816 546 q 910 530 870 546 q 976 489 949 515 q 1024 426 1003 463 q 1057 350 1045 389 q 1078 266 1070 312 q 1089 182 1086 221 q 1091 102 1091 143 m 756 1004 q 800 960 756 1004 q 843 794 843 917 q 756 583 843 670 q 546 496 669 496 q 335 583 422 496 q 248 794 248 670 q 335 1004 248 917 q 546 1091 422 1091 q 756 1004 669 1091 z "},"":{"ha":1488,"x_min":0,"x_max":1488,"o":"m 298 -50 l 298 50 q 283 84 298 70 q 248 99 268 99 l 149 99 q 114 84 129 99 q 99 50 99 70 l 99 -50 q 114 -84 99 -70 q 149 -99 129 -99 l 248 -99 q 283 -84 268 -99 q 298 -50 298 -70 m 298 248 l 298 347 q 283 382 298 367 q 248 397 268 397 l 149 397 q 114 382 129 397 q 99 347 99 367 l 99 248 q 114 213 99 228 q 149 198 129 198 l 248 198 q 283 213 268 198 q 298 248 298 228 m 298 546 l 298 645 q 283 680 298 665 q 248 694 268 694 l 149 694 q 114 680 129 694 q 99 645 99 665 l 99 546 q 114 511 99 525 q 149 496 129 496 l 248 496 q 283 511 268 496 q 298 546 298 525 m 1091 -50 l 1091 347 q 1077 382 1091 367 q 1042 397 1062 397 l 446 397 q 412 382 426 397 q 397 347 397 367 l 397 -50 q 412 -84 397 -70 q 446 -99 426 -99 l 1042 -99 q 1077 -84 1062 -99 q 1091 -50 1091 -70 m 298 843 l 298 942 q 283 977 298 963 q 248 992 268 992 l 149 992 q 114 977 129 992 q 99 942 99 963 l 99 843 q 114 808 99 823 q 149 794 129 794 l 248 794 q 283 808 268 794 q 298 843 298 823 m 1389 -50 l 1389 50 q 1374 84 1389 70 q 1339 99 1359 99 l 1240 99 q 1205 84 1220 99 q 1190 50 1190 70 l 1190 -50 q 1205 -84 1190 -70 q 1240 -99 1220 -99 l 1339 -99 q 1374 -84 1359 -99 q 1389 -50 1389 -70 m 1091 546 l 1091 942 q 1077 977 1091 963 q 1042 992 1062 992 l 446 992 q 412 977 426 992 q 397 942 397 963 l 397 546 q 412 511 397 525 q 446 496 426 496 l 1042 496 q 1077 511 1062 496 q 1091 546 1091 525 m 1389 248 l 1389 347 q 1374 382 1389 367 q 1339 397 1359 397 l 1240 397 q 1205 382 1220 397 q 1190 347 1190 367 l 1190 248 q 1205 213 1190 228 q 1240 198 1220 198 l 1339 198 q 1374 213 1359 198 q 1389 248 1389 228 m 1389 546 l 1389 645 q 1374 680 1389 665 q 1339 694 1359 694 l 1240 694 q 1205 680 1220 694 q 1190 645 1190 665 l 1190 546 q 1205 511 1190 525 q 1240 496 1220 496 l 1339 496 q 1374 511 1359 496 q 1389 546 1389 525 m 1389 843 l 1389 942 q 1374 977 1389 963 q 1339 992 1359 992 l 1240 992 q 1205 977 1220 992 q 1190 942 1190 963 l 1190 843 q 1205 808 1190 823 q 1240 794 1220 794 l 1339 794 q 1374 808 1359 794 q 1389 843 1389 823 m 1488 967 l 1488 -74 q 1452 -162 1488 -126 q 1364 -198 1415 -198 l 124 -198 q 36 -162 73 -198 q 0 -74 0 -126 l 0 967 q 36 1055 0 1018 q 124 1091 73 1091 l 1364 1091 q 1452 1055 1415 1091 q 1488 967 1488 1018 z "},"":{"ha":1290,"x_min":0,"x_max":1290,"o":"m 595 397 l 595 99 q 566 29 595 59 q 496 0 536 0 l 99 0 q 29 29 59 0 q 0 99 0 59 l 0 397 q 29 467 0 437 q 99 496 59 496 l 496 496 q 566 467 536 496 q 595 397 595 437 m 595 992 l 595 694 q 566 625 595 654 q 496 595 536 595 l 99 595 q 29 625 59 595 q 0 694 0 654 l 0 992 q 29 1062 0 1032 q 99 1091 59 1091 l 496 1091 q 566 1062 536 1091 q 595 992 595 1032 m 1290 397 l 1290 99 q 1260 29 1290 59 q 1190 0 1231 0 l 794 0 q 724 29 753 0 q 694 99 694 59 l 694 397 q 724 467 694 437 q 794 496 753 496 l 1190 496 q 1260 467 1231 496 q 1290 397 1290 437 m 1290 992 l 1290 694 q 1260 625 1290 654 q 1190 595 1231 595 l 794 595 q 724 625 753 595 q 694 694 694 654 l 694 992 q 724 1062 694 1032 q 794 1091 753 1091 l 1190 1091 q 1260 1062 1231 1091 q 1290 992 1290 1032 z "},"":{"ha":1389,"x_min":0,"x_max":1389,"o":"m 397 223 l 397 74 q 375 22 397 43 q 322 0 353 0 l 74 0 q 22 22 43 0 q 0 74 0 43 l 0 223 q 22 276 0 254 q 74 298 43 298 l 322 298 q 375 276 353 298 q 397 223 397 254 m 397 620 l 397 471 q 375 419 397 440 q 322 397 353 397 l 74 397 q 22 419 43 397 q 0 471 0 440 l 0 620 q 22 673 0 651 q 74 694 43 694 l 322 694 q 375 673 353 694 q 397 620 397 651 m 893 223 l 893 74 q 871 22 893 43 q 818 0 849 0 l 570 0 q 518 22 539 0 q 496 74 496 43 l 496 223 q 518 276 496 254 q 570 298 539 298 l 818 298 q 871 276 849 298 q 893 223 893 254 m 397 1017 l 397 868 q 375 815 397 837 q 322 794 353 794 l 74 794 q 22 815 43 794 q 0 868 0 837 l 0 1017 q 22 1070 0 1048 q 74 1091 43 1091 l 322 1091 q 375 1070 353 1091 q 397 1017 397 1048 m 893 620 l 893 471 q 871 419 893 440 q 818 397 849 397 l 570 397 q 518 419 539 397 q 496 471 496 440 l 496 620 q 518 673 496 651 q 570 694 539 694 l 818 694 q 871 673 849 694 q 893 620 893 651 m 1389 223 l 1389 74 q 1367 22 1389 43 q 1314 0 1345 0 l 1066 0 q 1014 22 1035 0 q 992 74 992 43 l 992 223 q 1014 276 992 254 q 1066 298 1035 298 l 1314 298 q 1367 276 1345 298 q 1389 223 1389 254 m 893 1017 l 893 868 q 871 815 893 837 q 818 794 849 794 l 570 794 q 518 815 539 794 q 496 868 496 837 l 496 1017 q 518 1070 496 1048 q 570 1091 539 1091 l 818 1091 q 871 1070 849 1091 q 893 1017 893 1048 m 1389 620 l 1389 471 q 1367 419 1389 440 q 1314 397 1345 397 l 1066 397 q 1014 419 1035 397 q 992 471 992 440 l 992 620 q 1014 673 992 651 q 1066 694 1035 694 l 1314 694 q 1367 673 1345 694 q 1389 620 1389 651 m 1389 1017 l 1389 868 q 1367 815 1389 837 q 1314 794 1345 794 l 1066 794 q 1014 815 1035 794 q 992 868 992 837 l 992 1017 q 1014 1070 992 1048 q 1066 1091 1035 1091 l 1314 1091 q 1367 1070 1345 1091 q 1389 1017 1389 1048 z "},"":{"ha":1389,"x_min":0,"x_max":1389,"o":"m 397 223 l 397 74 q 375 22 397 43 q 322 0 353 0 l 74 0 q 22 22 43 0 q 0 74 0 43 l 0 223 q 22 276 0 254 q 74 298 43 298 l 322 298 q 375 276 353 298 q 397 223 397 254 m 397 620 l 397 471 q 375 419 397 440 q 322 397 353 397 l 74 397 q 22 419 43 397 q 0 471 0 440 l 0 620 q 22 673 0 651 q 74 694 43 694 l 322 694 q 375 673 353 694 q 397 620 397 651 m 1389 223 l 1389 74 q 1367 22 1389 43 q 1314 0 1345 0 l 570 0 q 518 22 539 0 q 496 74 496 43 l 496 223 q 518 276 496 254 q 570 298 539 298 l 1314 298 q 1367 276 1345 298 q 1389 223 1389 254 m 397 1017 l 397 868 q 375 815 397 837 q 322 794 353 794 l 74 794 q 22 815 43 794 q 0 868 0 837 l 0 1017 q 22 1070 0 1048 q 74 1091 43 1091 l 322 1091 q 375 1070 353 1091 q 397 1017 397 1048 m 1389 620 l 1389 471 q 1367 419 1389 440 q 1314 397 1345 397 l 570 397 q 518 419 539 397 q 496 471 496 440 l 496 620 q 518 673 496 651 q 570 694 539 694 l 1314 694 q 1367 673 1345 694 q 1389 620 1389 651 m 1389 1017 l 1389 868 q 1367 815 1389 837 q 1314 794 1345 794 l 570 794 q 518 815 539 794 q 496 868 496 837 l 496 1017 q 518 1070 496 1048 q 570 1091 539 1091 l 1314 1091 q 1367 1070 1345 1091 q 1389 1017 1389 1048 z "},"":{"ha":1389,"x_min":94,"x_max":1295,"o":"m 1273 805 q 1295 752 1295 783 q 1273 699 1295 721 l 712 138 l 607 33 q 554 11 585 11 q 501 33 523 11 l 396 138 l 115 419 q 94 471 94 440 q 115 524 94 502 l 221 629 q 274 651 243 651 q 326 629 305 651 l 554 401 l 1063 910 q 1115 932 1084 932 q 1168 910 1146 932 l 1273 805 z "},"":{"ha":1091,"x_min":85,"x_max":1006,"o":"m 984 219 q 1006 166 1006 197 q 984 113 1006 135 l 879 8 q 826 -14 857 -14 q 773 8 795 -14 l 546 236 l 318 8 q 265 -14 296 -14 q 212 8 234 -14 l 107 113 q 85 166 85 135 q 107 219 85 197 l 335 446 l 107 674 q 85 727 85 696 q 107 780 85 758 l 212 885 q 265 907 234 907 q 318 885 296 907 l 546 657 l 773 885 q 826 907 795 907 q 879 885 857 907 l 984 780 q 1006 727 1006 758 q 984 674 1006 696 l 756 446 l 984 219 z "},"":{"ha":1290,"x_min":0,"x_max":1290,"o":"m 794 570 l 794 521 q 786 503 794 511 q 769 496 779 496 l 595 496 l 595 322 q 588 305 595 312 q 570 298 581 298 l 521 298 q 503 305 511 298 q 496 322 496 312 l 496 496 l 322 496 q 305 503 312 496 q 298 521 298 511 l 298 570 q 305 588 298 581 q 322 595 312 595 l 496 595 l 496 769 q 503 786 496 779 q 521 794 511 794 l 570 794 q 588 786 581 794 q 595 769 595 779 l 595 595 l 769 595 q 786 588 779 595 q 794 570 794 581 m 791 300 q 842 351 791 300 q 893 546 893 402 q 791 791 893 689 q 546 893 689 893 q 300 791 402 893 q 198 546 198 689 q 300 300 198 402 q 546 198 402 198 q 791 300 689 198 m 1261 -29 q 1290 -99 1290 -58 q 1261 -169 1290 -140 q 1190 -198 1232 -198 q 1121 -169 1149 -198 l 855 96 q 546 0 716 0 q 334 43 435 0 q 159 159 233 86 q 43 334 86 233 q 0 546 0 435 q 43 758 0 656 q 159 932 86 859 q 334 1048 233 1005 q 546 1091 435 1091 q 758 1048 656 1091 q 932 932 859 1005 q 1048 758 1005 859 q 1091 546 1091 656 q 995 236 1091 375 l 1261 -29 z "},"":{"ha":1290,"x_min":0,"x_max":1290,"o":"m 794 570 l 794 521 q 786 503 794 511 q 769 496 779 496 l 322 496 q 305 503 312 496 q 298 521 298 511 l 298 570 q 305 588 298 581 q 322 595 312 595 l 769 595 q 786 588 779 595 q 794 570 794 581 m 791 300 q 842 351 791 300 q 893 546 893 402 q 791 791 893 689 q 546 893 689 893 q 300 791 402 893 q 198 546 198 689 q 300 300 198 402 q 546 198 402 198 q 791 300 689 198 m 1261 -29 q 1290 -99 1290 -58 q 1261 -169 1290 -140 q 1190 -198 1232 -198 q 1121 -169 1149 -198 l 855 96 q 546 0 716 0 q 334 43 435 0 q 159 159 233 86 q 43 334 86 233 q 0 546 0 435 q 43 758 0 656 q 159 932 86 859 q 334 1048 233 1005 q 546 1091 435 1091 q 758 1048 656 1091 q 932 932 859 1005 q 1048 758 1005 859 q 1091 546 1091 656 q 995 236 1091 375 l 1261 -29 z "},"":{"ha":1190,"x_min":0,"x_max":1190,"o":"m 1190 496 q 1143 265 1190 375 q 1016 75 1096 155 q 826 -52 936 -5 q 595 -99 716 -99 q 364 -52 474 -99 q 174 75 254 -5 q 47 265 95 155 q 0 496 0 375 q 62 762 0 637 q 238 971 125 887 q 312 991 271 996 q 377 952 353 985 q 396 879 401 919 q 357 813 390 838 q 240 673 281 756 q 198 496 198 590 q 230 342 198 415 q 315 215 261 269 q 441 131 368 162 q 595 99 515 99 q 749 131 676 99 q 876 215 822 162 q 961 342 929 269 q 992 496 992 415 q 951 673 992 590 q 833 813 909 756 q 795 879 801 838 q 814 952 789 919 q 879 991 838 985 q 953 971 920 996 q 1128 762 1066 887 q 1190 496 1190 637 m 694 1091 l 694 595 q 665 525 694 555 q 595 496 636 496 q 525 525 555 496 q 496 595 496 555 l 496 1091 q 525 1161 496 1132 q 595 1190 555 1190 q 665 1161 636 1190 q 694 1091 694 1132 z "},"":{"ha":1389,"x_min":0,"x_max":1389,"o":"m 198 74 l 198 -74 q 191 -92 198 -85 q 174 -99 184 -99 l 25 -99 q 7 -92 14 -99 q 0 -74 0 -85 l 0 74 q 7 92 0 85 q 25 99 14 99 l 174 99 q 191 92 184 99 q 198 74 198 85 m 496 174 l 496 -74 q 489 -92 496 -85 q 471 -99 482 -99 l 322 -99 q 305 -92 312 -99 q 298 -74 298 -85 l 298 174 q 305 191 298 184 q 322 198 312 198 l 471 198 q 489 191 482 198 q 496 174 496 184 m 794 372 l 794 -74 q 787 -92 794 -85 q 769 -99 780 -99 l 620 -99 q 602 -92 609 -99 q 595 -74 595 -85 l 595 372 q 602 390 595 383 q 620 397 609 397 l 769 397 q 787 390 780 397 q 794 372 794 383 m 1091 670 l 1091 -74 q 1084 -92 1091 -85 q 1066 -99 1077 -99 l 918 -99 q 900 -92 907 -99 q 893 -74 893 -85 l 893 670 q 900 687 893 680 q 918 694 907 694 l 1066 694 q 1084 687 1077 694 q 1091 670 1091 680 m 1389 1066 l 1389 -74 q 1382 -92 1389 -85 q 1364 -99 1375 -99 l 1215 -99 q 1197 -92 1204 -99 q 1190 -74 1190 -85 l 1190 1066 q 1197 1084 1190 1077 q 1215 1091 1204 1091 l 1364 1091 q 1382 1084 1375 1091 q 1389 1066 1389 1077 z "},"":{"ha":1190,"x_min":0,"x_max":1190,"o":"m 736 356 q 765 385 736 356 q 794 496 794 414 q 736 636 794 578 q 595 694 677 694 q 455 636 513 694 q 397 496 397 578 q 455 356 397 414 q 595 298 513 298 q 736 356 677 298 m 1190 581 l 1190 408 q 1184 391 1190 399 q 1169 381 1178 382 l 1025 359 q 995 288 1011 317 q 1078 181 1022 250 q 1086 162 1086 172 q 1079 144 1086 152 q 1002 60 1058 115 q 929 5 946 5 q 909 12 920 5 l 802 96 q 732 67 768 78 q 709 -78 719 -39 q 681 -99 704 -99 l 509 -99 q 490 -93 498 -99 q 481 -76 482 -86 l 460 67 q 390 95 422 79 l 281 12 q 261 5 273 5 q 242 14 250 5 q 114 144 144 102 q 109 162 109 152 q 115 180 109 171 q 154 231 126 196 q 196 286 182 267 q 164 363 175 325 l 22 384 q 6 393 12 385 q 0 412 0 401 l 0 584 q 6 601 0 593 q 21 612 12 610 l 165 633 q 195 705 176 669 q 112 811 164 749 q 105 830 105 821 q 112 848 105 838 q 188 931 132 876 q 261 987 244 987 q 281 979 271 987 l 388 896 q 459 925 422 914 q 481 1070 471 1031 q 509 1091 487 1091 l 681 1091 q 700 1085 692 1091 q 709 1068 708 1078 l 731 925 q 801 897 769 913 l 911 980 q 929 987 918 987 q 949 979 939 987 q 1077 847 1049 887 q 1082 830 1082 841 q 1076 812 1082 821 q 1036 761 1064 796 q 994 706 1008 725 q 1026 630 1015 667 l 1168 608 q 1184 599 1178 607 q 1190 581 1190 591 z "},"":{"ha":1091,"x_min":0,"x_max":1091,"o":"m 397 620 l 397 174 q 390 156 397 163 q 372 149 383 149 l 322 149 q 305 156 312 149 q 298 174 298 163 l 298 620 q 305 638 298 631 q 322 645 312 645 l 372 645 q 390 638 383 645 q 397 620 397 631 m 595 620 l 595 174 q 588 156 595 163 q 570 149 581 149 l 521 149 q 503 156 510 149 q 496 174 496 163 l 496 620 q 503 638 496 631 q 521 645 510 645 l 570 645 q 588 638 581 645 q 595 620 595 631 m 794 620 l 794 174 q 787 156 794 163 q 769 149 780 149 l 719 149 q 701 156 708 149 q 694 174 694 163 l 694 620 q 701 638 694 631 q 719 645 708 645 l 769 645 q 787 638 780 645 q 794 620 794 631 m 893 59 l 893 794 l 198 794 l 198 59 q 204 28 198 42 q 215 7 209 13 q 223 0 221 0 l 868 0 q 876 7 870 0 q 887 28 882 13 q 893 59 893 42 m 372 893 l 719 893 l 682 984 q 669 992 677 991 l 423 992 q 410 984 415 991 l 372 893 m 1091 868 l 1091 818 q 1084 801 1091 808 q 1066 794 1077 794 l 992 794 l 992 59 q 956 -52 992 -5 q 868 -99 919 -99 l 223 -99 q 136 -54 172 -99 q 99 56 99 -9 l 99 794 l 25 794 q 7 801 14 794 q 0 818 0 808 l 0 868 q 7 886 0 879 q 25 893 14 893 l 264 893 l 319 1022 q 360 1071 330 1051 q 422 1091 391 1091 l 670 1091 q 731 1071 701 1091 q 773 1022 761 1051 l 827 893 l 1066 893 q 1084 886 1077 893 q 1091 868 1091 879 z "},"":{"ha":1290,"x_min":20,"x_max":1270,"o":"m 1091 422 l 1091 50 q 1077 15 1091 29 q 1042 0 1062 0 l 744 0 l 744 298 l 546 298 l 546 0 l 248 0 q 213 15 228 0 q 198 50 198 29 l 198 422 q 199 424 198 422 q 199 426 199 426 l 645 794 l 1090 426 q 1091 422 1091 425 m 1264 475 l 1216 418 q 1200 409 1210 411 l 1197 409 q 1181 415 1187 409 l 645 862 l 109 415 q 90 409 99 408 q 74 418 80 411 l 26 475 q 20 493 19 483 q 29 510 21 504 l 586 974 q 645 994 611 994 q 704 974 679 994 l 893 816 l 893 967 q 900 985 893 978 q 918 992 907 992 l 1066 992 q 1084 985 1077 992 q 1091 967 1091 978 l 1091 651 l 1261 510 q 1270 493 1269 504 q 1264 475 1270 483 z "},"":{"ha":1190,"x_min":0,"x_max":1190,"o":"m 1138 896 q 1175 837 1159 874 q 1190 769 1190 800 l 1190 -124 q 1169 -177 1190 -155 q 1116 -198 1147 -198 l 74 -198 q 22 -177 43 -198 q 0 -124 0 -155 l 0 1116 q 22 1169 0 1147 q 74 1190 43 1190 l 769 1190 q 837 1175 800 1190 q 896 1138 874 1159 l 1138 896 m 794 1085 l 794 794 l 1085 794 q 1068 825 1077 816 l 825 1068 q 794 1085 816 1077 m 1091 -99 l 1091 694 l 769 694 q 716 716 738 694 q 694 769 694 738 l 694 1091 l 99 1091 l 99 -99 l 1091 -99 z "},"":{"ha":1190,"x_min":0,"x_max":1190,"o":"m 694 769 l 694 422 q 687 404 694 411 q 670 397 680 397 l 422 397 q 404 404 411 397 q 397 422 397 411 l 397 471 q 404 489 397 482 q 422 496 411 496 l 595 496 l 595 769 q 602 787 595 780 q 620 794 609 794 l 670 794 q 687 787 680 794 q 694 769 694 780 m 960 284 q 989 333 960 284 q 1017 496 1017 381 q 960 708 1017 611 q 807 861 904 805 q 595 918 710 918 q 384 861 481 918 q 230 708 287 805 q 174 496 174 611 q 230 284 174 381 q 384 131 287 188 q 595 74 481 74 q 807 131 710 74 q 960 284 904 188 m 1111 795 q 1151 726 1111 795 q 1190 496 1190 658 q 1111 197 1190 334 q 894 -19 1031 60 q 595 -99 757 -99 q 296 -19 433 -99 q 80 197 160 60 q 0 496 0 334 q 80 795 0 658 q 296 1011 160 932 q 595 1091 433 1091 q 894 1011 757 1091 q 1111 795 1031 932 z "},"":{"ha":1488,"x_min":39,"x_max":1449,"o":"m 861 419 l 861 422 l 842 670 q 834 687 842 680 q 816 694 826 694 l 672 694 q 654 687 662 694 q 646 670 646 680 l 627 422 l 627 419 q 633 403 626 409 q 649 397 640 397 l 839 397 q 855 403 848 397 q 861 419 862 409 m 1449 57 q 1414 0 1449 0 l 868 0 q 885 7 878 0 q 891 25 892 15 l 876 223 q 867 241 875 233 q 849 248 860 248 l 639 248 q 621 241 629 248 q 612 223 613 233 l 597 25 q 603 7 596 15 q 620 0 610 0 l 74 0 q 39 57 39 0 q 59 146 39 98 l 382 956 q 402 981 388 970 q 432 992 416 992 l 694 992 q 677 985 684 992 q 668 967 669 977 l 656 818 q 663 801 656 808 q 680 794 670 794 l 808 794 q 825 801 818 794 q 832 818 832 808 l 820 967 q 811 985 819 977 q 794 992 804 992 l 1056 992 q 1086 981 1072 992 q 1106 956 1100 970 l 1429 146 q 1449 57 1449 98 z "},"":{"ha":1290,"x_min":0,"x_max":1290,"o":"m 977 114 q 985 121 977 114 q 992 149 992 129 q 977 184 992 169 q 942 198 963 198 q 908 184 922 198 q 893 149 893 169 q 908 114 893 129 q 942 99 922 99 q 977 114 963 99 m 1176 114 q 1183 121 1176 114 q 1190 149 1190 129 q 1176 184 1190 169 q 1141 198 1161 198 q 1106 184 1121 198 q 1091 149 1091 169 q 1106 114 1091 129 q 1141 99 1121 99 q 1176 114 1161 99 m 1290 322 l 1290 74 q 1268 22 1290 43 q 1215 0 1246 0 l 74 0 q 22 22 43 0 q 0 74 0 43 l 0 322 q 22 375 0 353 q 74 397 43 397 l 435 397 l 539 291 q 645 248 584 248 q 750 291 705 248 l 856 397 l 1215 397 q 1268 375 1246 397 q 1290 322 1290 353 m 1038 763 q 1027 709 1051 732 l 680 362 q 645 347 666 347 q 610 362 624 347 l 263 709 q 252 763 239 732 q 298 794 265 794 l 496 794 l 496 1141 q 511 1176 496 1161 q 546 1190 525 1190 l 744 1190 q 779 1176 764 1190 q 794 1141 794 1161 l 794 794 l 992 794 q 1038 763 1025 794 z "},"":{"ha":1190,"x_min":0,"x_max":1190,"o":"m 868 471 q 860 453 868 462 l 613 205 q 595 198 605 198 q 577 205 586 198 l 329 453 q 324 481 318 466 q 347 496 330 496 l 496 496 l 496 769 q 503 787 496 780 q 521 794 510 794 l 670 794 q 687 787 680 794 q 694 769 694 780 l 694 496 l 843 496 q 861 489 854 496 q 868 471 868 482 m 807 861 q 758 889 807 861 q 595 918 710 918 q 384 861 481 918 q 230 708 287 805 q 174 496 174 611 q 230 284 174 381 q 384 131 287 188 q 595 74 481 74 q 807 131 710 74 q 960 284 904 188 q 1017 496 1017 381 q 960 708 1017 611 q 807 861 904 805 m 1111 795 q 1151 726 1111 795 q 1190 496 1190 658 q 1111 197 1190 334 q 894 -19 1031 60 q 595 -99 757 -99 q 296 -19 433 -99 q 80 197 160 60 q 0 496 0 334 q 80 795 0 658 q 296 1011 160 932 q 595 1091 433 1091 q 894 1011 757 1091 q 1111 795 1031 932 z "},"":{"ha":1190,"x_min":0,"x_max":1190,"o":"m 867 512 q 843 496 860 496 l 694 496 l 694 223 q 687 205 694 212 q 670 198 680 198 l 521 198 q 503 205 510 198 q 496 223 496 212 l 496 496 l 347 496 q 329 503 336 496 q 322 521 322 510 q 330 539 322 530 l 577 787 q 595 794 586 794 q 613 787 605 794 l 861 539 q 867 512 873 526 m 807 861 q 758 889 807 861 q 595 918 710 918 q 384 861 481 918 q 230 708 287 805 q 174 496 174 611 q 230 284 174 381 q 384 131 287 188 q 595 74 481 74 q 807 131 710 74 q 960 284 904 188 q 1017 496 1017 381 q 960 708 1017 611 q 807 861 904 805 m 1111 795 q 1151 726 1111 795 q 1190 496 1190 658 q 1111 197 1190 334 q 894 -19 1031 60 q 595 -99 757 -99 q 296 -19 433 -99 q 80 197 160 60 q 0 496 0 334 q 80 795 0 658 q 296 1011 160 932 q 595 1091 433 1091 q 894 1011 757 1091 q 1111 795 1031 932 z "},"":{"ha":1190,"x_min":0,"x_max":1190,"o":"m 793 446 l 1038 446 q 1036 453 1037 449 q 1034 459 1035 457 l 870 843 l 321 843 l 157 459 q 155 453 156 457 q 153 446 153 448 l 398 446 l 471 298 l 719 298 l 793 446 m 1190 423 l 1190 50 q 1176 15 1190 29 q 1141 0 1161 0 l 50 0 q 15 15 29 0 q 0 50 0 29 l 0 423 q 19 519 0 471 l 204 946 q 232 979 212 966 q 273 992 253 992 l 918 992 q 958 979 938 992 q 987 946 979 966 l 1171 519 q 1190 423 1190 471 z "},"":{"ha":1190,"x_min":0,"x_max":1190,"o":"m 893 539 q 918 496 918 525 q 893 453 918 467 l 471 205 q 446 198 460 198 q 422 205 434 198 q 397 248 397 219 l 397 744 q 422 787 397 773 q 471 787 447 801 l 893 539 m 960 284 q 989 333 960 284 q 1017 496 1017 381 q 960 708 1017 611 q 807 861 904 805 q 595 918 710 918 q 384 861 481 918 q 230 708 287 805 q 174 496 174 611 q 230 284 174 381 q 384 131 287 188 q 595 74 481 74 q 807 131 710 74 q 960 284 904 188 m 1111 795 q 1151 726 1111 795 q 1190 496 1190 658 q 1111 197 1190 334 q 894 -19 1031 60 q 595 -99 757 -99 q 296 -19 433 -99 q 80 197 160 60 q 0 496 0 334 q 80 795 0 658 q 296 1011 160 932 q 595 1091 433 1091 q 894 1011 757 1091 q 1111 795 1031 932 z "},"":{"ha":1190,"x_min":0,"x_max":1190,"o":"m 1190 992 l 1190 645 q 1176 610 1190 625 q 1141 595 1161 595 l 794 595 q 748 626 761 595 q 759 680 735 656 l 866 787 q 595 893 751 893 q 441 861 515 893 q 315 777 368 830 q 230 650 261 723 q 198 496 198 577 q 230 342 198 415 q 315 215 261 269 q 441 131 368 162 q 595 99 515 99 q 770 140 687 99 q 908 253 852 180 q 926 263 914 261 q 946 256 937 263 l 1052 149 q 1059 133 1059 143 q 1053 115 1059 123 q 849 -43 969 13 q 595 -99 729 -99 q 364 -52 474 -99 q 174 75 254 -5 q 47 265 95 155 q 0 496 0 375 q 47 727 0 617 q 174 917 95 837 q 364 1044 254 997 q 595 1091 474 1091 q 816 1048 709 1091 q 1005 927 922 1005 l 1106 1027 q 1160 1038 1128 1051 q 1190 992 1190 1025 z "},"":{"ha":1190,"x_min":0,"x_max":1190,"o":"m 1171 372 q 1170 367 1171 368 q 963 30 1121 159 q 592 -99 805 -99 q 373 -57 479 -99 q 184 65 267 -14 l 84 -35 q 50 -50 70 -50 q 15 -35 29 -50 q 0 0 0 -20 l 0 347 q 15 382 0 367 q 50 397 29 397 l 397 397 q 432 382 417 397 q 446 347 446 367 q 432 312 446 327 l 326 206 q 450 127 381 155 q 595 99 520 99 q 789 150 699 99 q 933 288 879 200 q 974 379 942 301 q 997 397 980 397 l 1146 397 q 1164 389 1156 397 q 1171 372 1171 382 m 1190 992 l 1190 645 q 1176 610 1190 625 q 1141 595 1161 595 l 794 595 q 759 610 773 595 q 744 645 744 625 q 759 680 744 665 l 866 787 q 595 893 751 893 q 401 842 491 893 q 257 704 312 792 q 216 613 249 691 q 193 595 210 595 l 39 595 q 21 603 29 595 q 14 620 14 610 l 14 625 q 223 962 64 833 q 595 1091 382 1091 q 815 1048 708 1091 q 1005 927 922 1005 l 1106 1027 q 1141 1042 1121 1042 q 1176 1027 1161 1042 q 1190 992 1190 1012 z "},"":{"ha":1389,"x_min":0,"x_max":1389,"o":"m 298 273 l 298 223 q 290 206 298 213 q 273 198 283 198 l 223 198 q 206 206 213 198 q 198 223 198 213 l 198 273 q 206 290 198 283 q 223 298 213 298 l 273 298 q 290 290 283 298 q 298 273 298 283 m 298 471 l 298 422 q 290 404 298 412 q 273 397 283 397 l 223 397 q 206 404 213 397 q 198 422 198 412 l 198 471 q 206 489 198 481 q 223 496 213 496 l 273 496 q 290 489 283 496 q 298 471 298 481 m 298 670 l 298 620 q 290 603 298 610 q 273 595 283 595 l 223 595 q 206 603 213 595 q 198 620 198 610 l 198 670 q 206 687 198 680 q 223 694 213 694 l 273 694 q 290 687 283 694 q 298 670 298 680 m 1190 273 l 1190 223 q 1183 206 1190 213 q 1166 198 1176 198 l 422 198 q 404 206 412 198 q 397 223 397 213 l 397 273 q 404 290 397 283 q 422 298 412 298 l 1166 298 q 1183 290 1176 298 q 1190 273 1190 283 m 1190 471 l 1190 422 q 1183 404 1190 412 q 1166 397 1176 397 l 422 397 q 404 404 412 397 q 397 422 397 412 l 397 471 q 404 489 397 481 q 422 496 412 496 l 1166 496 q 1183 489 1176 496 q 1190 471 1190 481 m 1190 670 l 1190 620 q 1183 603 1190 610 q 1166 595 1176 595 l 422 595 q 404 603 412 595 q 397 620 397 610 l 397 670 q 404 687 397 680 q 422 694 412 694 l 1166 694 q 1183 687 1176 694 q 1190 670 1190 680 m 1290 124 l 1290 769 q 1282 786 1290 779 q 1265 794 1275 794 l 124 794 q 107 786 114 794 q 99 769 99 779 l 99 124 q 107 107 99 114 q 124 99 114 99 l 1265 99 q 1282 107 1275 99 q 1290 124 1290 114 m 1389 967 l 1389 124 q 1352 36 1389 73 q 1265 0 1316 0 l 124 0 q 36 36 73 0 q 0 124 0 73 l 0 967 q 36 1055 0 1018 q 124 1091 73 1091 l 1265 1091 q 1352 1055 1316 1091 q 1389 967 1389 1018 z "},"":{"ha":893,"x_min":0,"x_max":893,"o":"m 248 595 l 645 595 l 645 744 q 587 884 645 826 q 446 942 529 942 q 306 884 364 942 q 248 744 248 826 l 248 595 m 893 521 l 893 74 q 871 22 893 43 q 818 0 849 0 l 74 0 q 22 22 43 0 q 0 74 0 43 l 0 521 q 22 574 0 552 q 74 595 43 595 l 99 595 l 99 744 q 202 989 99 887 q 446 1091 304 1091 q 691 989 589 1091 q 794 744 794 887 l 794 595 l 818 595 q 871 574 849 595 q 893 521 893 552 z "},"":{"ha":1389,"x_min":50,"x_max":1389,"o":"m 248 992 q 198 907 248 936 l 198 -74 q 191 -92 198 -84 q 174 -99 184 -99 l 124 -99 q 107 -92 114 -99 q 99 -74 99 -84 l 99 907 q 50 992 50 936 q 79 1062 50 1033 q 149 1091 108 1091 q 219 1062 190 1091 q 248 992 248 1033 m 1389 942 l 1389 351 q 1379 321 1389 332 q 1349 300 1370 311 q 1063 210 1182 210 q 967 227 1015 210 q 883 264 918 244 q 793 301 847 284 q 683 319 739 319 q 323 205 534 319 q 298 198 310 198 q 263 213 277 198 q 248 248 248 228 l 248 823 q 272 866 248 848 q 333 899 288 877 q 660 992 516 992 q 815 970 742 992 q 984 901 887 947 q 1053 887 1014 887 q 1144 903 1094 887 q 1229 939 1193 919 q 1297 976 1265 960 q 1339 992 1329 992 q 1374 977 1359 992 q 1389 942 1389 963 z "},"":{"ha":1290,"x_min":0,"x_max":1290,"o":"m 1290 504 q 1243 260 1290 375 l 1228 222 l 1084 197 q 1014 91 1067 133 q 893 50 961 50 l 893 25 q 886 7 893 14 q 868 0 879 0 l 818 0 q 801 7 808 0 q 794 25 794 14 l 794 471 q 801 489 794 482 q 818 496 808 496 l 868 496 q 886 489 879 496 q 893 471 893 482 l 893 446 q 994 419 948 446 q 1066 345 1039 391 l 1118 354 q 1141 504 1141 428 q 1073 720 1141 618 q 889 882 1004 822 q 645 942 774 942 q 400 882 515 942 q 217 720 285 822 q 149 504 149 618 q 171 354 149 428 l 224 345 q 296 419 250 391 q 397 446 342 446 l 397 471 q 404 489 397 482 q 422 496 411 496 l 471 496 q 489 489 482 496 q 496 471 496 482 l 496 25 q 489 7 496 14 q 471 0 482 0 l 422 0 q 404 7 411 0 q 397 25 397 14 l 397 50 q 276 91 329 50 q 205 197 222 133 l 62 222 l 47 260 q 0 504 0 375 q 52 729 0 621 q 191 917 104 838 q 397 1044 277 997 q 645 1091 516 1091 q 893 1044 773 1091 q 1099 917 1012 997 q 1238 729 1186 838 q 1290 504 1290 621 z "},"":{"ha":595,"x_min":0,"x_max":595,"o":"m 595 918 l 595 74 q 581 40 595 54 q 546 25 566 25 q 511 40 525 25 l 253 298 l 50 298 q 15 312 29 298 q 0 347 0 327 l 0 645 q 15 680 0 665 q 50 694 29 694 l 253 694 l 511 953 q 546 967 525 967 q 581 953 566 967 q 595 918 595 938 z "},"":{"ha":893,"x_min":0,"x_max":893,"o":"m 595 918 l 595 74 q 581 40 595 54 q 546 25 566 25 q 511 40 525 25 l 253 298 l 50 298 q 15 312 29 298 q 0 347 0 327 l 0 645 q 15 680 0 665 q 50 694 29 694 l 253 694 l 511 953 q 546 967 525 967 q 581 953 566 967 q 595 918 595 938 m 860 606 q 876 581 860 606 q 893 496 893 555 q 860 386 893 437 q 773 314 827 336 q 753 310 765 310 q 718 324 733 310 q 704 360 704 339 q 713 387 704 376 q 736 407 722 398 q 762 424 749 415 q 784 452 775 434 q 794 496 794 470 q 784 540 794 522 q 762 568 775 558 q 736 586 749 577 q 713 605 722 594 q 704 632 704 616 q 718 668 704 653 q 753 682 733 682 q 773 678 765 682 q 860 606 827 657 z "},"":{"ha":1290,"x_min":0,"x_max":1290,"o":"m 595 918 l 595 74 q 581 40 595 54 q 546 25 566 25 q 511 40 525 25 l 253 298 l 50 298 q 15 312 29 298 q 0 347 0 327 l 0 645 q 15 680 0 665 q 50 694 29 694 l 253 694 l 511 953 q 546 967 525 967 q 581 953 566 967 q 595 918 595 938 m 860 606 q 876 581 860 606 q 893 496 893 555 q 860 386 893 437 q 773 314 827 336 q 753 310 765 310 q 718 324 733 310 q 704 360 704 339 q 713 387 704 376 q 736 407 722 398 q 762 424 749 415 q 784 452 775 434 q 794 496 794 470 q 784 540 794 522 q 762 568 775 558 q 736 586 749 577 q 713 605 722 594 q 704 632 704 616 q 718 668 704 653 q 753 682 733 682 q 773 678 765 682 q 860 606 827 657 m 1025 715 q 1058 665 1025 715 q 1091 496 1091 615 q 1025 277 1091 377 q 851 131 960 177 q 832 127 841 127 q 796 142 811 127 q 781 177 781 157 q 811 222 781 207 q 870 257 855 245 q 960 362 928 298 q 992 496 992 425 q 960 631 992 567 q 870 736 928 694 q 811 770 855 747 q 781 815 781 785 q 796 850 781 836 q 831 865 811 865 q 851 861 841 865 q 1025 715 960 815 m 1191 823 q 1240 749 1191 823 q 1290 496 1290 674 q 1191 169 1290 318 q 929 -51 1093 19 q 909 -55 919 -55 q 874 -40 889 -55 q 860 -5 860 -26 q 890 40 860 22 q 907 48 895 43 q 925 57 919 53 q 988 96 960 76 q 1137 272 1084 167 q 1190 496 1190 377 q 1137 720 1190 615 q 988 896 1084 825 q 925 935 960 916 q 907 944 919 939 q 890 952 895 949 q 860 997 860 970 q 874 1032 860 1018 q 909 1047 889 1047 q 929 1043 919 1047 q 1191 823 1093 973 z "},"":{"ha":1091,"x_min":0,"x_max":1091,"o":"m 298 298 l 298 198 l 198 198 l 198 298 l 298 298 m 298 893 l 298 794 l 198 794 l 198 893 l 298 893 m 893 893 l 893 794 l 794 794 l 794 893 l 893 893 m 99 100 l 397 100 l 397 397 l 99 397 l 99 100 m 99 694 l 397 694 l 397 992 l 99 992 l 99 694 m 694 694 l 992 694 l 992 992 l 694 992 l 694 694 m 496 496 l 496 0 l 0 0 l 0 496 l 496 496 m 893 99 l 893 0 l 794 0 l 794 99 l 893 99 m 1091 99 l 1091 0 l 992 0 l 992 99 l 1091 99 m 1091 496 l 1091 198 l 794 198 l 794 298 l 694 298 l 694 0 l 595 0 l 595 496 l 893 496 l 893 397 l 992 397 l 992 496 l 1091 496 m 496 1091 l 496 595 l 0 595 l 0 1091 l 496 1091 m 1091 1091 l 1091 595 l 595 595 l 595 1091 l 1091 1091 z "},"":{"ha":1389,"x_min":0,"x_max":1389,"o":"m 49 0 l 0 0 l 0 1091 l 49 1091 l 49 0 m 98 1 l 73 1 l 73 1091 l 98 1091 l 98 1 m 171 1 l 146 1 l 146 1091 l 171 1091 l 171 1 m 292 1 l 268 1 l 268 1091 l 292 1091 l 292 1 m 414 1 l 366 1 l 366 1091 l 414 1091 l 414 1 m 512 1 l 488 1 l 488 1091 l 512 1091 l 512 1 m 560 1 l 536 1 l 536 1091 l 560 1091 l 560 1 m 609 1 l 585 1 l 585 1091 l 609 1091 l 609 1 m 731 1 l 682 1 l 682 1091 l 731 1091 l 731 1 m 853 1 l 804 1 l 804 1091 l 853 1091 l 853 1 m 950 1 l 901 1 l 901 1091 l 950 1091 l 950 1 m 1048 1 l 999 1 l 999 1091 l 1048 1091 l 1048 1 m 1121 1 l 1072 1 l 1072 1091 l 1121 1091 l 1121 1 m 1267 1 l 1194 1 l 1194 1091 l 1267 1091 l 1267 1 m 1316 1 l 1291 1 l 1291 1091 l 1316 1091 l 1316 1 m 1389 0 l 1340 0 l 1340 1091 l 1389 1091 l 1389 0 z "},"":{"ha":1190,"x_min":0,"x_max":1174,"o":"m 318 773 q 333 788 318 773 q 347 843 347 802 q 318 913 347 884 q 248 942 289 942 q 178 913 207 942 q 149 843 149 884 q 178 773 149 802 q 248 744 207 744 q 318 773 289 744 m 1174 397 q 1146 327 1174 356 l 765 -54 q 694 -83 735 -83 q 625 -54 653 -83 l 71 501 q 21 579 41 529 q 0 670 0 629 l 0 992 q 29 1062 0 1032 q 99 1091 59 1091 l 422 1091 q 512 1071 463 1091 q 591 1021 562 1050 l 1146 467 q 1174 397 1174 437 z "},"":{"ha":1488,"x_min":0,"x_max":1472,"o":"m 318 773 q 333 788 318 773 q 347 843 347 802 q 318 913 347 884 q 248 942 289 942 q 178 913 207 942 q 149 843 149 884 q 178 773 149 802 q 248 744 207 744 q 318 773 289 744 m 1174 397 q 1146 327 1174 356 l 765 -54 q 694 -83 735 -83 q 625 -54 653 -83 l 71 501 q 21 579 41 529 q 0 670 0 629 l 0 992 q 29 1062 0 1032 q 99 1091 59 1091 l 422 1091 q 512 1071 463 1091 q 591 1021 562 1050 l 1146 467 q 1174 397 1174 437 m 1472 397 q 1443 327 1472 356 l 1063 -54 q 992 -83 1032 -83 q 946 -72 964 -83 q 905 -37 929 -61 l 1270 327 q 1298 397 1298 356 q 1270 467 1298 437 l 715 1021 q 636 1071 686 1050 q 546 1091 587 1091 l 719 1091 q 810 1071 760 1091 q 889 1021 860 1050 l 1443 467 q 1472 397 1472 437 z "},"":{"ha":1290,"x_min":8,"x_max":1284,"o":"m 1270 820 q 1284 720 1301 776 l 1071 18 q 1012 -65 1056 -32 q 917 -99 967 -99 l 202 -99 q 86 -58 142 -99 q 9 44 31 -16 q 8 143 -9 96 q 10 164 8 146 q 13 192 12 181 q 11 209 14 198 q 9 224 8 219 q 15 240 10 233 q 28 258 19 248 q 40 277 36 269 q 75 348 58 306 q 98 419 92 389 q 99 442 101 426 q 98 463 97 457 q 112 485 101 472 q 125 503 122 498 q 157 574 141 531 q 177 644 174 618 q 175 669 177 651 q 175 691 172 687 q 192 714 178 701 q 209 732 206 728 q 242 797 224 752 q 264 872 260 842 q 261 892 264 878 q 260 912 258 905 q 267 926 261 918 q 281 944 272 934 q 294 960 289 954 q 307 984 300 970 q 318 1011 313 998 q 331 1039 323 1024 q 346 1064 338 1054 q 366 1082 353 1073 q 394 1091 379 1090 q 431 1087 409 1091 l 430 1084 q 470 1091 460 1091 l 1059 1091 q 1148 1048 1117 1091 q 1162 947 1179 1004 l 949 245 q 894 126 922 153 q 794 99 867 99 l 121 99 q 91 88 100 99 q 91 54 83 75 q 202 0 109 0 l 918 0 q 961 12 940 0 q 988 44 982 24 l 1221 809 q 1225 853 1226 826 q 1270 820 1254 842 m 446 818 q 447 801 443 808 q 463 794 452 794 l 934 794 q 954 801 944 794 q 966 818 963 808 l 983 868 q 981 885 986 878 q 966 893 977 893 l 494 893 q 475 885 484 893 q 462 868 465 878 l 446 818 m 381 620 q 383 603 378 610 q 398 595 388 595 l 870 595 q 889 603 880 595 q 902 620 899 610 l 918 670 q 917 687 922 680 q 901 694 912 694 l 430 694 q 410 687 420 694 q 398 670 401 680 l 381 620 z "},"":{"ha":992,"x_min":0,"x_max":992,"o":"m 902 1091 q 936 1084 920 1091 q 977 1053 962 1074 q 992 1004 992 1031 l 992 5 q 977 -43 992 -21 q 936 -74 962 -64 q 902 -81 922 -81 q 838 -56 865 -81 l 496 273 l 154 -56 q 90 -81 126 -81 q 56 -74 72 -81 q 15 -43 30 -64 q 0 5 0 -21 l 0 1004 q 15 1053 0 1031 q 56 1084 30 1074 q 90 1091 72 1091 l 902 1091 z "},"":{"ha":1290,"x_min":0,"x_max":1290,"o":"m 298 0 l 992 0 l 992 198 l 298 198 l 298 0 m 298 496 l 992 496 l 992 794 l 868 794 q 815 815 837 794 q 794 868 794 837 l 794 992 l 298 992 l 298 496 m 1176 412 q 1183 419 1176 412 q 1190 446 1190 426 q 1176 481 1190 467 q 1141 496 1161 496 q 1106 481 1121 496 q 1091 446 1091 467 q 1106 412 1091 426 q 1141 397 1121 397 q 1176 412 1161 397 m 1290 446 l 1290 124 q 1282 107 1290 114 q 1265 99 1275 99 l 1091 99 l 1091 -25 q 1070 -78 1091 -56 q 1017 -99 1048 -99 l 273 -99 q 220 -78 242 -99 q 198 -25 198 -56 l 198 99 l 25 99 q 7 107 15 99 q 0 124 0 114 l 0 446 q 44 551 0 508 q 149 595 88 595 l 198 595 l 198 1017 q 220 1070 198 1048 q 273 1091 242 1091 l 794 1091 q 862 1076 825 1091 q 921 1039 899 1060 l 1039 921 q 1076 862 1060 899 q 1091 794 1091 825 l 1091 595 l 1141 595 q 1246 551 1202 595 q 1290 446 1290 508 z "},"":{"ha":1488,"x_min":0,"x_max":1488,"o":"m 586 604 q 619 637 586 604 q 744 670 652 670 q 902 604 836 670 q 967 446 967 539 q 902 289 967 354 q 744 223 836 223 q 586 289 652 223 q 521 446 521 354 q 586 604 521 539 m 1290 992 q 1430 934 1372 992 q 1488 794 1488 876 l 1488 99 q 1430 -41 1488 17 q 1290 -99 1372 -99 l 198 -99 q 58 -41 116 -99 q 0 99 0 17 l 0 794 q 58 934 0 876 q 198 992 116 992 l 372 992 l 412 1097 q 465 1163 426 1135 q 546 1190 505 1190 l 942 1190 q 1023 1163 984 1190 q 1077 1097 1062 1135 l 1116 992 l 1290 992 m 499 201 q 550 150 499 201 q 744 99 601 99 q 989 201 887 99 q 1091 446 1091 303 q 989 692 1091 590 q 744 794 887 794 q 499 692 601 794 q 397 446 397 590 q 499 201 397 303 z "},"":{"ha":1290,"x_min":0,"x_max":1290,"o":"m 562 757 l 430 408 q 536 407 456 408 q 660 405 616 405 q 705 407 675 405 q 562 757 637 603 m 0 -99 l 2 -38 q 45 -28 19 -33 q 89 -20 71 -24 q 127 -9 108 -16 q 162 14 147 -2 q 186 53 177 29 l 370 530 l 587 1091 l 645 1091 l 686 1091 q 694 1075 692 1080 l 853 703 q 935 503 879 643 q 1024 291 992 364 q 1069 179 1035 264 q 1125 48 1102 93 q 1152 4 1140 13 q 1220 -19 1166 -8 q 1285 -35 1273 -30 q 1290 -79 1290 -64 q 1289 -89 1290 -82 q 1289 -99 1289 -96 q 1142 -93 1240 -99 q 994 -87 1043 -87 q 827 -92 935 -87 q 689 -98 719 -98 q 692 -38 689 -65 l 794 -16 q 803 -14 794 -16 q 815 -12 812 -12 q 827 -8 818 -11 q 838 -3 835 -5 q 847 3 842 -1 q 854 12 852 7 q 856 22 856 16 q 832 97 856 35 q 776 235 808 160 q 743 312 744 310 l 395 314 q 335 162 374 269 q 296 36 296 56 q 307 7 296 19 q 341 -12 318 -5 q 378 -22 363 -19 q 422 -29 393 -26 q 454 -32 452 -32 q 455 -77 455 -47 q 453 -98 455 -84 q 318 -90 408 -98 q 183 -82 228 -82 q 162 -85 177 -82 q 146 -88 148 -88 q 0 -99 84 -99 z "},"":{"ha":1091,"x_min":0,"x_max":1091,"o":"m 430 12 q 539 -13 488 -13 q 830 246 830 -13 q 798 386 830 335 q 751 443 777 420 q 698 479 724 467 q 636 499 673 492 q 571 507 599 505 q 498 508 543 508 q 419 501 441 508 q 419 377 419 460 q 419 255 419 295 q 418 203 419 249 q 417 128 417 157 q 421 63 418 99 q 430 12 424 27 m 419 590 q 504 584 452 584 q 615 594 567 584 q 700 629 662 605 q 758 698 738 653 q 777 808 777 743 q 755 903 777 863 q 694 967 732 944 q 610 1001 655 990 q 514 1011 565 1011 q 413 1001 475 1011 q 416 884 413 963 q 419 767 419 806 q 419 705 419 746 q 419 643 419 663 q 419 590 419 608 m 0 -99 l 2 -26 q 67 -14 13 -23 q 150 7 122 -5 q 159 28 155 16 q 166 54 164 40 q 170 79 168 68 q 172 108 172 90 q 173 134 173 126 q 173 162 173 143 q 173 185 173 181 q 156 980 173 946 q 139 991 153 986 q 104 999 125 996 q 66 1005 84 1003 q 28 1008 48 1007 q 5 1011 9 1010 l 2 1075 q 265 1084 78 1077 q 554 1091 453 1091 q 607 1091 572 1091 q 660 1090 643 1090 q 765 1080 714 1090 q 865 1048 817 1070 q 949 993 913 1025 q 1006 912 984 960 q 1028 805 1028 863 q 1015 731 1028 765 q 985 675 1002 698 q 935 631 967 653 q 878 596 902 608 q 813 565 854 584 q 1012 461 932 538 q 1091 269 1091 384 q 1064 130 1091 191 q 992 29 1037 68 q 885 -38 946 -11 q 758 -75 823 -64 q 622 -86 693 -86 q 519 -84 587 -86 q 417 -81 451 -81 q 179 -90 335 -81 q 0 -99 23 -98 z "},"":{"ha":794,"x_min":0,"x_max":794,"o":"m 0 -98 l 13 -32 q 76 -15 18 -30 q 163 14 135 0 q 195 92 184 41 q 243 316 195 98 q 331 737 290 535 q 371 967 372 940 l 371 987 q 329 1001 353 997 q 275 1007 305 1005 q 230 1011 245 1009 l 245 1091 q 338 1086 270 1090 q 454 1081 405 1083 q 547 1079 502 1079 q 624 1081 584 1079 q 717 1086 663 1083 q 794 1091 772 1090 q 779 1022 790 1061 q 700 1000 756 1015 q 616 974 645 986 q 605 941 610 960 q 598 910 601 923 q 593 875 596 898 q 587 842 589 853 q 520 517 567 728 q 460 242 473 307 q 450 197 458 235 q 434 127 441 159 q 422 62 427 95 q 417 18 416 29 l 418 4 q 561 -20 431 1 q 549 -97 559 -54 q 524 -98 540 -97 q 498 -99 507 -99 q 431 -91 476 -99 q 364 -84 386 -84 q 205 -82 257 -82 q 94 -89 165 -82 q 0 -98 22 -96 z "},"":{"ha":1389,"x_min":0,"x_max":1384,"o":"m 1352 99 q 1384 85 1377 99 q 1376 50 1391 71 l 1278 -75 q 1240 -95 1263 -95 q 1202 -75 1218 -95 l 1104 50 q 1096 85 1089 71 q 1128 99 1103 99 l 1190 99 l 1190 893 l 1128 893 q 1096 907 1103 893 q 1104 942 1089 922 l 1202 1067 q 1240 1087 1218 1087 q 1278 1067 1263 1087 l 1376 942 q 1384 907 1391 922 q 1352 893 1377 893 l 1290 893 l 1290 99 l 1352 99 m 63 1090 l 105 1070 q 268 1066 114 1066 q 370 1067 302 1066 q 473 1069 439 1069 q 556 1068 501 1069 q 639 1068 612 1068 l 867 1068 q 883 1068 871 1068 q 899 1068 894 1067 q 911 1070 903 1068 q 925 1077 919 1072 q 936 1090 930 1082 l 969 1091 q 980 1091 972 1091 q 991 1090 987 1090 q 992 830 992 1004 q 988 746 992 768 q 935 732 958 735 q 894 831 916 766 q 885 868 891 838 q 874 925 879 898 q 868 953 869 952 q 859 962 863 959 q 847 967 854 966 q 837 969 839 968 q 823 969 834 970 q 810 969 811 969 q 758 969 797 969 q 701 970 720 970 q 651 968 681 970 q 596 963 621 966 q 590 858 589 901 q 591 557 590 785 q 593 205 593 329 q 591 149 593 192 q 591 78 589 106 q 601 25 593 50 q 697 -8 632 9 q 790 -37 762 -25 q 794 -76 794 -68 q 791 -98 794 -87 l 765 -99 q 596 -93 706 -101 q 436 -85 486 -85 q 319 -92 397 -85 q 201 -99 240 -99 q 198 -59 198 -60 l 198 -52 q 246 -19 212 -31 q 322 4 281 -6 q 383 25 364 14 q 398 322 398 57 q 395 556 398 400 q 393 791 393 713 l 393 882 q 393 894 393 884 q 394 913 394 904 q 393 933 394 922 q 391 952 392 944 q 387 963 389 960 q 261 972 378 972 q 189 963 236 972 q 127 942 143 953 q 101 886 112 932 q 76 800 89 840 q 43 759 64 760 q 0 793 11 779 l 0 1090 l 63 1090 z "},"":{"ha":1190,"x_min":0,"x_max":1190,"o":"m 63 1090 l 105 1070 q 268 1066 114 1066 q 370 1067 302 1066 q 473 1069 439 1069 q 664 1070 527 1069 q 900 1070 801 1070 q 1091 1066 999 1070 q 1135 1090 1117 1066 l 1167 1091 q 1178 1091 1170 1091 q 1189 1090 1186 1090 q 1190 830 1190 1004 q 1187 746 1190 768 q 1134 732 1156 735 q 1092 831 1115 766 q 1084 868 1090 838 q 1072 925 1077 898 q 1066 953 1066 952 q 1046 967 1059 963 q 994 969 1042 969 q 922 970 971 969 q 842 970 873 970 q 770 969 811 970 q 695 963 728 967 q 689 858 688 901 l 690 740 l 690 780 q 691 661 690 738 q 692 522 691 584 q 692 403 692 459 q 690 348 692 391 q 690 277 688 305 q 700 223 692 249 q 796 190 731 207 q 889 161 861 174 q 893 122 893 130 q 891 100 893 112 l 864 99 q 695 105 805 98 q 535 113 585 113 q 418 106 496 113 q 300 99 339 99 q 298 140 298 139 l 298 146 q 345 180 311 167 q 422 202 380 192 q 482 223 463 212 q 491 281 488 236 q 496 393 494 326 q 497 513 497 461 q 496 632 497 566 q 496 701 496 699 q 494 718 496 707 q 492 736 492 729 q 493 770 492 741 q 493 826 493 798 q 493 885 494 854 q 491 938 493 917 q 486 963 489 959 q 360 972 477 972 q 234 961 329 972 q 127 942 140 951 q 101 887 112 933 q 76 801 89 841 q 43 759 64 760 q 0 793 11 779 l 0 1090 l 63 1090 m 1015 97 q 1048 82 1025 97 q 1092 50 1071 67 q 1139 12 1114 33 q 1166 -12 1163 -9 q 1187 -50 1187 -28 q 1166 -88 1187 -71 q 1139 -111 1163 -90 q 1092 -149 1114 -132 q 1048 -181 1071 -166 q 1015 -196 1025 -196 q 999 -188 1005 -196 q 992 -166 994 -180 q 990 -140 990 -152 q 991 -114 990 -128 q 992 -99 992 -101 l 198 -99 q 200 -114 198 -101 q 201 -140 201 -128 q 199 -166 201 -152 q 191 -188 197 -180 q 175 -196 185 -196 q 143 -181 166 -196 q 98 -149 119 -166 q 52 -111 77 -132 q 24 -88 27 -90 q 4 -50 4 -71 q 24 -12 4 -28 q 52 12 27 -9 q 98 50 77 33 q 143 82 119 67 q 175 97 166 97 q 191 89 185 97 q 199 67 197 81 q 201 41 201 53 q 200 15 201 29 q 198 0 198 2 l 992 0 q 991 15 992 2 q 990 41 990 29 q 992 67 990 53 q 999 89 994 81 q 1015 97 1005 97 z "},"":{"ha":1389,"x_min":0,"x_max":1389,"o":"m 1389 149 l 1389 50 q 1374 15 1389 29 q 1339 0 1359 0 l 50 0 q 15 15 29 0 q 0 50 0 29 l 0 149 q 15 184 0 169 q 50 198 29 198 l 1339 198 q 1374 184 1359 198 q 1389 149 1389 169 m 1091 446 l 1091 347 q 1077 312 1091 327 q 1042 298 1062 298 l 50 298 q 15 312 29 298 q 0 347 0 327 l 0 446 q 15 481 0 467 q 50 496 29 496 l 1042 496 q 1077 481 1062 496 q 1091 446 1091 467 m 1290 744 l 1290 645 q 1275 610 1290 625 q 1240 595 1260 595 l 50 595 q 15 610 29 595 q 0 645 0 625 l 0 744 q 15 779 0 764 q 50 794 29 794 l 1240 794 q 1275 779 1260 794 q 1290 744 1290 764 m 992 1042 l 992 942 q 977 908 992 922 q 942 893 963 893 l 50 893 q 15 908 29 893 q 0 942 0 922 l 0 1042 q 15 1077 0 1062 q 50 1091 29 1091 l 942 1091 q 977 1077 963 1091 q 992 1042 992 1062 z "},"":{"ha":1389,"x_min":0,"x_max":1389,"o":"m 1389 149 l 1389 50 q 1374 15 1389 29 q 1339 0 1359 0 l 50 0 q 15 15 29 0 q 0 50 0 29 l 0 149 q 15 184 0 169 q 50 198 29 198 l 1339 198 q 1374 184 1359 198 q 1389 149 1389 169 m 1091 446 l 1091 347 q 1077 312 1091 327 q 1042 298 1062 298 l 347 298 q 312 312 327 298 q 298 347 298 327 l 298 446 q 312 481 298 467 q 347 496 327 496 l 1042 496 q 1077 481 1062 496 q 1091 446 1091 467 m 1290 744 l 1290 645 q 1275 610 1290 625 q 1240 595 1260 595 l 149 595 q 114 610 129 595 q 99 645 99 625 l 99 744 q 114 779 99 764 q 149 794 129 794 l 1240 794 q 1275 779 1260 794 q 1290 744 1290 764 m 992 1042 l 992 942 q 977 908 992 922 q 942 893 963 893 l 446 893 q 412 908 426 893 q 397 942 397 922 l 397 1042 q 412 1077 397 1062 q 446 1091 426 1091 l 942 1091 q 977 1077 963 1091 q 992 1042 992 1062 z "},"":{"ha":1389,"x_min":0,"x_max":1389,"o":"m 1389 149 l 1389 50 q 1374 15 1389 29 q 1339 0 1359 0 l 50 0 q 15 15 29 0 q 0 50 0 29 l 0 149 q 15 184 0 169 q 50 198 29 198 l 1339 198 q 1374 184 1359 198 q 1389 149 1389 169 m 1389 446 l 1389 347 q 1374 312 1389 327 q 1339 298 1359 298 l 347 298 q 312 312 327 298 q 298 347 298 327 l 298 446 q 312 481 298 467 q 347 496 327 496 l 1339 496 q 1374 481 1359 496 q 1389 446 1389 467 m 1389 744 l 1389 645 q 1374 610 1389 625 q 1339 595 1359 595 l 149 595 q 114 610 129 595 q 99 645 99 625 l 99 744 q 114 779 99 764 q 149 794 129 794 l 1339 794 q 1374 779 1359 794 q 1389 744 1389 764 m 1389 1042 l 1389 942 q 1374 908 1389 922 q 1339 893 1359 893 l 446 893 q 412 908 426 893 q 397 942 397 922 l 397 1042 q 412 1077 397 1062 q 446 1091 426 1091 l 1339 1091 q 1374 1077 1359 1091 q 1389 1042 1389 1062 z "},"":{"ha":1389,"x_min":0,"x_max":1389,"o":"m 1389 149 l 1389 50 q 1374 15 1389 29 q 1339 0 1359 0 l 50 0 q 15 15 29 0 q 0 50 0 29 l 0 149 q 15 184 0 169 q 50 198 29 198 l 1339 198 q 1374 184 1359 198 q 1389 149 1389 169 m 1389 446 l 1389 347 q 1374 312 1389 327 q 1339 298 1359 298 l 50 298 q 15 312 29 298 q 0 347 0 327 l 0 446 q 15 481 0 467 q 50 496 29 496 l 1339 496 q 1374 481 1359 496 q 1389 446 1389 467 m 1389 744 l 1389 645 q 1374 610 1389 625 q 1339 595 1359 595 l 50 595 q 15 610 29 595 q 0 645 0 625 l 0 744 q 15 779 0 764 q 50 794 29 794 l 1339 794 q 1374 779 1359 794 q 1389 744 1389 764 m 1389 1042 l 1389 942 q 1374 908 1389 922 q 1339 893 1359 893 l 50 893 q 15 908 29 893 q 0 942 0 922 l 0 1042 q 15 1077 0 1062 q 50 1091 29 1091 l 1339 1091 q 1374 1077 1359 1091 q 1389 1042 1389 1062 z "},"":{"ha":1389,"x_min":0,"x_max":1389,"o":"m 198 174 l 198 25 q 191 7 198 15 q 174 0 184 0 l 25 0 q 7 7 15 0 q 0 25 0 15 l 0 174 q 7 191 0 184 q 25 198 15 198 l 174 198 q 191 191 184 198 q 198 174 198 184 m 198 471 l 198 322 q 191 305 198 312 q 174 298 184 298 l 25 298 q 7 305 15 298 q 0 322 0 312 l 0 471 q 7 489 0 481 q 25 496 15 496 l 174 496 q 191 489 184 496 q 198 471 198 481 m 198 769 l 198 620 q 191 603 198 610 q 174 595 184 595 l 25 595 q 7 603 15 595 q 0 620 0 610 l 0 769 q 7 786 0 779 q 25 794 15 794 l 174 794 q 191 786 184 794 q 198 769 198 779 m 1389 174 l 1389 25 q 1382 7 1389 15 q 1364 0 1374 0 l 322 0 q 305 7 312 0 q 298 25 298 15 l 298 174 q 305 191 298 184 q 322 198 312 198 l 1364 198 q 1382 191 1374 198 q 1389 174 1389 184 m 198 1066 l 198 918 q 191 900 198 908 q 174 893 184 893 l 25 893 q 7 900 15 893 q 0 918 0 908 l 0 1066 q 7 1084 0 1077 q 25 1091 15 1091 l 174 1091 q 191 1084 184 1091 q 198 1066 198 1077 m 1389 471 l 1389 322 q 1382 305 1389 312 q 1364 298 1374 298 l 322 298 q 305 305 312 298 q 298 322 298 312 l 298 471 q 305 489 298 481 q 322 496 312 496 l 1364 496 q 1382 489 1374 496 q 1389 471 1389 481 m 1389 769 l 1389 620 q 1382 603 1389 610 q 1364 595 1374 595 l 322 595 q 305 603 312 595 q 298 620 298 610 l 298 769 q 305 786 298 779 q 322 794 312 794 l 1364 794 q 1382 786 1374 794 q 1389 769 1389 779 m 1389 1066 l 1389 918 q 1382 900 1389 908 q 1364 893 1374 893 l 322 893 q 305 900 312 893 q 298 918 298 908 l 298 1066 q 305 1084 298 1077 q 322 1091 312 1091 l 1364 1091 q 1382 1084 1374 1091 q 1389 1066 1389 1077 z "},"":{"ha":1389,"x_min":0,"x_max":1389,"o":"m 298 769 l 298 322 q 290 305 298 312 q 273 298 283 298 q 255 305 262 298 l 32 528 q 25 546 25 535 q 32 563 25 556 l 255 787 q 273 794 262 794 q 290 786 283 794 q 298 769 298 779 m 1389 174 l 1389 25 q 1382 7 1389 15 q 1364 0 1374 0 l 25 0 q 7 7 15 0 q 0 25 0 15 l 0 174 q 7 191 0 184 q 25 198 15 198 l 1364 198 q 1382 191 1374 198 q 1389 174 1389 184 m 1389 471 l 1389 322 q 1382 305 1389 312 q 1364 298 1374 298 l 521 298 q 503 305 511 298 q 496 322 496 312 l 496 471 q 503 489 496 481 q 521 496 511 496 l 1364 496 q 1382 489 1374 496 q 1389 471 1389 481 m 1389 769 l 1389 620 q 1382 603 1389 610 q 1364 595 1374 595 l 521 595 q 503 603 511 595 q 496 620 496 610 l 496 769 q 503 786 496 779 q 521 794 511 794 l 1364 794 q 1382 786 1374 794 q 1389 769 1389 779 m 1389 1066 l 1389 918 q 1382 900 1389 908 q 1364 893 1374 893 l 25 893 q 7 900 15 893 q 0 918 0 908 l 0 1066 q 7 1084 0 1077 q 25 1091 15 1091 l 1364 1091 q 1382 1084 1374 1091 q 1389 1066 1389 1077 z "},"":{"ha":1389,"x_min":0,"x_max":1389,"o":"m 266 563 q 273 546 273 556 q 266 528 273 535 l 43 305 q 25 298 36 298 q 7 305 15 298 q 0 322 0 312 l 0 769 q 7 786 0 779 q 25 794 15 794 q 43 787 36 794 l 266 563 m 1389 174 l 1389 25 q 1382 7 1389 15 q 1364 0 1374 0 l 25 0 q 7 7 15 0 q 0 25 0 15 l 0 174 q 7 191 0 184 q 25 198 15 198 l 1364 198 q 1382 191 1374 198 q 1389 174 1389 184 m 1389 471 l 1389 322 q 1382 305 1389 312 q 1364 298 1374 298 l 521 298 q 503 305 511 298 q 496 322 496 312 l 496 471 q 503 489 496 481 q 521 496 511 496 l 1364 496 q 1382 489 1374 496 q 1389 471 1389 481 m 1389 769 l 1389 620 q 1382 603 1389 610 q 1364 595 1374 595 l 521 595 q 503 603 511 595 q 496 620 496 610 l 496 769 q 503 786 496 779 q 521 794 511 794 l 1364 794 q 1382 786 1374 794 q 1389 769 1389 779 m 1389 1066 l 1389 918 q 1382 900 1389 908 q 1364 893 1374 893 l 25 893 q 7 900 15 893 q 0 918 0 908 l 0 1066 q 7 1084 0 1077 q 25 1091 15 1091 l 1364 1091 q 1382 1084 1374 1091 q 1389 1066 1389 1077 z "},"":{"ha":1389,"x_min":0,"x_max":1389,"o":"m 1389 918 l 1389 74 q 1359 29 1389 42 q 1339 25 1349 25 q 1304 40 1318 25 l 992 352 l 992 223 q 927 65 992 131 q 769 0 861 0 l 223 0 q 65 65 131 0 q 0 223 0 131 l 0 769 q 65 927 0 861 q 223 992 131 992 l 769 992 q 927 927 861 992 q 992 769 992 861 l 992 641 l 1304 953 q 1339 967 1318 967 q 1359 963 1349 967 q 1389 918 1389 950 z "},"":{"ha":1488,"x_min":0,"x_max":1488,"o":"m 453 849 q 474 828 453 849 q 496 744 496 806 q 453 639 496 682 q 347 595 409 595 q 242 639 285 595 q 198 744 198 682 q 242 849 198 806 q 347 893 285 893 q 453 849 409 893 m 1290 446 l 1290 99 l 198 99 l 198 248 l 446 496 l 570 372 l 967 769 l 1290 446 m 1364 992 l 124 992 q 107 985 114 992 q 99 967 99 977 l 99 25 q 107 7 99 15 q 124 0 114 0 l 1364 0 q 1382 7 1374 0 q 1389 25 1389 15 l 1389 967 q 1382 985 1389 977 q 1364 992 1374 992 m 1488 967 l 1488 25 q 1452 -63 1488 -26 q 1364 -99 1415 -99 l 124 -99 q 36 -63 73 -99 q 0 25 0 -26 l 0 967 q 36 1055 0 1018 q 124 1091 73 1091 l 1364 1091 q 1452 1055 1415 1091 q 1488 967 1488 1018 z "},"":{"ha":1190,"x_min":0,"x_max":1174,"o":"m 281 0 l 352 71 l 170 253 l 99 182 l 99 99 l 198 99 l 198 0 l 281 0 m 687 719 q 670 736 687 736 q 656 731 662 736 l 236 311 q 231 298 231 305 q 248 281 231 281 q 261 286 256 281 l 681 706 q 687 719 687 711 m 645 868 l 967 546 l 322 -99 l 0 -99 l 0 223 l 645 868 m 1174 794 q 1146 724 1174 753 l 1017 595 l 694 918 l 823 1046 q 893 1075 851 1075 q 963 1046 934 1075 l 1146 864 q 1174 794 1174 834 z "},"":{"ha":794,"x_min":0,"x_max":794,"o":"m 537 554 q 566 583 537 554 q 595 694 595 612 q 537 835 595 777 q 397 893 479 893 q 257 835 315 893 q 198 694 198 777 q 257 554 198 612 q 397 496 315 496 q 537 554 479 496 m 794 694 q 768 556 794 610 l 486 -44 q 449 -84 474 -70 q 397 -99 425 -99 q 345 -84 369 -99 q 308 -44 320 -70 l 26 556 q 0 694 0 610 q 116 975 0 859 q 397 1091 233 1091 q 677 975 561 1091 q 794 694 794 859 z "},"":{"ha":1190,"x_min":0,"x_max":1190,"o":"m 595 74 l 595 918 q 384 861 481 918 q 230 708 287 805 q 174 496 174 611 q 230 284 174 381 q 384 131 287 188 q 595 74 481 74 m 1111 795 q 1151 726 1111 795 q 1190 496 1190 658 q 1111 197 1190 334 q 894 -19 1031 60 q 595 -99 757 -99 q 296 -19 433 -99 q 80 197 160 60 q 0 496 0 334 q 80 795 0 658 q 296 1011 160 932 q 595 1091 433 1091 q 894 1011 757 1091 q 1111 795 1031 932 z "},"":{"ha":794,"x_min":0,"x_max":794,"o":"m 397 298 q 381 351 397 326 q 369 369 381 352 q 350 398 358 385 q 330 432 341 411 q 314 471 319 453 q 298 484 311 484 q 281 471 284 484 q 265 432 276 453 q 246 398 254 411 q 226 369 237 385 q 214 351 215 352 q 198 298 198 326 q 227 227 198 257 q 298 198 257 198 q 368 227 339 198 q 397 298 397 257 m 794 397 q 677 116 794 233 q 397 0 561 0 q 116 116 233 0 q 0 397 0 233 q 63 610 0 509 q 111 680 67 617 q 189 797 155 743 q 267 935 224 851 q 331 1091 309 1019 q 357 1128 338 1115 q 397 1141 377 1141 q 437 1128 417 1141 q 463 1091 457 1115 q 527 935 484 1019 q 604 797 570 851 q 682 680 639 743 q 731 610 726 617 q 794 397 794 512 z "},"":{"ha":1389,"x_min":0,"x_max":1383,"o":"m 688 273 l 778 363 l 660 481 l 570 391 l 570 347 l 645 347 l 645 273 l 688 273 m 1028 805 q 1029 831 1042 818 q 1004 830 1017 843 l 732 559 q 732 533 719 546 q 757 534 744 521 l 1028 805 m 1091 370 l 1091 223 q 1026 65 1091 131 q 868 0 960 0 l 223 0 q 65 65 131 0 q 0 223 0 131 l 0 868 q 65 1026 0 960 q 223 1091 131 1091 l 868 1091 q 959 1072 917 1091 q 973 1054 970 1066 q 966 1032 975 1041 l 928 994 q 903 987 917 983 q 868 992 885 992 l 223 992 q 136 956 172 992 q 99 868 99 919 l 99 223 q 136 136 99 172 q 223 99 172 99 l 868 99 q 956 136 919 99 q 992 223 992 172 l 992 321 q 999 338 992 331 l 1049 388 q 1076 393 1060 399 q 1091 370 1091 387 m 1017 942 l 1240 719 l 719 198 l 496 198 l 496 422 l 1017 942 m 1361 840 l 1290 769 l 1066 992 l 1138 1063 q 1190 1085 1159 1085 q 1243 1063 1221 1085 l 1361 946 q 1383 893 1383 924 q 1361 840 1383 862 z "},"":{"ha":1290,"x_min":0,"x_max":1290,"o":"m 1091 424 l 1091 223 q 1026 65 1091 131 q 868 0 960 0 l 223 0 q 65 65 131 0 q 0 223 0 131 l 0 868 q 65 1026 0 960 q 223 1091 131 1091 l 421 1091 l 421 1091 q 438 1084 431 1091 q 446 1066 446 1077 q 426 1042 446 1046 q 322 995 366 1022 q 310 992 315 992 l 223 992 q 136 956 172 992 q 99 868 99 919 l 99 223 q 136 136 99 172 q 223 99 172 99 l 868 99 q 956 136 919 99 q 992 223 992 172 l 992 389 q 1006 412 992 404 q 1048 440 1028 422 q 1075 446 1060 453 q 1091 424 1091 439 m 1275 808 l 977 511 q 942 496 963 496 q 923 500 933 496 q 893 546 893 513 l 893 694 l 769 694 q 429 593 519 694 q 372 226 337 487 q 357 200 374 208 q 347 198 350 198 q 327 208 335 198 q 311 233 319 219 q 280 286 302 246 q 242 363 258 326 q 212 451 226 400 q 198 546 198 502 q 201 616 198 584 q 212 686 204 649 q 234 754 220 723 q 270 817 247 785 q 323 875 293 849 q 396 922 353 900 q 493 960 439 945 q 617 984 546 975 q 769 992 687 992 l 893 992 l 893 1141 q 923 1187 893 1173 q 942 1190 933 1190 q 977 1176 963 1190 l 1275 878 q 1290 843 1290 863 q 1275 808 1290 823 z "},"":{"ha":1290,"x_min":0,"x_max":1289,"o":"m 1091 470 l 1091 223 q 1026 65 1091 131 q 868 0 960 0 l 223 0 q 65 65 131 0 q 0 223 0 131 l 0 868 q 65 1026 0 960 q 223 1091 131 1091 l 868 1091 q 959 1072 917 1091 q 973 1054 970 1066 q 966 1032 975 1041 l 928 994 q 910 986 920 986 q 903 987 908 986 q 868 992 885 992 l 223 992 q 136 956 172 992 q 99 868 99 919 l 99 223 q 136 136 99 172 q 223 99 172 99 l 868 99 q 956 136 919 99 q 992 223 992 172 l 992 420 q 999 437 992 430 l 1049 487 q 1066 494 1056 494 q 1076 492 1071 494 q 1091 470 1091 486 m 1270 849 l 639 218 q 595 199 621 199 q 551 218 570 199 l 218 551 q 199 595 199 570 q 218 639 199 621 l 303 725 q 347 743 322 743 q 391 725 373 743 l 595 521 l 1097 1022 q 1141 1041 1115 1041 q 1185 1022 1166 1041 l 1270 937 q 1289 893 1289 918 q 1270 849 1289 867 z "},"":{"ha":1389,"x_min":0,"x_max":1389,"o":"m 1374 531 q 1389 496 1389 516 q 1374 461 1389 476 l 1176 263 q 1141 248 1161 248 q 1106 263 1121 248 q 1091 298 1091 277 l 1091 397 l 794 397 l 794 99 l 893 99 q 928 84 913 99 q 942 50 942 70 q 928 15 942 29 l 729 -184 q 694 -198 715 -198 q 660 -184 674 -198 l 461 15 q 446 50 446 29 q 461 84 446 70 q 496 99 476 99 l 595 99 l 595 397 l 298 397 l 298 298 q 283 263 298 277 q 248 248 268 248 q 213 263 228 248 l 15 461 q 0 496 0 476 q 15 531 0 516 l 213 729 q 248 744 228 744 q 283 729 268 744 q 298 694 298 715 l 298 595 l 595 595 l 595 893 l 496 893 q 461 908 476 893 q 446 942 446 922 q 461 977 446 963 l 660 1176 q 694 1190 674 1190 q 729 1176 715 1190 l 928 977 q 942 942 942 963 q 928 908 942 922 q 893 893 913 893 l 794 893 l 794 595 l 1091 595 l 1091 694 q 1106 729 1091 715 q 1141 744 1121 744 q 1176 729 1161 744 l 1374 531 z "},"":{"ha":794,"x_min":0,"x_max":794,"o":"m 759 1081 q 784 1091 773 1096 q 794 1066 794 1087 l 794 -74 q 784 -99 794 -95 q 759 -89 773 -104 l 208 461 q 198 476 202 468 l 198 -50 q 184 -84 198 -70 q 149 -99 169 -99 l 50 -99 q 15 -84 29 -99 q 0 -50 0 -70 l 0 1042 q 15 1077 0 1062 q 50 1091 29 1091 l 149 1091 q 184 1077 169 1091 q 198 1042 198 1062 l 198 516 q 208 531 202 525 l 759 1081 z "},"":{"ha":1389,"x_min":0,"x_max":1389,"o":"m 1354 1081 q 1379 1091 1369 1096 q 1389 1066 1389 1087 l 1389 -74 q 1379 -99 1389 -95 q 1354 -89 1369 -104 l 804 461 q 794 476 797 468 l 794 -74 q 784 -99 794 -95 q 759 -89 773 -104 l 208 461 q 198 476 202 468 l 198 -50 q 184 -84 198 -70 q 149 -99 169 -99 l 50 -99 q 15 -84 29 -99 q 0 -50 0 -70 l 0 1042 q 15 1077 0 1062 q 50 1091 29 1091 l 149 1091 q 184 1077 169 1091 q 198 1042 198 1062 l 198 516 q 208 531 202 525 l 759 1081 q 784 1091 773 1096 q 794 1066 794 1087 l 794 516 q 804 531 797 525 l 1354 1081 z "},"":{"ha":1290,"x_min":95,"x_max":1290,"o":"m 1255 1081 q 1280 1091 1270 1096 q 1290 1066 1290 1087 l 1290 -74 q 1280 -99 1290 -95 q 1255 -89 1270 -104 l 705 461 q 694 476 698 468 l 694 -74 q 684 -99 694 -95 q 660 -89 674 -104 l 109 461 q 95 496 95 476 q 109 531 95 516 l 660 1081 q 684 1091 674 1096 q 694 1066 694 1087 l 694 516 q 705 531 698 525 l 1255 1081 z "},"":{"ha":1091,"x_min":0,"x_max":1090,"o":"m 1073 472 l 43 -100 q 13 -102 26 -110 q 0 -74 0 -95 l 0 1066 q 13 1094 0 1087 q 43 1092 26 1102 l 1073 520 q 1090 496 1090 510 q 1073 472 1090 482 z "},"":{"ha":1190,"x_min":0,"x_max":1190,"o":"m 1190 1042 l 1190 -50 q 1176 -84 1190 -70 q 1141 -99 1161 -99 l 744 -99 q 709 -84 724 -99 q 694 -50 694 -70 l 694 1042 q 709 1077 694 1062 q 744 1091 724 1091 l 1141 1091 q 1176 1077 1161 1091 q 1190 1042 1190 1062 m 496 1042 l 496 -50 q 481 -84 496 -70 q 446 -99 467 -99 l 50 -99 q 15 -84 29 -99 q 0 -50 0 -70 l 0 1042 q 15 1077 0 1062 q 50 1091 29 1091 l 446 1091 q 481 1077 467 1091 q 496 1042 496 1062 z "},"":{"ha":1190,"x_min":0,"x_max":1190,"o":"m 1190 1042 l 1190 -50 q 1176 -84 1190 -70 q 1141 -99 1161 -99 l 50 -99 q 15 -84 29 -99 q 0 -50 0 -70 l 0 1042 q 15 1077 0 1062 q 50 1091 29 1091 l 1141 1091 q 1176 1077 1161 1091 q 1190 1042 1190 1062 z "},"":{"ha":1290,"x_min":0,"x_max":1195,"o":"m 35 -89 q 10 -99 20 -104 q 0 -74 0 -95 l 0 1066 q 10 1091 0 1087 q 35 1081 20 1096 l 585 531 q 595 516 591 525 l 595 1066 q 605 1091 595 1087 q 630 1081 615 1096 l 1180 531 q 1195 496 1195 516 q 1180 461 1195 476 l 630 -89 q 605 -99 615 -104 q 595 -74 595 -95 l 595 476 q 585 461 591 468 l 35 -89 z "},"":{"ha":1389,"x_min":0,"x_max":1389,"o":"m 35 -89 q 10 -99 20 -104 q 0 -74 0 -95 l 0 1066 q 10 1091 0 1087 q 35 1081 20 1096 l 585 531 q 595 516 591 525 l 595 1066 q 605 1091 595 1087 q 630 1081 615 1096 l 1180 531 q 1190 516 1187 525 l 1190 1042 q 1205 1077 1190 1062 q 1240 1091 1220 1091 l 1339 1091 q 1374 1077 1359 1091 q 1389 1042 1389 1062 l 1389 -50 q 1374 -84 1389 -70 q 1339 -99 1359 -99 l 1240 -99 q 1205 -84 1220 -99 q 1190 -50 1190 -70 l 1190 476 q 1180 461 1187 468 l 630 -89 q 605 -99 615 -104 q 595 -74 595 -95 l 595 476 q 585 461 591 468 l 35 -89 z "},"":{"ha":794,"x_min":0,"x_max":794,"o":"m 35 -89 q 10 -99 20 -104 q 0 -74 0 -95 l 0 1066 q 10 1091 0 1087 q 35 1081 20 1096 l 585 531 q 595 516 591 525 l 595 1042 q 610 1077 595 1062 q 645 1091 625 1091 l 744 1091 q 779 1077 764 1091 q 794 1042 794 1062 l 794 -50 q 779 -84 794 -70 q 744 -99 764 -99 l 645 -99 q 610 -84 625 -99 q 595 -50 595 -70 l 595 476 q 585 461 591 468 l 35 -89 z "},"":{"ha":1192,"x_min":1,"x_max":1191,"o":"m 11 432 l 561 982 q 596 997 576 997 q 631 982 616 997 l 1181 432 q 1191 407 1196 417 q 1166 397 1187 397 l 26 397 q 1 407 5 397 q 11 432 -4 417 m 1142 0 l 50 0 q 16 15 30 0 q 1 50 1 29 l 1 248 q 16 283 1 268 q 50 298 30 298 l 1142 298 q 1177 283 1162 298 q 1191 248 1191 268 l 1191 50 q 1177 15 1191 29 q 1142 0 1162 0 z "},"":{"ha":992,"x_min":119,"x_max":922,"o":"m 908 957 l 496 546 l 908 134 q 922 99 922 119 q 908 64 922 79 l 779 -64 q 744 -79 764 -79 q 709 -64 724 -79 l 134 511 q 119 546 119 525 q 134 581 119 566 l 709 1156 q 744 1170 724 1170 q 779 1156 764 1170 l 908 1027 q 922 992 922 1012 q 908 957 922 972 z "},"":{"ha":992,"x_min":70,"x_max":873,"o":"m 858 511 l 283 -64 q 248 -79 268 -79 q 213 -64 228 -79 l 84 64 q 70 99 70 79 q 84 134 70 119 l 496 546 l 84 957 q 70 992 70 972 q 84 1027 70 1012 l 213 1156 q 248 1170 228 1170 q 283 1156 268 1170 l 858 581 q 873 546 873 566 q 858 511 873 525 z "},"":{"ha":1190,"x_min":0,"x_max":1190,"o":"m 942 446 l 942 546 q 928 581 942 566 q 893 595 913 595 l 694 595 l 694 794 q 680 829 694 814 q 645 843 665 843 l 546 843 q 511 829 525 843 q 496 794 496 814 l 496 595 l 298 595 q 263 581 277 595 q 248 546 248 566 l 248 446 q 263 412 248 426 q 298 397 277 397 l 496 397 l 496 198 q 511 164 496 178 q 546 149 525 149 l 645 149 q 680 164 665 149 q 694 198 694 178 l 694 397 l 893 397 q 928 412 913 397 q 942 446 942 426 m 1111 795 q 1151 726 1111 795 q 1190 496 1190 658 q 1111 197 1190 334 q 894 -19 1031 60 q 595 -99 757 -99 q 296 -19 433 -99 q 80 197 160 60 q 0 496 0 334 q 80 795 0 658 q 296 1011 160 932 q 595 1091 433 1091 q 894 1011 757 1091 q 1111 795 1031 932 z "},"":{"ha":1190,"x_min":0,"x_max":1190,"o":"m 942 446 l 942 546 q 928 581 942 566 q 893 595 913 595 l 298 595 q 263 581 277 595 q 248 546 248 566 l 248 446 q 263 412 248 426 q 298 397 277 397 l 893 397 q 928 412 913 397 q 942 446 942 426 m 1111 795 q 1151 726 1111 795 q 1190 496 1190 658 q 1111 197 1190 334 q 894 -19 1031 60 q 595 -99 757 -99 q 296 -19 433 -99 q 80 197 160 60 q 0 496 0 334 q 80 795 0 658 q 296 1011 160 932 q 595 1091 433 1091 q 894 1011 757 1091 q 1111 795 1031 932 z "},"":{"ha":1190,"x_min":0,"x_max":1190,"o":"m 891 321 q 876 356 891 341 l 736 496 l 876 636 q 891 671 891 651 q 876 707 891 692 l 806 777 q 770 791 791 791 q 736 777 750 791 l 595 636 l 455 777 q 420 791 440 791 q 384 777 399 791 l 315 707 q 300 671 300 692 q 315 636 300 651 l 455 496 l 315 356 q 300 321 300 341 q 315 285 300 300 l 384 215 q 420 201 399 201 q 455 215 440 201 l 595 356 l 736 215 q 770 201 750 201 q 806 215 791 201 l 876 285 q 891 321 891 300 m 1111 795 q 1151 726 1111 795 q 1190 496 1190 658 q 1111 197 1190 334 q 894 -19 1031 60 q 595 -99 757 -99 q 296 -19 433 -99 q 80 197 160 60 q 0 496 0 334 q 80 795 0 658 q 296 1011 160 932 q 595 1091 433 1091 q 894 1011 757 1091 q 1111 795 1031 932 z "},"":{"ha":1190,"x_min":0,"x_max":1190,"o":"m 995 622 q 981 657 995 643 l 911 727 q 876 742 896 742 q 841 727 856 742 l 525 412 l 350 587 q 315 601 335 601 q 280 587 295 601 l 209 517 q 195 481 195 503 q 209 446 195 460 l 490 166 q 525 151 505 151 q 560 166 546 151 l 981 587 q 995 622 995 601 m 1111 795 q 1151 726 1111 795 q 1190 496 1190 658 q 1111 197 1190 334 q 894 -19 1031 60 q 595 -99 757 -99 q 296 -19 433 -99 q 80 197 160 60 q 0 496 0 334 q 80 795 0 658 q 296 1011 160 932 q 595 1091 433 1091 q 894 1011 757 1091 q 1111 795 1031 932 z "},"":{"ha":1190,"x_min":0,"x_max":1190,"o":"m 694 124 l 694 273 q 687 291 694 284 q 670 298 680 298 l 521 298 q 503 291 510 298 q 496 273 496 284 l 496 124 q 503 106 496 113 q 521 99 510 99 l 670 99 q 687 106 680 99 q 694 124 694 113 m 893 645 q 850 771 893 713 q 742 861 807 829 q 611 893 678 893 q 323 728 422 893 q 329 695 312 709 l 432 618 q 446 613 437 613 q 466 622 459 613 q 532 694 507 675 q 599 712 559 712 q 665 692 636 712 q 694 646 694 672 q 679 599 694 617 q 626 564 663 581 q 537 497 577 543 q 496 400 496 452 l 496 372 q 503 354 496 361 q 521 347 510 347 l 670 347 q 687 354 680 347 q 694 372 694 361 q 711 410 694 387 q 753 449 728 434 q 791 471 778 463 q 827 498 805 479 q 861 535 849 517 q 883 582 873 553 q 893 645 893 611 m 1111 795 q 1151 726 1111 795 q 1190 496 1190 658 q 1111 197 1190 334 q 894 -19 1031 60 q 595 -99 757 -99 q 296 -19 433 -99 q 80 197 160 60 q 0 496 0 334 q 80 795 0 658 q 296 1011 160 932 q 595 1091 433 1091 q 894 1011 757 1091 q 1111 795 1031 932 z "},"":{"ha":1190,"x_min":0,"x_max":1190,"o":"m 794 124 l 794 248 q 787 266 794 259 q 769 273 780 273 l 694 273 l 694 670 q 687 687 694 680 q 670 694 680 694 l 422 694 q 404 687 411 694 q 397 670 397 680 l 397 546 q 404 528 397 535 q 422 521 411 521 l 496 521 l 496 273 l 422 273 q 404 266 411 273 q 397 248 397 259 l 397 124 q 404 106 397 113 q 422 99 411 99 l 769 99 q 787 106 780 99 q 794 124 794 113 m 694 818 l 694 942 q 687 960 694 953 q 670 967 680 967 l 521 967 q 503 960 510 967 q 496 942 496 953 l 496 818 q 503 801 496 808 q 521 794 510 794 l 670 794 q 687 801 680 794 q 694 818 694 808 m 1111 795 q 1151 726 1111 795 q 1190 496 1190 658 q 1111 197 1190 334 q 894 -19 1031 60 q 595 -99 757 -99 q 296 -19 433 -99 q 80 197 160 60 q 0 496 0 334 q 80 795 0 658 q 296 1011 160 932 q 595 1091 433 1091 q 894 1011 757 1091 q 1111 795 1031 932 z "},"":{"ha":1190,"x_min":0,"x_max":1190,"o":"m 928 397 l 843 397 q 808 412 823 397 q 794 446 794 426 l 794 546 q 808 581 794 566 q 843 595 823 595 l 928 595 q 841 741 903 679 q 694 829 778 804 l 694 744 q 680 709 694 724 q 645 694 665 694 l 546 694 q 511 709 525 694 q 496 744 496 724 l 496 829 q 350 741 412 804 q 263 595 288 679 l 347 595 q 382 581 367 595 q 397 546 397 566 l 397 446 q 382 412 397 426 q 347 397 367 397 l 263 397 q 350 251 288 313 q 496 164 412 188 l 496 248 q 511 283 496 268 q 546 298 525 298 l 645 298 q 680 283 665 298 q 694 248 694 268 l 694 164 q 841 251 778 188 q 928 397 903 313 m 1190 546 l 1190 446 q 1176 412 1190 426 q 1141 397 1161 397 l 1030 397 q 910 181 1001 272 q 694 61 819 90 l 694 -50 q 680 -84 694 -70 q 645 -99 665 -99 l 546 -99 q 511 -84 525 -99 q 496 -50 496 -70 l 496 61 q 280 181 371 90 q 160 397 189 272 l 50 397 q 15 412 29 397 q 0 446 0 426 l 0 546 q 15 581 0 566 q 50 595 29 595 l 160 595 q 280 811 189 720 q 496 931 371 902 l 496 1042 q 511 1077 496 1062 q 546 1091 525 1091 l 645 1091 q 680 1077 665 1091 q 694 1042 694 1062 l 694 931 q 910 811 819 902 q 1030 595 1001 720 l 1141 595 q 1176 581 1161 595 q 1190 546 1190 566 z "},"":{"ha":1190,"x_min":0,"x_max":1190,"o":"m 850 354 l 737 241 q 719 233 729 233 q 701 241 709 233 l 595 347 l 489 241 q 471 233 481 233 q 453 241 461 233 l 340 354 q 332 372 332 362 q 340 390 332 382 l 446 496 l 340 602 q 332 620 332 610 q 340 638 332 630 l 453 751 q 471 759 461 759 q 489 751 481 759 l 595 645 l 701 751 q 719 759 709 759 q 737 751 729 759 l 850 638 q 858 620 858 630 q 850 602 858 610 l 744 496 l 850 390 q 858 372 858 382 q 850 354 858 362 m 960 284 q 989 333 960 284 q 1017 496 1017 381 q 960 708 1017 611 q 807 861 904 805 q 595 918 710 918 q 384 861 481 918 q 230 708 287 805 q 174 496 174 611 q 230 284 174 381 q 384 131 287 188 q 595 74 481 74 q 807 131 710 74 q 960 284 904 188 m 1111 795 q 1151 726 1111 795 q 1190 496 1190 658 q 1111 197 1190 334 q 894 -19 1031 60 q 595 -99 757 -99 q 296 -19 433 -99 q 80 197 160 60 q 0 496 0 334 q 80 795 0 658 q 296 1011 160 932 q 595 1091 433 1091 q 894 1011 757 1091 q 1111 795 1031 932 z "},"":{"ha":1190,"x_min":0,"x_max":1190,"o":"m 908 560 l 581 233 q 546 219 566 219 q 511 233 525 219 l 283 461 q 268 496 268 476 q 283 531 268 516 l 362 610 q 397 625 377 625 q 432 610 417 625 l 546 496 l 759 709 q 794 724 773 724 q 829 709 814 724 l 908 630 q 922 595 922 615 q 908 560 922 575 m 960 284 q 989 333 960 284 q 1017 496 1017 381 q 960 708 1017 611 q 807 861 904 805 q 595 918 710 918 q 384 861 481 918 q 230 708 287 805 q 174 496 174 611 q 230 284 174 381 q 384 131 287 188 q 595 74 481 74 q 807 131 710 74 q 960 284 904 188 m 1111 795 q 1151 726 1111 795 q 1190 496 1190 658 q 1111 197 1190 334 q 894 -19 1031 60 q 595 -99 757 -99 q 296 -19 433 -99 q 80 197 160 60 q 0 496 0 334 q 80 795 0 658 q 296 1011 160 932 q 595 1091 433 1091 q 894 1011 757 1091 q 1111 795 1031 932 z "},"":{"ha":1190,"x_min":0,"x_max":1190,"o":"m 1017 498 q 949 727 1017 623 l 365 143 q 595 74 471 74 q 759 108 681 74 q 894 198 837 142 q 984 334 950 255 q 1017 498 1017 412 m 243 267 l 828 851 q 595 922 723 922 q 384 865 481 922 q 230 711 287 808 q 174 498 174 613 q 243 267 174 373 m 1143 730 q 1167 675 1143 730 q 1190 498 1190 620 q 1143 266 1190 377 q 1016 75 1096 155 q 827 -52 937 -5 q 595 -99 716 -99 q 364 -52 474 -99 q 174 75 253 -5 q 47 266 95 155 q 0 498 0 377 q 47 730 0 620 q 174 921 95 841 q 364 1048 253 1001 q 595 1095 474 1095 q 827 1048 716 1095 q 1016 921 937 1001 q 1143 730 1096 841 z "},"":{"ha":1190,"x_min":50,"x_max":1190,"o":"m 1190 496 l 1190 397 q 1165 327 1190 356 q 1100 298 1140 298 l 554 298 l 781 70 q 811 0 811 42 q 781 -70 811 -42 l 723 -129 q 653 -157 694 -157 q 583 -129 613 -157 l 78 377 q 50 446 50 405 q 78 517 50 487 l 583 1021 q 653 1050 612 1050 q 723 1021 694 1050 l 781 963 q 811 893 811 934 q 781 822 811 852 l 554 595 l 1100 595 q 1165 566 1140 595 q 1190 496 1190 537 z "},"":{"ha":1190,"x_min":0,"x_max":1141,"o":"m 1141 446 q 1112 376 1141 405 l 608 -129 q 537 -157 577 -157 q 467 -129 498 -157 l 409 -71 q 380 0 380 -41 q 409 71 380 41 l 636 298 l 91 298 q 25 327 50 298 q 0 397 0 356 l 0 496 q 25 566 0 537 q 91 595 50 595 l 636 595 l 409 823 q 380 893 380 851 q 409 963 380 935 l 467 1021 q 537 1050 497 1050 q 608 1021 578 1050 l 1112 516 q 1141 446 1141 489 z "},"":{"ha":1290,"x_min":41,"x_max":1249,"o":"m 1249 438 q 1220 368 1249 398 l 1162 310 q 1091 281 1132 281 q 1022 310 1049 281 l 794 537 l 794 -9 q 765 -74 794 -49 q 694 -99 736 -99 l 595 -99 q 525 -74 554 -99 q 496 -9 496 -49 l 496 537 l 268 310 q 198 281 240 281 q 129 310 157 281 l 71 368 q 41 438 41 398 q 71 508 41 479 l 575 1013 q 645 1042 602 1042 q 715 1013 687 1042 l 1220 508 q 1249 438 1249 478 z "},"":{"ha":1290,"x_min":41,"x_max":1249,"o":"m 1249 546 q 1220 476 1249 505 l 715 -29 q 645 -58 685 -58 q 575 -29 604 -58 l 71 476 q 41 546 41 504 q 71 616 41 587 l 128 674 q 198 703 158 703 q 268 674 239 703 l 496 446 l 496 992 q 525 1062 496 1032 q 595 1091 555 1091 l 694 1091 q 764 1062 735 1091 q 794 992 794 1032 l 794 446 l 1022 674 q 1091 703 1050 703 q 1162 674 1132 703 l 1220 616 q 1249 546 1249 586 z "},"":{"ha":1389,"x_min":0,"x_max":1389,"o":"m 1374 729 q 1389 694 1389 715 q 1374 660 1389 674 l 977 263 q 942 248 963 248 q 908 263 922 248 q 893 298 893 277 l 893 496 l 719 496 q 583 491 643 496 q 464 475 523 487 q 361 442 405 463 q 279 388 317 421 q 217 310 241 355 q 179 202 193 264 q 166 62 166 140 q 170 -33 166 19 q 172 -52 170 -38 q 174 -72 174 -65 q 167 -91 174 -84 q 149 -99 160 -99 q 127 -86 136 -99 q 117 -69 122 -79 q 107 -46 112 -59 q 98 -27 101 -33 q 0 322 0 194 q 41 581 0 477 q 719 893 167 893 l 893 893 l 893 1091 q 908 1126 893 1111 q 942 1141 922 1141 q 977 1126 963 1141 l 1374 729 z "},"":{"ha":1190,"x_min":0,"x_max":1190,"o":"m 577 390 q 585 372 585 382 q 577 354 585 362 l 320 97 l 432 -15 q 446 -50 446 -29 q 432 -84 446 -70 q 397 -99 417 -99 l 50 -99 q 15 -84 29 -99 q 0 -50 0 -70 l 0 298 q 15 332 0 318 q 50 347 29 347 q 84 332 70 347 l 196 221 l 453 478 q 471 486 461 486 q 489 478 481 486 l 577 390 m 1190 1042 l 1190 694 q 1176 660 1190 674 q 1141 645 1161 645 q 1106 660 1121 645 l 994 771 l 737 514 q 719 506 729 506 q 701 514 709 506 l 613 602 q 605 620 605 610 q 613 638 605 630 l 870 895 l 759 1007 q 744 1042 744 1022 q 759 1077 744 1062 q 794 1091 773 1091 l 1141 1091 q 1176 1077 1161 1091 q 1190 1042 1190 1062 z "},"":{"ha":1190,"x_min":10,"x_max":1180,"o":"m 595 446 l 595 99 q 581 64 595 79 q 546 50 566 50 q 511 64 525 50 l 399 176 l 142 -81 q 124 -89 134 -89 q 106 -81 114 -89 l 18 7 q 10 25 10 15 q 18 43 10 35 l 275 300 l 164 412 q 149 446 149 426 q 164 481 149 467 q 198 496 178 496 l 546 496 q 581 481 566 496 q 595 446 595 467 m 1173 985 q 1180 967 1180 977 q 1173 949 1180 957 l 915 692 l 1027 581 q 1042 546 1042 566 q 1027 511 1042 525 q 992 496 1012 496 l 645 496 q 610 511 625 496 q 595 546 595 525 l 595 893 q 610 928 595 913 q 645 942 625 942 q 680 928 665 942 l 791 816 l 1049 1073 q 1066 1081 1056 1081 q 1084 1073 1077 1081 l 1173 985 z "},"":{"ha":1091,"x_min":0,"x_max":1091,"o":"m 1091 620 l 1091 471 q 1070 419 1091 440 q 1017 397 1048 397 l 694 397 l 694 74 q 673 22 694 43 q 620 0 651 0 l 471 0 q 419 22 440 0 q 397 74 397 43 l 397 397 l 74 397 q 22 419 43 397 q 0 471 0 440 l 0 620 q 22 673 0 651 q 74 694 43 694 l 397 694 l 397 1017 q 419 1070 397 1048 q 471 1091 440 1091 l 620 1091 q 673 1070 651 1091 q 694 1017 694 1048 l 694 694 l 1017 694 q 1070 673 1048 694 q 1091 620 1091 651 z "},"":{"ha":1091,"x_min":0,"x_max":1091,"o":"m 1091 620 l 1091 471 q 1070 419 1091 440 q 1017 397 1048 397 l 74 397 q 22 419 43 397 q 0 471 0 440 l 0 620 q 22 673 0 651 q 74 694 43 694 l 1017 694 q 1070 673 1048 694 q 1091 620 1091 651 z "},"":{"ha":1290,"x_min":95,"x_max":1195,"o":"m 1149 377 q 1195 317 1184 357 q 1185 241 1205 277 l 1135 156 q 1075 110 1115 120 q 1000 119 1035 99 l 794 238 l 794 0 q 764 -70 794 -40 q 694 -99 735 -99 l 595 -99 q 525 -70 555 -99 q 496 0 496 -40 l 496 238 l 290 119 q 214 110 254 99 q 154 156 174 120 l 105 241 q 95 317 84 277 q 141 377 105 357 l 347 496 l 141 615 q 95 675 105 636 q 105 751 84 715 l 154 836 q 214 882 174 872 q 290 873 254 893 l 496 754 l 496 992 q 525 1062 496 1032 q 595 1091 555 1091 l 694 1091 q 764 1062 735 1091 q 794 992 794 1032 l 794 754 l 1000 873 q 1075 882 1035 893 q 1135 836 1115 872 l 1185 751 q 1195 675 1205 715 q 1149 615 1184 636 l 942 496 l 1149 377 z "},"":{"ha":1190,"x_min":0,"x_max":1190,"o":"m 296 1011 q 365 1051 296 1011 q 595 1091 433 1091 q 894 1011 757 1091 q 1111 795 1031 932 q 1190 496 1190 658 q 1111 197 1190 334 q 894 -19 1031 60 q 595 -99 757 -99 q 296 -19 433 -99 q 80 197 160 60 q 0 496 0 334 q 80 795 0 658 q 296 1011 160 932 m 694 125 l 694 272 q 687 290 694 283 q 670 298 680 298 l 522 298 q 504 290 512 298 q 496 272 496 282 l 496 125 q 504 107 496 115 q 522 99 512 99 l 670 99 q 687 107 680 99 q 694 125 694 114 m 693 391 l 707 873 q 699 887 707 882 q 680 893 691 893 l 510 893 q 491 887 499 893 q 484 873 484 882 l 497 391 q 505 378 497 384 q 523 372 512 372 l 667 372 q 685 378 677 372 q 693 391 692 384 z "},"":{"ha":1190,"x_min":0,"x_max":1190,"o":"m 719 140 l 719 183 l 719 546 l 719 694 l 471 694 l 471 546 l 471 183 l 471 140 q 485 110 471 120 q 521 99 499 99 l 670 99 q 705 110 691 99 q 719 140 719 120 m 366 794 l 517 794 l 419 918 q 366 942 399 942 q 313 921 335 942 q 291 868 291 899 q 313 815 291 837 q 366 794 335 794 m 877 815 q 888 826 877 815 q 899 868 899 837 q 877 921 899 899 q 825 942 856 942 q 771 918 791 942 l 674 794 l 825 794 q 877 815 856 794 m 1190 670 l 1190 422 q 1184 404 1190 411 q 1166 397 1177 397 l 1091 397 l 1091 74 q 1070 22 1091 43 q 1017 0 1048 0 l 174 0 q 121 22 143 0 q 99 74 99 43 l 99 397 l 25 397 q 7 404 14 397 q 0 422 0 411 l 0 670 q 7 687 0 680 q 25 694 14 694 l 366 694 q 243 745 294 694 q 192 868 192 796 q 243 991 192 940 q 366 1042 294 1042 q 496 982 449 1042 l 595 854 l 694 982 q 825 1042 742 1042 q 947 991 897 1042 q 998 868 998 940 q 947 745 998 796 q 825 694 897 694 l 1166 694 q 1184 687 1177 694 q 1190 670 1190 680 z "},"":{"ha":1389,"x_min":0,"x_max":1389,"o":"m 977 610 q 985 617 977 610 q 992 645 992 625 q 977 680 992 665 q 942 694 963 694 q 696 656 809 694 q 495 552 583 618 q 312 382 407 487 q 298 347 298 366 q 312 312 298 327 q 347 298 327 298 q 382 312 366 298 q 439 367 403 331 q 491 419 476 404 q 699 555 598 515 q 942 595 801 595 q 977 610 963 595 m 1389 798 q 1373 649 1389 725 q 1230 352 1338 475 q 953 144 1123 229 q 614 60 787 60 q 392 97 499 60 q 324 129 381 101 q 250 158 267 158 q 219 133 237 158 q 184 79 201 109 q 143 25 167 50 q 97 0 119 0 q 57 9 74 0 q 33 27 41 17 q 12 60 26 37 q 8 68 11 63 q 3 76 5 74 q 1 83 2 78 q 0 94 0 88 q 24 151 0 121 q 77 202 48 181 q 129 245 105 222 q 153 282 153 267 q 143 312 153 285 q 130 346 132 338 q 123 426 123 385 q 157 597 123 515 q 249 740 191 678 q 381 848 308 801 q 539 922 455 894 q 652 941 582 935 q 791 948 722 947 q 929 953 860 949 q 1056 972 998 956 q 1144 1015 1114 987 q 1167 1038 1152 1023 q 1190 1060 1182 1053 q 1211 1075 1197 1066 q 1239 1088 1224 1084 q 1273 1091 1254 1091 q 1327 1056 1303 1091 q 1364 969 1352 1020 q 1383 873 1376 918 q 1389 798 1389 828 z "},"":{"ha":1091,"x_min":0,"x_max":1091,"o":"m 1091 -124 l 1091 -174 q 1084 -191 1091 -184 q 1066 -198 1077 -198 l 25 -198 q 7 -191 15 -198 q 0 -174 0 -184 l 0 -124 q 7 -107 0 -114 q 25 -99 15 -99 l 1066 -99 q 1084 -107 1077 -99 q 1091 -124 1091 -114 m 893 694 q 874 583 893 634 q 824 496 855 532 q 756 427 794 460 q 682 367 719 395 q 614 312 645 339 q 565 248 584 284 q 546 174 546 213 q 598 0 546 99 l 594 1 l 595 0 q 471 64 525 32 q 364 142 417 97 q 276 237 311 187 q 220 353 241 287 q 198 496 198 420 q 217 608 198 556 q 267 695 236 659 q 335 763 298 731 q 409 823 372 795 q 477 879 446 851 q 527 942 508 907 q 546 1017 546 977 q 494 1190 546 1090 l 497 1190 l 496 1190 q 620 1126 566 1159 q 727 1049 674 1094 q 815 954 780 1004 q 872 837 850 904 q 893 694 893 770 z "},"":{"ha":1389,"x_min":0,"x_max":1389,"o":"m 1290 446 q 994 720 1172 629 q 1042 546 1042 639 q 940 300 1042 402 q 694 198 838 198 q 449 300 551 198 q 347 546 347 402 q 395 720 347 639 q 99 446 217 629 q 358 193 202 288 q 694 99 513 99 q 1031 193 876 99 q 1290 446 1187 288 m 721 718 q 726 723 721 718 q 732 744 732 729 q 721 770 732 760 q 694 781 710 781 q 528 712 598 781 q 459 546 459 643 q 470 519 459 530 q 496 508 481 508 q 522 519 512 508 q 533 546 533 530 q 581 660 533 612 q 694 707 628 707 q 721 718 710 707 m 1373 500 q 1389 446 1389 473 q 1373 393 1389 420 q 1082 107 1265 215 q 694 0 898 0 q 307 108 491 0 q 16 393 124 215 q 0 446 0 420 q 16 500 0 473 q 307 785 124 677 q 694 893 491 893 q 1082 785 898 893 q 1373 500 1265 677 z "},"":{"ha":1389,"x_min":0,"x_max":1389,"o":"m 430 156 l 491 265 q 385 388 423 314 q 347 546 347 463 q 395 720 347 639 q 99 446 217 629 q 430 156 229 246 m 721 718 q 726 723 721 718 q 732 744 732 729 q 721 770 732 760 q 694 781 710 781 q 528 712 598 781 q 459 546 459 643 q 470 519 459 530 q 496 508 481 508 q 522 519 512 508 q 533 546 533 530 q 581 660 533 612 q 694 707 628 707 q 721 718 710 707 m 1013 892 q 1012 885 1013 887 q 768 446 931 739 q 523 7 605 153 l 485 -62 q 463 -74 477 -74 q 360 -20 454 -74 q 347 2 347 -12 q 381 69 347 11 q 177 203 270 119 q 16 393 84 287 q 0 446 0 417 q 16 500 0 476 q 310 787 134 682 q 694 893 486 893 q 834 880 763 893 l 876 955 q 898 967 884 967 q 911 963 901 967 q 935 951 922 958 q 961 936 949 943 q 985 922 973 929 q 1001 913 998 915 q 1013 892 1013 905 m 1042 546 q 980 349 1042 438 q 818 222 919 260 l 1035 611 q 1042 546 1042 576 m 1373 500 q 1389 446 1389 474 q 1373 393 1389 419 q 1289 281 1343 343 q 1020 74 1173 147 q 694 0 867 0 l 752 102 q 1056 208 916 116 q 1290 446 1196 301 q 1071 674 1201 585 l 1120 761 q 1261 643 1194 711 q 1373 500 1329 574 z "},"":{"ha":1389,"x_min":12,"x_max":1376,"o":"m 794 125 l 794 272 q 786 290 794 283 q 769 298 779 298 l 620 298 q 603 290 610 298 q 595 272 595 283 l 595 125 q 603 107 595 114 q 620 99 610 99 l 769 99 q 786 107 779 99 q 794 125 794 114 m 792 415 l 806 770 q 798 785 806 780 q 780 794 788 794 l 609 794 q 591 785 601 794 q 583 769 583 780 l 596 415 q 604 402 596 407 q 622 397 612 397 l 766 397 q 784 402 777 397 q 792 415 791 407 m 781 1139 l 1376 47 q 1375 -50 1404 -2 q 1339 -86 1362 -73 q 1290 -99 1316 -99 l 99 -99 q 50 -86 73 -99 q 14 -50 27 -73 q 12 47 -15 -2 l 608 1139 q 644 1177 621 1163 q 694 1190 667 1190 q 745 1177 722 1190 q 781 1139 768 1163 z "},"":{"ha":1091,"x_min":0,"x_max":1076,"o":"m 1066 1066 q 1076 952 1101 1026 q 992 818 1051 877 l 867 694 l 991 154 q 982 129 995 140 l 883 54 q 868 50 877 50 q 863 50 865 50 q 846 63 851 53 l 630 457 l 429 256 l 470 105 q 464 81 474 92 l 390 7 q 372 0 383 0 l 370 0 q 352 10 359 2 l 205 205 l 10 352 q 0 370 2 357 q 7 389 -1 380 l 81 464 q 99 471 88 471 q 105 470 104 471 l 256 429 l 457 630 l 63 846 q 50 865 52 853 q 57 886 48 877 l 156 985 q 179 991 167 995 l 694 868 l 818 992 q 952 1076 877 1051 q 1066 1066 1026 1101 z "},"":{"ha":1290,"x_min":0,"x_max":1290,"o":"m 99 -99 l 322 -99 l 322 124 l 99 124 l 99 -99 m 372 -99 l 620 -99 l 620 124 l 372 124 l 372 -99 m 99 174 l 322 174 l 322 422 l 99 422 l 99 174 m 372 174 l 620 174 l 620 422 l 372 422 l 372 174 m 99 471 l 322 471 l 322 694 l 99 694 l 99 471 m 670 -99 l 918 -99 l 918 124 l 670 124 l 670 -99 m 372 471 l 620 471 l 620 694 l 372 694 l 372 471 m 967 -99 l 1190 -99 l 1190 124 l 967 124 l 967 -99 m 670 174 l 918 174 l 918 422 l 670 422 l 670 174 m 397 843 l 397 1066 q 389 1084 397 1077 q 372 1091 382 1091 l 322 1091 q 305 1084 312 1091 q 298 1066 298 1077 l 298 843 q 305 826 298 833 q 322 818 312 818 l 372 818 q 389 826 382 818 q 397 843 397 833 m 967 174 l 1190 174 l 1190 422 l 967 422 l 967 174 m 670 471 l 918 471 l 918 694 l 670 694 l 670 471 m 967 471 l 1190 471 l 1190 694 l 967 694 l 967 471 m 992 843 l 992 1066 q 985 1084 992 1077 q 967 1091 977 1091 l 918 1091 q 900 1084 908 1091 q 893 1066 893 1077 l 893 843 q 900 826 893 833 q 918 818 908 818 l 967 818 q 985 826 977 818 q 992 843 992 833 m 1290 893 l 1290 -99 q 1260 -169 1290 -140 q 1190 -198 1231 -198 l 99 -198 q 29 -169 59 -198 q 0 -99 0 -140 l 0 893 q 29 963 0 933 q 99 992 59 992 l 198 992 l 198 1066 q 235 1154 198 1118 q 322 1190 271 1190 l 372 1190 q 460 1154 423 1190 q 496 1066 496 1118 l 496 992 l 794 992 l 794 1066 q 830 1154 794 1118 q 918 1190 867 1190 l 967 1190 q 1055 1154 1018 1190 q 1091 1066 1091 1118 l 1091 992 l 1190 992 q 1260 963 1231 992 q 1290 893 1290 933 z "},"":{"ha":1389,"x_min":0,"x_max":1389,"o":"m 516 818 q 410 606 470 746 q 381 662 393 641 q 350 711 370 684 q 310 755 330 739 q 262 782 291 771 q 198 794 233 794 l 25 794 q 7 801 14 794 q 0 818 0 808 l 0 967 q 7 985 0 978 q 25 992 14 992 l 198 992 q 516 818 392 992 m 1382 216 q 1389 198 1389 209 q 1382 181 1389 188 l 1134 -67 q 1116 -74 1127 -74 q 1099 -67 1106 -74 q 1091 -50 1091 -60 l 1091 99 q 1025 99 1066 99 q 963 98 984 98 q 906 99 941 98 q 851 103 871 100 q 801 111 831 105 q 753 125 772 116 q 708 147 733 134 q 662 178 682 160 q 619 220 642 196 q 576 274 597 243 q 681 485 622 346 q 710 429 698 450 q 741 380 722 408 q 781 336 761 352 q 830 309 801 320 q 893 298 859 298 l 1091 298 l 1091 446 q 1098 464 1091 457 q 1116 471 1105 471 q 1135 463 1125 471 l 1382 216 m 1382 911 q 1389 893 1389 904 q 1382 875 1389 882 l 1134 627 q 1116 620 1127 620 q 1099 627 1106 620 q 1091 645 1091 635 l 1091 794 l 893 794 q 825 782 856 794 q 772 747 795 770 q 732 699 749 724 q 698 639 716 675 q 637 507 673 591 q 599 421 615 456 q 557 339 583 386 q 507 262 531 293 q 450 198 484 231 q 380 145 416 164 q 298 112 344 125 q 198 99 251 99 l 25 99 q 7 106 14 99 q 0 124 0 113 l 0 273 q 7 291 0 284 q 25 298 14 298 l 198 298 q 266 309 236 298 q 319 344 296 321 q 359 392 343 367 q 394 452 375 416 q 454 584 419 500 q 493 670 477 636 q 534 752 508 705 q 584 829 560 798 q 641 894 608 860 q 711 947 675 927 q 794 979 747 966 q 893 992 840 992 l 1091 992 l 1091 1141 q 1098 1159 1091 1152 q 1116 1166 1105 1166 q 1135 1158 1125 1166 l 1382 911 z "},"":{"ha":1389,"x_min":0,"x_max":1389,"o":"m 1296 745 q 1342 688 1296 745 q 1389 496 1389 631 q 1296 247 1389 361 q 1043 66 1203 133 q 694 0 884 0 q 582 6 640 0 q 226 -181 429 -129 q 137 -198 188 -192 q 114 -191 124 -200 q 100 -169 103 -183 l 100 -168 q 100 -159 98 -165 q 101 -151 102 -153 q 105 -144 101 -150 q 109 -137 109 -138 q 115 -130 110 -136 q 121 -123 119 -125 q 145 -96 126 -117 q 172 -67 164 -76 q 196 -36 180 -58 q 221 3 212 -15 q 242 49 230 21 q 262 108 253 77 q 70 278 140 177 q 0 496 0 380 q 55 689 0 597 q 203 847 110 780 q 425 953 296 914 q 694 992 553 992 q 1043 926 884 992 q 1296 745 1203 860 z "},"":{"ha":1190,"x_min":0,"x_max":1190,"o":"m 1190 546 l 1190 446 q 1114 166 1190 291 q 902 -29 1038 41 q 595 -99 766 -99 q 289 -29 425 -99 q 76 166 153 41 q 0 446 0 291 l 0 546 q 15 581 0 566 q 50 595 29 595 l 347 595 q 382 581 367 595 q 397 546 397 566 l 397 446 q 415 377 397 406 q 457 332 433 347 q 512 309 480 318 q 561 299 543 301 q 595 298 579 298 q 629 299 612 298 q 679 309 647 301 q 734 332 711 318 q 775 377 757 347 q 794 446 794 406 l 794 546 q 808 581 794 566 q 843 595 823 595 l 1141 595 q 1176 581 1161 595 q 1190 546 1190 566 m 397 1042 l 397 744 q 382 709 397 724 q 347 694 367 694 l 50 694 q 15 709 29 694 q 0 744 0 724 l 0 1042 q 15 1077 0 1062 q 50 1091 29 1091 l 347 1091 q 382 1077 367 1091 q 397 1042 397 1062 m 1190 1042 l 1190 744 q 1176 709 1190 724 q 1141 694 1161 694 l 843 694 q 808 709 823 694 q 794 744 794 724 l 794 1042 q 808 1077 794 1062 q 843 1091 823 1091 l 1141 1091 q 1176 1077 1161 1091 q 1190 1042 1190 1062 z "},"":{"ha":1389,"x_min":70,"x_max":1319,"o":"m 1304 159 l 1176 31 q 1141 16 1161 16 q 1106 31 1121 16 l 694 443 l 283 31 q 248 16 268 16 q 213 31 228 16 l 84 159 q 70 194 70 174 q 84 229 70 215 l 660 804 q 694 818 674 818 q 729 804 715 818 l 1304 229 q 1319 194 1319 215 q 1304 159 1319 174 z "},"":{"ha":1389,"x_min":70,"x_max":1319,"o":"m 1304 564 l 729 -10 q 694 -25 715 -25 q 660 -10 674 -25 l 84 564 q 70 600 70 579 q 84 635 70 620 l 213 763 q 248 777 228 777 q 283 763 268 777 l 694 351 l 1106 763 q 1141 777 1121 777 q 1176 763 1161 777 l 1304 635 q 1319 600 1319 620 q 1304 564 1319 579 z "},"":{"ha":1488,"x_min":0,"x_max":1488,"o":"m 992 25 q 985 7 992 15 q 967 0 977 0 l 223 0 q 213 2 217 0 q 206 7 208 3 q 202 13 203 11 q 199 22 200 16 q 198 31 198 29 q 198 41 198 33 q 198 50 198 49 l 198 174 l 198 496 l 50 496 q 15 511 29 496 q 0 546 0 525 q 12 577 0 564 l 260 875 q 298 892 274 892 q 336 875 321 892 l 584 577 q 595 546 595 564 q 581 511 595 525 q 546 496 566 496 l 397 496 l 397 198 l 843 198 q 863 190 856 198 l 987 41 q 992 25 992 33 m 1488 347 q 1476 315 1488 329 l 1228 18 q 1190 0 1213 0 q 1152 18 1168 0 l 904 315 q 893 347 893 329 q 908 382 893 367 q 942 397 922 397 l 1091 397 l 1091 694 l 645 694 q 625 704 632 694 l 501 853 q 496 868 496 860 q 503 885 496 878 q 521 893 511 893 l 1265 893 q 1275 891 1271 893 q 1282 886 1280 890 q 1287 880 1285 882 q 1289 871 1288 877 q 1290 862 1290 864 q 1290 852 1290 860 q 1290 843 1290 844 l 1290 719 l 1290 397 l 1438 397 q 1473 382 1459 397 q 1488 347 1488 367 z "},"":{"ha":1290,"x_min":0,"x_max":1290,"o":"m 467 70 q 481 55 467 70 q 496 0 496 40 q 467 -70 496 -40 q 397 -99 437 -99 q 327 -70 357 -99 q 298 0 298 -40 q 327 70 298 40 q 397 99 357 99 q 467 70 437 99 m 1161 70 q 1176 55 1161 70 q 1190 0 1190 40 q 1161 -70 1190 -40 q 1091 -99 1132 -99 q 1022 -70 1051 -99 q 992 0 992 -40 q 1022 70 992 40 q 1091 99 1051 99 q 1161 70 1132 99 m 1290 843 l 1290 446 q 1277 413 1290 428 q 1246 397 1264 399 l 436 302 q 446 248 446 256 q 428 198 446 236 l 1141 198 q 1176 184 1161 198 q 1190 149 1190 169 q 1176 114 1190 129 q 1141 99 1161 99 l 347 99 q 312 114 327 99 q 298 149 298 129 q 304 173 298 157 q 316 201 310 189 q 333 232 322 213 q 345 255 343 251 l 208 893 l 50 893 q 15 908 29 893 q 0 942 0 922 q 15 977 0 963 q 50 992 29 992 l 248 992 q 270 987 260 992 q 285 975 280 982 q 295 956 291 968 q 301 936 300 944 q 306 913 303 928 q 309 893 308 898 l 1240 893 q 1275 878 1260 893 q 1290 843 1290 863 z "},"":{"ha":1290,"x_min":0,"x_max":1290,"o":"m 1290 719 l 1290 174 q 1239 51 1290 102 q 1116 0 1187 0 l 174 0 q 51 51 102 0 q 0 174 0 102 l 0 918 q 51 1040 0 989 q 174 1091 102 1091 l 422 1091 q 544 1040 493 1091 q 595 918 595 989 l 595 893 l 1116 893 q 1239 842 1187 893 q 1290 719 1290 791 z "},"":{"ha":1488,"x_min":0,"x_max":1456,"o":"m 1456 453 q 1432 401 1456 429 l 1172 95 q 1078 28 1139 55 q 967 0 1018 0 l 124 0 q 77 10 98 0 q 57 43 57 20 q 81 95 57 67 l 341 401 q 434 469 374 441 q 546 496 494 496 l 1389 496 q 1436 486 1415 496 q 1456 453 1456 476 m 1190 719 l 1190 595 l 546 595 q 393 558 473 595 q 266 466 313 522 l 5 159 l 1 154 q 0 164 1 157 q 0 174 0 171 l 0 918 q 51 1040 0 989 q 174 1091 102 1091 l 422 1091 q 544 1040 493 1091 q 595 918 595 989 l 595 893 l 1017 893 q 1139 842 1088 893 q 1190 719 1190 791 z "},"":{"ha":595,"x_min":50,"x_max":546,"o":"m 531 977 q 546 942 546 963 q 531 908 546 922 q 496 893 516 893 l 397 893 l 397 99 l 496 99 q 531 84 516 99 q 546 50 546 70 q 531 15 546 29 l 332 -184 q 298 -198 318 -198 q 263 -184 277 -198 l 64 15 q 50 50 50 29 q 64 84 50 70 q 99 99 79 99 l 198 99 l 198 893 l 99 893 q 64 908 79 893 q 50 942 50 922 q 64 977 50 963 l 263 1176 q 298 1190 277 1190 q 332 1176 318 1190 l 531 977 z "},"":{"ha":1389,"x_min":0,"x_max":1389,"o":"m 1374 531 q 1389 496 1389 516 q 1374 461 1389 476 l 1176 263 q 1141 248 1161 248 q 1106 263 1121 248 q 1091 298 1091 277 l 1091 397 l 298 397 l 298 298 q 283 263 298 277 q 248 248 268 248 q 213 263 228 248 l 15 461 q 0 496 0 476 q 15 531 0 516 l 213 729 q 248 744 228 744 q 283 729 268 744 q 298 694 298 715 l 298 595 l 1091 595 l 1091 694 q 1106 729 1091 715 q 1141 744 1121 744 q 1176 729 1161 744 l 1374 531 z "},"":{"ha":1587,"x_min":0,"x_max":1587,"o":"m 496 496 l 496 99 l 298 99 l 298 496 l 496 496 m 794 893 l 794 99 l 595 99 l 595 893 l 794 893 m 1587 0 l 1587 -99 l 0 -99 l 0 1091 l 99 1091 l 99 0 l 1587 0 m 1091 694 l 1091 99 l 893 99 l 893 694 l 1091 694 m 1389 992 l 1389 99 l 1190 99 l 1190 992 l 1389 992 z "},"":{"ha":1190,"x_min":0,"x_max":1190,"o":"m 992 718 q 898 691 949 698 q 970 782 951 722 q 867 742 920 753 q 748 794 819 794 q 633 746 680 794 q 585 631 585 698 q 589 594 585 608 q 401 644 489 599 q 253 764 314 689 q 230 682 230 725 q 301 546 230 594 q 223 567 264 547 l 223 565 q 262 462 223 507 q 357 405 301 416 q 318 399 335 399 q 288 402 308 399 q 345 322 304 353 q 439 289 387 290 q 237 219 350 219 q 198 222 217 219 q 448 149 313 149 q 611 176 535 149 q 741 250 687 204 q 834 356 795 296 q 892 482 873 416 q 911 612 911 547 q 911 633 911 626 q 992 718 960 668 m 1190 868 l 1190 124 q 1125 -34 1190 32 q 967 -99 1059 -99 l 223 -99 q 65 -34 131 -99 q 0 124 0 32 l 0 868 q 65 1026 0 960 q 223 1091 131 1091 l 967 1091 q 1125 1026 1059 1091 q 1190 868 1190 960 z "},"":{"ha":1190,"x_min":0,"x_max":1190,"o":"m 967 1091 q 1125 1026 1059 1091 q 1190 868 1190 960 l 1190 124 q 1125 -34 1190 32 q 967 -99 1059 -99 l 822 -99 l 822 362 l 976 362 l 999 542 l 822 542 l 822 656 q 840 722 822 700 q 911 743 858 743 l 1005 744 l 1005 904 q 867 911 956 911 q 699 849 762 911 q 636 674 636 787 l 636 542 l 481 542 l 481 362 l 636 362 l 636 -99 l 223 -99 q 65 -34 131 -99 q 0 124 0 32 l 0 868 q 65 1026 0 960 q 223 1091 131 1091 l 967 1091 z "},"":{"ha":1389,"x_min":0,"x_max":1389,"o":"m 712 528 q 716 531 712 528 q 719 546 719 535 q 712 563 719 556 q 694 570 705 570 q 607 534 643 570 q 570 446 570 498 q 577 429 570 436 q 595 422 584 422 q 613 429 606 422 q 620 446 620 436 q 642 499 620 477 q 694 521 663 521 q 712 528 705 521 m 835 585 q 864 556 835 585 q 893 445 893 527 q 835 305 893 363 q 694 246 777 246 q 554 305 612 246 q 496 445 496 363 q 554 585 496 527 q 694 643 612 643 q 835 585 777 643 m 99 0 l 1290 0 l 1290 99 l 99 99 l 99 0 m 905 234 q 948 278 905 234 q 992 445 992 322 q 905 655 992 568 q 694 742 818 742 q 484 655 571 742 q 397 445 397 568 q 484 234 397 322 q 694 147 571 147 q 905 234 818 147 m 198 942 l 496 942 l 496 1042 l 198 1042 l 198 942 m 99 794 l 1290 794 l 1290 885 l 1290 992 l 648 992 l 598 893 l 99 893 l 99 794 m 1389 992 l 1389 0 q 1360 -70 1389 -41 q 1290 -99 1331 -99 l 99 -99 q 29 -70 58 -99 q 0 0 0 -41 l 0 992 q 29 1062 0 1033 q 99 1091 58 1091 l 1290 1091 q 1360 1062 1331 1091 q 1389 992 1389 1033 z "},"":{"ha":1389,"x_min":0,"x_max":1304,"o":"m 601 688 q 623 710 601 688 q 645 794 645 732 q 601 899 645 856 q 496 942 558 942 q 391 899 434 942 q 347 794 347 856 q 362 729 347 761 q 298 744 330 744 q 192 701 236 744 q 149 595 149 657 q 192 490 149 533 q 298 446 236 446 q 403 490 360 446 q 446 595 446 533 q 432 660 446 628 q 496 645 463 645 q 601 688 558 645 m 1304 248 q 1266 197 1304 235 q 1215 159 1228 159 q 1193 171 1208 159 q 1165 197 1178 184 q 1135 228 1152 210 q 1116 248 1118 246 l 1042 174 l 1212 3 q 1234 -50 1234 -19 q 1204 -112 1234 -82 q 1141 -143 1173 -143 q 1088 -121 1110 -143 l 568 399 q 285 298 432 298 q 79 377 159 298 q 0 583 0 457 q 74 825 0 707 q 266 1018 147 944 q 508 1091 384 1091 q 714 1012 635 1091 q 794 806 794 932 q 692 523 794 660 l 967 248 l 1042 322 q 1022 341 1039 325 q 991 371 1004 358 q 965 400 977 384 q 953 422 953 415 q 991 473 953 435 q 1042 511 1028 511 q 1059 503 1052 511 q 1095 469 1064 498 q 1159 407 1126 439 q 1226 340 1191 375 q 1282 280 1260 305 q 1304 248 1304 254 z "},"":{"ha":1488,"x_min":0,"x_max":1488,"o":"m 636 356 q 665 385 636 356 q 694 496 694 414 q 636 636 694 578 q 496 694 578 694 q 356 636 414 694 q 298 496 298 578 q 356 356 298 414 q 496 298 414 298 q 636 356 578 298 m 1290 99 q 1260 169 1290 140 q 1190 198 1231 198 q 1121 169 1150 198 q 1091 99 1091 140 q 1120 29 1091 58 q 1190 0 1149 0 q 1261 29 1232 0 q 1290 99 1290 58 m 1290 893 q 1260 963 1290 933 q 1190 992 1231 992 q 1121 963 1150 992 q 1091 893 1091 933 q 1120 823 1091 852 q 1190 794 1149 794 q 1261 823 1232 794 q 1290 893 1290 852 m 992 567 l 992 423 q 987 408 992 415 q 974 400 981 401 l 854 381 q 829 322 846 354 q 899 233 856 285 q 904 218 904 226 q 899 203 904 208 q 835 134 881 180 q 774 88 789 88 q 758 93 766 88 l 669 163 q 609 139 640 148 q 591 19 601 55 q 568 0 586 0 l 424 0 q 408 6 415 0 q 401 19 401 12 l 383 138 q 325 162 357 146 l 233 93 q 218 88 228 88 q 202 94 209 88 q 90 218 90 197 q 95 233 90 225 q 127 274 103 243 q 164 321 151 304 q 136 384 146 355 l 19 403 q 5 410 11 404 q 0 426 0 417 l 0 569 q 5 584 0 577 q 18 592 11 591 l 138 611 q 163 670 146 638 q 93 759 136 707 q 88 774 88 767 q 93 790 88 784 q 157 859 110 813 q 218 904 203 904 q 234 899 226 904 l 323 829 q 383 854 350 843 q 401 973 391 938 q 424 992 406 992 l 568 992 q 584 986 577 992 q 591 973 591 980 l 609 854 q 667 830 636 846 l 759 899 q 774 904 765 904 q 791 898 783 904 q 902 774 902 795 q 897 760 902 767 q 864 718 887 747 q 829 671 841 688 q 856 608 847 634 l 973 590 q 987 582 981 588 q 992 567 992 575 m 1488 153 l 1488 45 q 1373 21 1488 33 q 1349 -19 1363 0 q 1389 -126 1389 -107 q 1386 -132 1389 -129 q 1290 -187 1291 -187 q 1254 -150 1283 -187 q 1214 -98 1225 -114 q 1190 -99 1198 -99 q 1167 -98 1183 -99 q 1127 -150 1156 -114 q 1091 -187 1097 -187 q 995 -132 1090 -187 q 992 -126 992 -129 q 1032 -19 992 -107 q 1008 21 1018 0 q 893 45 893 33 l 893 153 q 1008 177 893 166 q 1032 218 1018 200 q 992 325 992 305 q 995 330 992 328 q 1022 346 998 332 q 1068 372 1046 360 q 1091 384 1090 384 q 1127 348 1097 384 q 1167 296 1156 312 q 1190 298 1183 298 q 1214 296 1198 298 q 1285 383 1253 351 l 1290 384 q 1386 330 1293 384 q 1389 325 1389 328 q 1349 218 1389 305 q 1373 177 1363 200 q 1488 153 1488 166 m 1488 947 l 1488 839 q 1373 815 1488 826 q 1349 774 1363 794 q 1389 667 1389 687 q 1386 662 1389 664 q 1290 607 1291 607 q 1254 643 1283 607 q 1214 696 1225 680 q 1190 694 1198 694 q 1167 696 1183 694 q 1127 643 1156 680 q 1091 607 1097 607 q 995 662 1090 607 q 992 667 992 664 q 1032 774 992 687 q 1008 815 1018 794 q 893 839 893 826 l 893 947 q 1008 971 893 960 q 1032 1011 1018 994 q 992 1118 992 1099 q 995 1124 992 1121 q 1022 1139 998 1125 q 1068 1166 1046 1153 q 1091 1178 1090 1178 q 1127 1142 1097 1178 q 1167 1090 1156 1106 q 1190 1091 1183 1091 q 1214 1090 1198 1091 q 1285 1177 1253 1145 l 1290 1178 q 1386 1124 1293 1178 q 1389 1118 1389 1121 q 1349 1011 1389 1099 q 1373 971 1363 994 q 1488 947 1488 960 z "},"":{"ha":1389,"x_min":0,"x_max":1389,"o":"m 1018 794 q 1055 749 1018 794 q 1091 595 1091 703 q 1018 396 1091 488 q 820 252 946 305 q 546 198 694 198 q 409 211 479 198 q 194 112 313 143 q 127 99 166 105 l 125 99 q 109 105 116 99 q 100 122 102 112 q 99 127 99 124 q 100 132 99 129 q 101 136 100 134 q 103 140 102 139 q 106 145 104 142 q 109 148 108 147 q 112 152 110 150 q 115 156 115 155 q 133 175 119 160 q 153 198 147 190 q 171 221 160 206 q 190 250 182 235 q 206 284 198 266 q 55 422 110 340 q 0 595 0 503 q 73 794 0 703 q 272 939 146 886 q 546 992 398 992 q 820 939 694 992 q 1018 794 946 886 m 1389 397 q 1334 223 1389 304 q 1183 86 1279 142 q 1199 52 1190 67 q 1218 22 1207 36 q 1235 0 1229 8 q 1256 -23 1242 -9 q 1273 -43 1270 -38 q 1277 -46 1274 -43 q 1280 -50 1279 -49 q 1283 -54 1281 -51 q 1286 -58 1285 -57 q 1288 -62 1287 -60 q 1289 -67 1289 -64 q 1290 -72 1290 -69 q 1289 -77 1290 -74 q 1279 -94 1287 -88 q 1262 -99 1271 -100 q 1195 -87 1223 -94 q 980 12 1076 -56 q 843 0 910 0 q 477 102 633 0 q 546 99 522 99 q 785 134 670 99 q 990 234 900 169 q 1139 398 1087 305 q 1190 595 1190 491 q 1173 713 1190 655 q 1331 575 1273 658 q 1389 397 1389 492 z "},"":{"ha":1190,"x_min":0,"x_max":1190,"o":"m 184 114 q 191 121 184 114 q 198 149 198 129 q 184 184 198 169 q 149 198 169 198 q 114 184 129 198 q 99 149 99 169 q 114 114 99 129 q 149 99 129 99 q 184 114 169 99 m 1091 595 q 1061 665 1091 635 q 992 694 1031 694 l 719 694 q 756 818 719 739 q 794 942 794 897 q 769 1055 794 1018 q 670 1091 744 1091 q 640 1025 649 1071 q 617 928 631 980 q 570 843 602 877 q 511 773 553 825 q 493 749 508 769 q 469 718 478 730 q 442 685 459 705 q 411 651 425 664 q 381 623 397 637 q 350 602 365 609 q 322 595 335 595 l 298 595 l 298 99 l 322 99 q 347 97 332 99 q 372 92 361 95 q 402 83 384 89 q 429 74 420 78 q 457 65 438 71 q 479 57 475 58 q 744 0 643 0 l 838 0 q 987 129 987 0 q 983 173 987 150 q 1020 214 1006 185 q 1033 270 1033 242 q 1019 324 1033 299 q 1060 416 1060 363 q 1053 459 1060 436 q 1033 496 1045 483 q 1075 532 1058 497 q 1091 595 1091 568 m 1190 596 q 1152 470 1190 527 q 1159 416 1159 444 q 1130 305 1159 357 q 1132 271 1132 288 q 1086 133 1132 193 q 1020 -37 1087 26 q 844 -99 953 -99 l 816 -99 l 744 -99 q 597 -82 670 -99 q 429 -31 525 -64 q 322 0 339 0 l 99 0 q 29 29 58 0 q 0 99 0 58 l 0 595 q 29 665 0 636 q 99 694 58 694 l 312 694 q 418 815 339 713 q 501 914 463 873 q 528 980 519 933 q 552 1078 537 1027 q 600 1162 567 1129 q 670 1190 630 1190 q 787 1165 735 1190 q 866 1087 839 1140 q 893 942 893 1033 q 856 794 893 870 l 992 794 q 1132 735 1073 794 q 1190 596 1190 676 z "},"":{"ha":1190,"x_min":0,"x_max":1190,"o":"m 184 808 q 191 816 184 808 q 198 843 198 823 q 184 878 198 863 q 149 893 169 893 q 114 878 129 893 q 99 843 99 863 q 114 808 99 823 q 149 794 129 794 q 184 808 169 794 m 1091 397 q 1075 460 1091 424 q 1033 496 1058 495 q 1053 533 1045 509 q 1060 576 1060 556 q 1019 668 1060 629 q 1033 722 1033 693 q 1020 779 1033 750 q 983 819 1006 807 q 987 863 987 842 q 949 960 987 929 q 843 992 911 992 l 744 992 q 479 935 643 992 q 457 927 475 934 q 429 918 438 921 q 402 909 420 915 q 372 900 384 903 q 347 895 361 898 q 322 893 332 893 l 298 893 l 298 397 l 322 397 q 350 390 335 397 q 381 369 365 383 q 411 341 397 355 q 442 307 425 328 q 469 274 459 287 q 493 243 478 262 q 511 219 508 223 q 570 149 553 167 q 617 64 602 115 q 640 -33 631 12 q 670 -99 649 -79 q 769 -63 744 -99 q 794 50 794 -26 q 756 174 794 95 q 719 298 719 253 l 992 298 q 1061 327 1031 298 q 1091 397 1091 357 m 1190 396 q 1132 257 1190 316 q 992 198 1073 198 l 856 198 q 893 50 893 122 q 866 -95 893 -42 q 787 -173 839 -148 q 670 -198 735 -198 q 600 -170 630 -198 q 558 -106 574 -144 q 538 -36 543 -68 q 525 29 534 -4 q 501 79 515 63 q 418 177 463 118 q 312 298 339 279 l 99 298 q 29 327 58 298 q 0 397 0 356 l 0 893 q 29 963 0 934 q 99 992 58 992 l 322 992 q 429 1023 339 992 q 602 1074 529 1057 q 757 1091 676 1091 l 844 1091 q 1020 1030 953 1091 q 1086 863 1087 969 l 1086 859 q 1132 721 1132 799 q 1130 687 1132 704 q 1159 576 1159 636 q 1152 522 1159 548 q 1190 396 1190 465 z "},"":{"ha":694,"x_min":0,"x_max":645,"o":"m 645 1166 l 645 128 l 297 -55 q 266 -64 280 -64 q 241 -53 250 -64 q 233 -26 233 -42 q 235 -10 233 -21 l 301 377 l 19 652 q 0 689 0 673 q 43 725 0 718 l 432 781 l 607 1134 q 645 1166 622 1166 z "},"":{"ha":1389,"x_min":0,"x_max":1389,"o":"m 1290 729 q 1273 839 1290 791 q 1230 916 1256 887 q 1167 962 1204 944 q 1094 986 1130 980 q 1018 992 1059 992 q 932 972 978 992 q 846 923 885 953 q 779 867 807 893 q 732 819 751 841 q 694 802 718 802 q 656 819 670 802 q 610 867 638 841 q 543 923 582 893 q 457 972 504 953 q 370 992 411 992 q 295 986 330 992 q 222 962 259 980 q 158 916 184 944 q 116 839 133 887 q 99 729 99 791 q 244 453 99 598 l 694 19 l 1144 453 q 1290 729 1290 598 m 1389 729 q 1211 380 1389 557 l 729 -85 q 694 -99 715 -99 q 660 -85 674 -99 l 177 381 q 155 401 169 388 q 112 452 142 415 q 60 528 83 489 q 18 622 36 567 q 0 729 0 677 q 98 995 0 899 q 370 1091 197 1091 q 469 1075 419 1091 q 562 1030 519 1058 q 636 977 605 1001 q 694 924 667 952 q 753 977 722 952 q 827 1030 784 1001 q 920 1075 870 1058 q 1018 1091 970 1091 q 1290 995 1192 1091 q 1389 729 1389 899 z "},"":{"ha":1290,"x_min":0,"x_max":1215,"o":"m 496 74 q 497 59 496 71 q 497 38 498 47 q 495 20 497 30 q 487 5 493 10 q 471 0 481 0 l 223 0 q 65 65 131 0 q 0 223 0 131 l 0 769 q 65 927 0 861 q 223 992 131 992 l 471 992 q 489 985 481 992 q 496 967 496 977 q 497 952 496 964 q 497 931 498 939 q 495 913 497 923 q 487 898 493 903 q 471 893 481 893 l 223 893 q 136 856 172 893 q 99 769 99 820 l 99 223 q 136 136 99 172 q 223 99 172 99 l 446 99 q 455 99 447 99 q 465 99 463 99 q 474 98 467 99 q 483 96 481 98 q 489 92 485 95 q 494 85 493 89 q 496 74 496 81 m 1201 531 q 1215 496 1215 516 q 1201 461 1215 476 l 779 40 q 744 25 764 25 q 709 40 724 25 q 694 74 694 54 l 694 298 l 347 298 q 312 312 327 298 q 298 347 298 327 l 298 645 q 312 680 298 665 q 347 694 327 694 l 694 694 l 694 918 q 709 953 694 938 q 744 967 724 967 q 779 953 764 967 l 1201 531 z "},"":{"ha":1190,"x_min":0,"x_max":1190,"o":"m 184 95 l 363 95 l 363 632 l 184 632 l 184 95 m 374 798 q 346 865 374 839 q 274 891 319 891 q 201 865 229 891 q 173 798 173 839 q 200 732 173 759 q 272 705 228 705 l 273 705 q 346 732 319 705 q 374 798 374 759 m 828 95 l 1007 95 l 1007 403 q 950 584 1007 522 q 801 645 894 645 q 639 554 695 645 l 640 554 l 640 632 l 461 632 q 461 95 463 581 l 640 95 l 640 395 q 646 439 640 425 q 680 485 657 466 q 738 504 704 504 q 828 382 828 504 l 828 95 m 1190 868 l 1190 124 q 1125 -34 1190 32 q 967 -99 1059 -99 l 223 -99 q 65 -34 131 -99 q 0 124 0 32 l 0 868 q 65 1026 0 960 q 223 1091 131 1091 l 967 1091 q 1125 1026 1059 1091 q 1190 868 1190 960 z "},"":{"ha":893,"x_min":0,"x_max":893,"o":"m 372 521 l 372 868 q 365 886 372 879 q 347 893 358 893 q 329 886 336 893 q 322 868 322 879 l 322 521 q 329 503 322 510 q 347 496 336 496 q 365 503 358 496 q 372 521 372 510 m 893 248 q 878 213 893 228 q 843 198 863 198 l 511 198 l 471 -176 q 463 -192 470 -185 q 447 -198 457 -198 l 446 -198 q 422 -177 426 -198 l 363 198 l 50 198 q 15 213 29 198 q 0 248 0 228 q 61 420 0 343 q 198 496 122 496 l 198 893 q 129 922 158 893 q 99 992 99 952 q 129 1062 99 1032 q 198 1091 158 1091 l 694 1091 q 764 1062 735 1091 q 794 992 794 1032 q 764 922 794 952 q 694 893 735 893 l 694 496 q 832 420 771 496 q 893 248 893 343 z "},"":{"ha":1389,"x_min":0,"x_max":1389,"o":"m 1091 471 l 1091 223 q 1026 65 1091 131 q 868 0 960 0 l 223 0 q 65 65 131 0 q 0 223 0 131 l 0 868 q 65 1026 0 960 q 223 1091 131 1091 l 769 1091 q 787 1084 780 1091 q 794 1066 794 1077 l 794 1017 q 787 999 794 1006 q 769 992 780 992 l 223 992 q 136 956 172 992 q 99 868 99 919 l 99 223 q 136 136 99 172 q 223 99 172 99 l 868 99 q 956 136 919 99 q 992 223 992 172 l 992 471 q 999 489 992 482 q 1017 496 1006 496 l 1066 496 q 1084 489 1077 496 q 1091 471 1091 482 m 1389 1141 l 1389 744 q 1374 709 1389 724 q 1339 694 1359 694 q 1304 709 1319 694 l 1168 846 l 663 340 q 645 332 655 332 q 627 340 635 332 l 539 429 q 531 446 531 436 q 539 464 531 457 l 1044 970 l 908 1106 q 893 1141 893 1121 q 908 1176 893 1161 q 942 1190 922 1190 l 1339 1190 q 1374 1176 1359 1190 q 1389 1141 1389 1161 z "},"":{"ha":1190,"x_min":0,"x_max":1190,"o":"m 903 531 q 918 496 918 516 q 903 461 918 476 l 481 40 q 446 25 467 25 q 412 40 426 25 q 397 74 397 54 l 397 298 l 50 298 q 15 312 29 298 q 0 347 0 327 l 0 645 q 15 680 0 665 q 50 694 29 694 l 397 694 l 397 918 q 412 953 397 938 q 446 967 426 967 q 481 953 467 967 l 903 531 m 1190 769 l 1190 223 q 1125 65 1190 131 q 967 0 1059 0 l 719 0 q 702 7 709 0 q 694 25 694 15 q 694 40 694 28 q 693 61 693 53 q 696 79 694 69 q 703 94 698 89 q 719 99 709 99 l 967 99 q 1055 136 1018 99 q 1091 223 1091 172 l 1091 769 q 1055 856 1091 820 q 967 893 1018 893 l 744 893 q 736 893 743 893 q 725 893 728 893 q 717 894 723 893 q 708 896 710 894 q 701 900 705 898 q 696 907 698 903 q 694 918 694 911 q 694 933 694 921 q 693 954 693 946 q 696 972 694 962 q 703 987 698 982 q 719 992 709 992 l 967 992 q 1125 927 1059 992 q 1190 769 1190 861 z "},"":{"ha":1290,"x_min":0,"x_max":1290,"o":"m 355 506 q 298 794 298 632 l 99 794 l 99 719 q 172 594 99 659 q 355 506 246 529 m 1190 719 l 1190 794 l 992 794 q 935 506 992 632 q 1117 594 1044 529 q 1190 719 1190 659 m 1290 818 l 1290 719 q 1258 608 1290 664 q 1171 508 1225 553 q 1037 432 1116 463 q 870 398 957 401 q 796 324 837 356 q 755 268 767 298 q 744 198 744 238 q 768 128 744 157 q 843 99 791 99 q 947 64 901 99 q 992 -25 992 29 l 992 -74 q 985 -92 992 -85 q 967 -99 978 -99 l 322 -99 q 305 -92 312 -99 q 298 -74 298 -85 l 298 -25 q 343 64 298 29 q 446 99 388 99 q 522 128 498 99 q 546 198 546 157 q 534 268 546 238 q 494 324 523 298 q 420 398 453 356 q 253 432 332 401 q 119 508 174 463 q 32 608 64 553 q 0 719 0 664 l 0 818 q 22 871 0 849 q 74 893 43 893 l 298 893 l 298 967 q 334 1055 298 1018 q 422 1091 370 1091 l 868 1091 q 956 1055 919 1091 q 992 967 992 1018 l 992 893 l 1215 893 q 1268 871 1246 893 q 1290 818 1290 849 z "},"":{"ha":1190,"x_min":0,"x_max":1190,"o":"m 305 143 q 290 145 299 136 q 287 160 280 153 q 302 157 293 167 q 305 143 312 149 m 273 190 q 273 175 280 181 q 260 181 267 171 q 260 195 253 191 q 273 190 267 200 m 226 236 q 215 235 222 231 q 210 244 208 239 q 220 246 212 248 q 226 236 228 242 m 250 210 q 237 212 245 205 q 236 225 230 221 q 248 222 240 229 q 250 210 255 214 m 350 123 q 335 119 346 114 q 325 130 322 122 q 339 136 328 139 q 350 123 352 132 m 398 119 q 386 111 398 111 q 373 119 373 109 q 385 128 373 128 q 398 119 398 129 m 443 127 q 432 116 445 119 q 419 122 420 113 q 429 134 417 132 q 443 127 442 136 m 1190 868 l 1190 124 q 1125 -34 1190 32 q 967 -99 1059 -99 l 794 -99 q 775 -98 781 -99 q 760 -95 768 -98 q 747 -83 751 -91 q 743 -62 743 -75 l 743 123 q 703 233 743 198 q 782 247 747 238 q 855 277 818 257 q 918 329 893 298 q 959 410 943 360 q 975 527 975 461 q 914 687 975 621 q 908 845 942 757 q 845 836 886 852 q 773 802 804 821 l 744 784 q 595 804 672 804 q 446 784 519 804 q 413 805 434 792 q 349 834 393 817 q 282 845 305 852 q 277 687 248 757 q 215 527 215 621 q 231 411 215 461 q 272 329 247 360 q 334 277 297 298 q 407 247 372 257 q 487 233 443 238 q 449 153 456 205 q 414 142 432 146 q 370 138 395 138 q 319 155 344 138 q 276 203 294 171 q 238 243 261 228 q 200 262 215 259 l 184 264 q 162 261 168 264 q 158 252 156 257 q 165 241 160 246 q 175 232 170 236 l 181 228 q 214 198 198 220 q 239 159 231 177 l 246 141 q 281 93 257 112 q 332 70 305 75 q 386 65 360 65 q 429 67 412 64 l 447 71 q 448 -9 447 41 q 448 -62 448 -60 q 439 -88 448 -79 q 422 -98 431 -97 q 397 -99 414 -99 l 223 -99 q 65 -34 131 -99 q 0 124 0 32 l 0 868 q 65 1026 0 960 q 223 1091 131 1091 l 967 1091 q 1125 1026 1059 1091 q 1190 868 1190 960 z "},"":{"ha":1290,"x_min":0,"x_max":1290,"o":"m 977 15 q 985 22 977 15 q 992 50 992 29 q 977 84 992 70 q 942 99 963 99 q 908 84 922 99 q 893 50 893 70 q 908 15 893 29 q 942 0 922 0 q 977 15 963 0 m 1176 15 q 1183 22 1176 15 q 1190 50 1190 29 q 1176 84 1190 70 q 1141 99 1161 99 q 1106 84 1121 99 q 1091 50 1091 70 q 1106 15 1091 29 q 1141 0 1121 0 q 1176 15 1161 0 m 1290 223 l 1290 -25 q 1268 -78 1290 -56 q 1215 -99 1246 -99 l 74 -99 q 22 -78 43 -99 q 0 -25 0 -56 l 0 223 q 22 276 0 254 q 74 298 43 298 l 405 298 q 460 226 422 254 q 546 198 498 198 l 744 198 q 830 226 791 198 q 884 298 868 254 l 1215 298 q 1268 276 1246 298 q 1290 223 1290 254 m 1038 725 q 992 694 1025 694 l 794 694 l 794 347 q 779 312 794 327 q 744 298 764 298 l 546 298 q 511 312 525 298 q 496 347 496 327 l 496 694 l 298 694 q 252 725 265 694 q 263 779 239 756 l 610 1126 q 645 1141 624 1141 q 680 1126 666 1141 l 1027 779 q 1038 725 1051 756 z "},"":{"ha":1190,"x_min":0,"x_max":1190,"o":"m 1090 550 q 1085 638 1090 584 q 1071 713 1080 692 q 1058 747 1062 736 q 1051 775 1054 758 q 1048 813 1048 793 q 1052 866 1048 831 q 1056 918 1056 901 q 1048 961 1056 947 q 1038 962 1045 962 q 993 958 1023 962 q 947 955 963 955 q 811 973 901 955 q 675 992 721 992 q 602 983 642 992 q 536 965 562 974 q 467 939 510 956 q 310 859 360 897 q 186 712 236 802 q 118 529 137 622 q 99 336 99 436 q 109 243 99 305 q 119 150 119 181 q 110 98 119 132 q 102 47 102 64 q 111 19 102 30 q 137 8 120 8 q 193 16 156 8 q 250 25 231 25 q 382 13 295 25 q 513 1 469 1 q 733 29 653 1 q 916 147 833 64 q 1044 337 998 230 q 1090 550 1090 444 m 1190 552 q 1135 298 1190 424 q 984 75 1081 172 q 766 -65 886 -22 q 513 -99 670 -99 q 381 -88 469 -99 q 250 -77 294 -77 q 194 -88 232 -77 q 137 -99 157 -99 q 41 -56 81 -99 q 2 43 2 -13 q 11 96 2 62 q 19 148 19 130 q 10 241 19 179 q 0 336 0 304 q 14 504 0 422 q 56 667 28 587 q 134 817 84 746 q 250 938 184 887 q 430 1031 311 984 q 675 1091 581 1091 q 811 1073 722 1091 q 946 1054 901 1054 q 990 1058 960 1054 q 1035 1062 1019 1062 q 1126 1023 1097 1062 q 1155 918 1155 984 q 1151 866 1155 901 q 1147 813 1147 831 q 1148 799 1147 805 q 1150 786 1149 792 q 1153 775 1152 779 q 1158 763 1155 771 q 1163 749 1162 754 q 1183 658 1176 718 q 1190 552 1190 597 z "},"":{"ha":1091,"x_min":0,"x_max":1091,"o":"m 1091 229 q 1084 175 1091 208 q 1067 122 1076 141 q 973 40 1051 83 q 829 0 900 0 q 788 3 808 0 q 743 12 768 5 q 706 24 718 19 q 663 40 694 28 q 625 53 632 51 q 490 118 550 81 q 285 285 391 179 q 118 490 179 391 q 53 625 81 550 q 40 663 51 632 q 24 706 28 694 q 12 743 19 718 q 3 788 5 768 q 0 829 0 808 q 40 973 0 900 q 122 1067 83 1051 q 175 1084 141 1076 q 229 1091 208 1091 q 246 1089 240 1091 q 287 1030 260 1084 q 310 988 295 1015 q 337 939 325 961 q 361 898 350 917 q 375 878 363 894 q 391 851 386 862 q 397 829 397 839 q 375 790 397 813 q 327 747 353 767 q 279 706 301 728 q 257 670 257 684 q 260 653 257 663 q 267 637 264 643 q 278 618 270 632 q 287 604 286 605 q 422 422 346 498 q 604 287 498 346 q 618 278 605 286 q 637 267 632 270 q 653 260 643 264 q 670 257 663 257 q 706 279 684 257 q 747 327 728 301 q 790 375 767 353 q 829 397 813 397 q 851 391 839 397 q 878 375 862 386 q 898 361 894 363 q 939 337 917 350 q 988 310 961 325 q 1030 287 1015 295 q 1089 246 1084 260 q 1091 229 1091 240 z "},"":{"ha":1091,"x_min":0,"x_max":1091,"o":"m 868 992 l 223 992 q 136 956 172 992 q 99 868 99 919 l 99 223 q 136 136 99 172 q 223 99 172 99 l 868 99 q 956 136 919 99 q 992 223 992 172 l 992 868 q 956 956 992 919 q 868 992 919 992 m 1091 868 l 1091 223 q 1026 65 1091 131 q 868 0 960 0 l 223 0 q 65 65 131 0 q 0 223 0 131 l 0 868 q 65 1026 0 960 q 223 1091 131 1091 l 868 1091 q 1026 1026 960 1091 q 1091 868 1091 960 z "},"":{"ha":992,"x_min":0,"x_max":992,"o":"m 893 992 l 99 992 l 99 29 l 427 344 l 496 410 l 565 344 l 893 29 l 893 992 m 902 1091 q 936 1084 920 1091 q 977 1053 962 1074 q 992 1004 992 1031 l 992 5 q 977 -43 992 -21 q 936 -74 962 -64 q 902 -81 922 -81 q 838 -56 865 -81 l 496 273 l 154 -56 q 90 -81 126 -81 q 56 -74 72 -81 q 15 -43 30 -64 q 0 5 0 -21 l 0 1004 q 15 1053 0 1031 q 56 1084 30 1074 q 90 1091 72 1091 l 902 1091 z "},"":{"ha":1190,"x_min":0,"x_max":1190,"o":"m 992 266 q 991 278 992 274 q 961 301 988 284 q 892 339 933 318 l 851 362 q 836 372 847 364 q 817 384 825 380 q 801 388 808 388 q 764 362 787 388 q 720 312 742 337 q 686 286 698 286 q 673 289 680 286 q 661 294 666 291 q 648 301 656 296 q 637 308 639 306 q 505 406 560 350 q 407 538 450 461 q 400 549 405 540 q 393 562 395 557 q 388 574 391 567 q 385 587 385 581 q 401 613 385 597 q 436 643 417 629 q 471 673 455 656 q 487 701 487 690 q 483 718 487 709 q 471 737 479 726 q 461 752 463 748 q 450 774 459 756 q 430 809 440 791 q 410 846 420 827 q 390 877 399 865 q 377 891 381 890 q 365 893 374 893 q 287 876 328 893 q 225 803 251 860 q 198 701 198 746 q 200 675 198 689 q 204 651 202 661 q 211 626 206 642 q 219 603 216 610 q 229 577 222 596 q 237 554 236 559 q 405 306 284 427 q 653 138 526 184 q 677 129 658 136 q 702 120 695 122 q 725 112 709 117 q 751 105 741 107 q 774 101 760 103 q 801 99 788 99 q 902 126 845 99 q 975 188 959 152 q 992 266 992 229 m 1190 868 l 1190 124 q 1125 -34 1190 32 q 967 -99 1059 -99 l 223 -99 q 65 -34 131 -99 q 0 124 0 32 l 0 868 q 65 1026 0 960 q 223 1091 131 1091 l 967 1091 q 1125 1026 1059 1091 q 1190 868 1190 960 z "},"":{"ha":1290,"x_min":34,"x_max":1256,"o":"m 1256 874 q 1130 745 1204 798 q 1131 712 1131 734 q 1101 511 1131 612 q 1012 319 1072 411 q 869 155 952 226 q 669 42 786 84 q 419 0 552 0 q 34 112 208 0 q 95 109 61 109 q 405 216 269 109 q 260 266 324 218 q 171 390 195 315 q 219 386 197 386 q 284 395 252 386 q 141 481 198 412 q 84 640 84 550 l 84 643 q 197 612 136 614 q 115 701 146 646 q 85 820 85 756 q 119 946 85 888 q 348 761 213 831 q 636 684 482 692 q 629 742 629 714 q 703 919 629 846 q 880 992 776 992 q 1063 913 988 992 q 1221 973 1147 929 q 1111 836 1193 884 q 1256 874 1184 843 z "},"":{"ha":794,"x_min":74,"x_max":743,"o":"m 743 1181 l 743 977 l 622 977 q 532 949 555 977 q 508 865 508 921 l 508 718 l 736 718 l 705 489 l 508 489 l 508 -99 l 271 -99 l 271 489 l 74 489 l 74 718 l 271 718 l 271 887 q 352 1111 271 1032 q 567 1190 432 1190 q 743 1181 680 1190 z "},"":{"ha":1190,"x_min":0,"x_max":1190,"o":"m 1190 496 q 1077 146 1190 301 q 784 -69 963 -9 q 753 -64 763 -73 q 743 -40 743 -54 l 743 123 q 703 233 743 198 q 782 247 747 238 q 855 277 818 257 q 918 329 893 298 q 959 410 943 360 q 975 527 975 461 q 914 687 975 621 q 908 845 942 757 q 845 836 886 852 q 773 802 804 821 l 744 784 q 595 804 672 804 q 446 784 519 804 q 413 805 434 792 q 349 834 393 817 q 282 845 305 852 q 277 687 248 757 q 215 527 215 621 q 231 411 215 461 q 272 329 247 360 q 334 277 297 298 q 407 247 372 257 q 487 233 443 238 q 449 153 456 205 q 414 142 432 146 q 370 138 395 138 q 319 155 344 138 q 276 203 294 171 q 238 243 261 228 q 200 262 215 259 l 184 264 q 162 261 168 264 q 158 252 156 257 q 165 241 160 246 q 175 232 170 236 l 181 228 q 214 198 198 220 q 239 159 231 177 l 246 141 q 281 93 257 112 q 332 70 305 75 q 386 65 360 65 q 429 67 412 64 l 447 71 q 448 2 447 41 q 448 -40 448 -38 q 438 -64 448 -54 q 407 -69 428 -73 q 114 146 227 -9 q 0 496 0 301 q 80 795 0 658 q 296 1011 160 932 q 595 1091 433 1091 q 894 1011 757 1091 q 1111 795 1031 932 q 1190 496 1190 658 z "},"":{"ha":1290,"x_min":0,"x_max":1290,"o":"m 1290 744 l 1290 546 q 1275 511 1290 525 q 1240 496 1260 496 l 1190 496 q 1156 511 1170 496 q 1141 546 1141 525 l 1141 744 q 1083 884 1141 826 q 942 942 1025 942 q 802 884 860 942 q 744 744 744 826 l 744 595 l 818 595 q 871 574 849 595 q 893 521 893 552 l 893 74 q 871 22 893 43 q 818 0 849 0 l 74 0 q 22 22 43 0 q 0 74 0 43 l 0 521 q 22 574 0 552 q 74 595 43 595 l 595 595 l 595 744 q 697 989 595 887 q 942 1091 799 1091 q 1188 989 1086 1091 q 1290 744 1290 887 z "},"":{"ha":1488,"x_min":0,"x_max":1488,"o":"m 1364 1091 q 1452 1055 1415 1091 q 1488 967 1488 1018 l 1488 25 q 1452 -63 1488 -26 q 1364 -99 1415 -99 l 124 -99 q 36 -63 73 -99 q 0 25 0 -26 l 0 967 q 36 1055 0 1018 q 124 1091 73 1091 l 1364 1091 m 124 992 q 107 985 114 992 q 99 967 99 977 l 99 794 l 1389 794 l 1389 967 q 1382 985 1389 977 q 1364 992 1374 992 l 124 992 m 1364 0 q 1382 7 1374 0 q 1389 25 1389 15 l 1389 496 l 99 496 l 99 25 q 107 7 99 15 q 124 0 114 0 l 1364 0 m 198 99 l 198 198 l 397 198 l 397 99 l 198 99 m 496 99 l 496 198 l 794 198 l 794 99 l 496 99 z "},"":{"ha":1091,"x_min":0,"x_max":1091,"o":"m 254 254 q 276 233 254 254 q 298 149 298 211 q 254 43 298 87 q 149 0 211 0 q 43 43 87 0 q 0 149 0 87 q 43 254 0 211 q 149 298 87 298 q 254 254 211 298 m 694 53 q 681 16 696 32 q 645 0 667 0 l 540 0 q 507 13 521 0 q 491 45 493 26 q 348 348 474 222 q 45 491 222 474 q 13 507 26 493 q 0 540 0 521 l 0 645 q 16 681 0 667 q 50 694 29 694 l 53 694 q 291 632 177 684 q 491 491 404 580 q 632 291 580 404 q 694 53 684 177 m 1091 52 q 1077 16 1093 31 q 1042 0 1063 0 l 931 0 q 896 14 911 0 q 881 47 882 27 q 803 363 872 213 q 624 624 734 513 q 363 803 513 734 q 47 882 213 872 q 14 897 27 883 q 0 931 0 911 l 0 1042 q 16 1077 0 1063 q 50 1091 29 1091 l 52 1091 q 441 998 255 1081 q 770 770 626 915 q 998 441 915 626 q 1091 52 1081 255 z "},"":{"ha":1190,"x_min":0,"x_max":1190,"o":"m 788 292 q 797 283 788 292 q 806 248 806 274 q 788 204 806 222 q 744 186 770 186 q 700 204 718 186 q 682 248 682 222 q 700 292 682 274 q 744 310 718 310 q 788 292 770 310 m 986 292 q 995 283 986 292 q 1004 248 1004 274 q 986 204 1004 222 q 942 186 968 186 q 899 204 917 186 q 880 248 880 222 q 899 292 880 274 q 942 310 917 310 q 986 292 968 310 m 1091 124 l 1091 372 q 1084 389 1091 382 q 1066 397 1077 397 l 124 397 q 107 389 114 397 q 99 372 99 382 l 99 124 q 107 107 99 114 q 124 99 114 99 l 1066 99 q 1084 107 1077 99 q 1091 124 1091 114 m 138 496 l 1053 496 l 931 870 q 918 886 928 880 q 898 893 909 893 l 292 893 q 272 886 281 893 q 260 870 263 880 l 138 496 m 1190 372 l 1190 124 q 1154 36 1190 73 q 1066 0 1118 0 l 124 0 q 36 36 73 0 q 0 124 0 73 l 0 372 q 12 430 0 391 l 165 900 q 214 966 178 941 q 292 992 250 992 l 898 992 q 977 966 941 992 q 1025 900 1012 941 l 1178 430 q 1190 372 1190 391 z "},"":{"ha":1389,"x_min":0,"x_max":1389,"o":"m 1290 694 q 1360 665 1331 694 q 1389 595 1389 636 q 1360 525 1389 554 q 1290 496 1331 496 l 1290 198 q 1260 129 1290 158 q 1190 99 1231 99 q 561 394 867 368 q 491 343 516 379 q 467 265 465 306 q 498 193 468 223 q 480 142 482 167 q 484 97 477 117 q 510 55 491 78 q 548 16 529 32 q 595 -23 566 0 q 509 -88 573 -68 q 378 -96 445 -107 q 276 -53 312 -86 q 253 14 270 -36 q 228 88 236 64 q 210 157 221 111 q 199 235 200 202 q 202 311 198 267 q 219 397 205 355 l 124 397 q 36 433 73 397 q 0 521 0 470 l 0 670 q 36 757 0 721 q 124 794 73 794 l 496 794 q 1190 1091 833 794 q 1260 1062 1231 1091 q 1290 992 1290 1032 l 1290 694 m 1190 226 l 1190 966 q 595 700 885 732 l 595 491 q 1190 226 887 458 z "},"":{"ha":1389,"x_min":50,"x_max":1339,"o":"m 694 -136 q 707 -124 707 -136 q 694 -112 707 -112 q 616 -79 649 -112 q 583 0 583 -46 q 570 12 583 12 q 558 0 558 12 q 598 -96 558 -57 q 694 -136 638 -136 m 191 99 l 1198 99 q 992 744 992 332 q 973 825 992 784 q 920 905 955 867 q 826 968 885 943 q 694 992 767 992 q 563 968 622 992 q 469 905 504 943 q 415 825 434 867 q 397 744 397 784 q 191 99 397 332 m 1339 99 q 1310 29 1339 59 q 1240 0 1280 0 l 893 0 q 835 -140 893 -82 q 694 -198 777 -198 q 554 -140 612 -198 q 496 0 496 -82 l 149 0 q 79 29 109 0 q 50 99 50 59 q 120 167 88 132 q 186 260 152 203 q 244 383 220 317 q 283 543 267 449 q 298 744 298 636 q 388 963 298 862 q 626 1086 479 1064 q 620 1116 620 1101 q 642 1169 620 1147 q 694 1190 663 1190 q 747 1169 725 1190 q 769 1116 769 1147 q 763 1086 769 1101 q 1001 963 910 1064 q 1091 744 1091 862 q 1106 543 1091 636 q 1145 383 1121 449 q 1203 260 1169 317 q 1269 167 1237 203 q 1339 99 1301 132 z "},"":{"ha":1190,"x_min":2,"x_max":1189,"o":"m 1066 496 l 1173 391 q 1189 337 1197 370 q 1149 298 1180 305 l 1003 260 l 1044 116 q 1029 62 1053 84 q 975 47 1007 38 l 831 88 l 794 -57 q 754 -98 786 -88 q 739 -99 745 -99 q 700 -82 715 -99 l 595 25 l 491 -82 q 436 -98 469 -105 q 397 -57 405 -89 l 360 88 l 215 47 q 161 62 184 38 q 146 116 137 84 l 188 260 l 42 298 q 2 337 11 305 q 17 391 -6 370 l 124 496 l 17 601 q 2 655 -6 622 q 42 694 11 687 l 188 732 l 146 876 q 161 930 137 908 q 215 945 184 954 l 360 904 l 397 1049 q 436 1089 405 1081 q 491 1074 468 1098 l 595 966 l 700 1074 q 754 1089 722 1097 q 794 1049 786 1081 l 831 904 l 975 945 q 1029 930 1007 954 q 1044 876 1053 908 l 1003 732 l 1149 694 q 1189 655 1180 687 q 1173 601 1197 622 l 1066 496 z "},"":{"ha":1389,"x_min":0,"x_max":1389,"o":"m 184 114 q 191 121 184 114 q 198 149 198 129 q 184 184 198 169 q 149 198 169 198 q 114 184 129 198 q 99 149 99 169 q 114 114 99 129 q 149 99 129 99 q 184 114 169 99 m 1290 595 q 1259 665 1290 635 q 1190 694 1229 694 l 744 694 q 756 732 744 710 q 781 775 767 754 q 807 827 795 795 q 818 893 818 860 q 784 968 818 945 q 694 992 749 992 q 625 884 676 992 q 596 834 606 850 q 509 722 565 784 q 431 639 454 659 q 322 595 377 595 l 298 595 l 298 99 l 322 99 q 452 74 378 99 q 602 25 525 50 q 741 0 678 0 q 887 129 887 0 q 884 173 887 150 q 920 214 907 185 q 934 270 934 242 q 920 324 934 299 q 961 416 961 363 q 953 459 961 436 q 934 496 946 483 l 1190 496 q 1260 525 1231 496 q 1290 595 1290 555 m 1389 596 q 1330 456 1389 515 q 1190 397 1272 397 l 1059 397 q 1031 305 1056 349 q 1033 271 1033 288 q 987 133 1033 193 q 921 -37 987 26 q 745 -99 854 -99 q 495 -46 642 -99 q 322 0 368 0 l 99 0 q 29 29 58 0 q 0 99 0 58 l 0 595 q 29 665 0 636 q 99 694 58 694 l 322 694 q 339 698 330 694 q 357 709 348 701 q 375 723 367 716 q 393 740 383 729 q 409 757 404 751 q 424 773 415 763 q 435 787 433 784 q 512 887 485 844 q 538 935 522 903 q 567 991 553 966 q 598 1039 580 1015 q 641 1078 616 1064 q 694 1091 665 1091 q 854 1039 791 1091 q 918 893 918 987 q 901 794 918 840 l 1190 794 q 1330 735 1271 794 q 1389 596 1389 676 z "},"":{"ha":1389,"x_min":0,"x_max":1389,"o":"m 1066 99 l 1091 99 l 1091 595 l 1066 595 q 1014 605 1039 595 q 966 633 989 614 q 927 669 942 653 q 889 711 911 685 q 886 714 887 713 q 883 718 885 715 q 880 722 881 720 q 793 834 824 784 q 763 887 782 851 q 755 904 763 889 q 741 932 748 919 q 725 960 734 945 q 709 983 717 974 q 694 992 701 992 q 605 968 639 992 q 570 893 570 945 q 582 827 570 860 q 608 775 594 795 q 633 732 622 754 q 645 694 645 710 l 198 694 q 129 665 160 694 q 99 595 99 635 q 129 525 99 555 q 198 496 158 496 l 455 496 q 436 459 443 483 q 428 416 428 436 q 469 324 428 363 q 455 270 455 299 q 469 214 455 242 q 505 173 482 185 q 502 129 502 154 q 540 32 502 64 q 645 0 577 0 q 787 25 710 0 q 937 74 863 50 q 1066 99 1011 99 m 1275 114 q 1282 121 1275 114 q 1290 149 1290 129 q 1275 184 1290 169 q 1240 198 1260 198 q 1205 184 1220 198 q 1190 149 1190 169 q 1205 114 1190 129 q 1240 99 1220 99 q 1275 114 1260 99 m 1389 595 l 1389 99 q 1360 29 1389 58 q 1290 0 1331 0 l 1066 0 q 894 -46 1021 0 q 648 -99 746 -99 q 470 -39 538 -99 q 402 129 401 21 l 403 133 q 356 271 356 192 q 358 305 356 288 q 329 397 332 349 l 198 397 q 59 456 117 397 q 0 596 0 515 q 59 735 0 676 q 198 794 118 794 l 488 794 q 471 893 471 840 q 534 1039 471 987 q 694 1091 598 1091 q 748 1078 724 1091 q 791 1039 773 1064 q 822 991 809 1015 q 851 935 836 966 q 877 887 867 903 q 954 787 904 844 q 965 773 956 784 q 980 757 974 763 q 996 740 985 751 q 1014 723 1006 729 q 1032 709 1022 716 q 1050 698 1041 701 q 1066 694 1059 694 l 1290 694 q 1360 665 1331 694 q 1389 595 1389 636 z "},"":{"ha":1190,"x_min":0,"x_max":1190,"o":"m 977 -84 q 985 -77 977 -84 q 992 -50 992 -70 q 977 -15 992 -29 q 942 0 963 0 q 908 -15 922 0 q 893 -50 893 -29 q 908 -84 893 -70 q 942 -99 922 -99 q 977 -84 963 -99 m 1091 543 q 962 689 1091 689 q 918 685 942 689 q 878 722 906 708 q 821 736 849 736 q 767 722 792 736 q 675 763 729 763 q 632 755 656 763 q 595 736 608 747 l 595 992 q 566 1062 595 1032 q 496 1091 536 1091 q 427 1061 457 1091 q 397 992 397 1031 l 397 546 q 359 557 381 546 q 317 583 337 569 q 264 608 296 597 q 198 620 232 620 q 123 586 146 620 q 99 496 99 551 q 207 426 99 477 q 257 398 241 408 q 370 311 307 367 q 452 233 432 256 q 496 124 496 179 l 496 99 l 992 99 l 992 124 q 1017 253 992 180 q 1066 403 1042 327 q 1091 543 1091 480 m 1190 546 q 1137 297 1190 443 q 1091 124 1091 170 l 1091 -99 q 1062 -169 1091 -140 q 992 -198 1033 -198 l 496 -198 q 426 -169 455 -198 q 397 -99 397 -140 l 397 124 q 393 141 397 132 q 382 159 390 150 q 369 176 375 168 q 351 195 362 184 q 334 211 340 205 q 318 226 329 216 q 305 236 307 235 q 205 314 247 287 q 157 339 188 324 q 101 368 125 355 q 52 400 77 381 q 14 442 27 418 q 0 496 0 467 q 52 656 0 593 q 198 719 104 719 q 298 702 251 719 l 298 992 q 357 1132 298 1073 q 495 1190 415 1190 q 636 1132 577 1190 q 694 992 694 1073 l 694 861 q 787 832 742 858 q 820 835 803 835 q 958 788 898 835 q 1128 722 1066 789 q 1190 546 1190 656 z "},"":{"ha":1190,"x_min":0,"x_max":1190,"o":"m 1091 446 q 1066 588 1091 512 q 1017 739 1042 665 q 992 868 992 812 l 992 893 l 496 893 l 496 868 q 487 816 496 841 q 458 767 477 791 q 422 729 439 744 q 381 691 406 713 q 370 681 374 684 q 257 594 307 625 q 205 565 240 584 q 187 557 202 564 q 159 543 172 550 q 132 527 146 536 q 108 510 117 519 q 99 496 99 502 q 123 407 99 441 q 198 372 146 372 q 264 384 232 372 q 317 409 296 395 q 359 435 337 423 q 397 446 381 446 l 397 0 q 427 -69 397 -39 q 496 -99 457 -99 q 566 -70 536 -99 q 595 0 595 -40 l 595 257 q 675 229 631 229 q 767 270 729 229 q 821 257 792 257 q 878 270 849 257 q 918 307 906 284 q 962 304 937 304 q 1059 341 1028 304 q 1091 446 1091 379 m 977 1007 q 985 1014 977 1007 q 992 1042 992 1022 q 977 1077 992 1062 q 942 1091 963 1091 q 908 1077 922 1091 q 893 1042 893 1062 q 908 1007 893 1022 q 942 992 922 992 q 977 1007 963 992 m 1190 450 q 1130 271 1190 339 q 962 204 1070 203 l 958 205 q 820 157 899 157 q 787 160 803 157 q 694 131 745 136 l 694 0 q 636 -140 694 -81 q 495 -198 577 -198 q 357 -140 415 -198 q 298 0 298 -81 l 298 290 q 198 273 256 273 q 52 336 105 273 q 0 496 0 399 q 14 550 0 525 q 52 593 27 574 q 101 624 77 611 q 157 653 125 637 q 205 678 188 668 q 305 756 247 705 q 318 767 307 757 q 334 781 329 776 q 351 797 340 787 q 369 816 362 808 q 382 833 375 824 q 393 851 390 842 q 397 868 397 860 l 397 1091 q 426 1161 397 1132 q 496 1190 455 1190 l 992 1190 q 1062 1161 1033 1190 q 1091 1091 1091 1132 l 1091 868 q 1137 695 1091 822 q 1190 450 1190 548 z "},"":{"ha":1190,"x_min":0,"x_max":1190,"o":"m 992 446 l 992 546 q 977 581 992 566 q 942 595 963 595 l 553 595 l 700 742 q 715 777 715 756 q 700 811 715 797 l 629 882 q 594 896 615 896 q 560 882 574 896 l 279 601 l 208 531 q 195 496 195 517 q 208 461 195 475 l 279 391 l 560 110 q 594 96 574 96 q 629 110 615 96 l 700 181 q 714 215 714 195 q 700 250 714 236 l 553 397 l 942 397 q 977 412 963 397 q 992 446 992 426 m 1111 795 q 1151 726 1111 795 q 1190 496 1190 658 q 1111 197 1190 334 q 894 -19 1031 60 q 595 -99 757 -99 q 296 -19 433 -99 q 80 197 160 60 q 0 496 0 334 q 80 795 0 658 q 296 1011 160 932 q 595 1091 433 1091 q 894 1011 757 1091 q 1111 795 1031 932 z "},"":{"ha":1190,"x_min":0,"x_max":1190,"o":"m 982 461 q 996 496 996 475 q 982 531 996 517 l 911 601 l 631 882 q 596 896 617 896 q 561 882 575 896 l 491 811 q 477 777 477 798 q 491 742 477 756 l 637 595 l 248 595 q 213 581 228 595 q 198 546 198 566 l 198 446 q 213 412 198 426 q 248 397 228 397 l 637 397 l 491 250 q 476 215 476 236 q 491 181 476 195 l 561 110 q 596 96 575 96 q 631 110 617 96 l 911 391 l 982 461 m 1111 795 q 1151 726 1111 795 q 1190 496 1190 658 q 1111 197 1190 334 q 894 -19 1031 60 q 595 -99 757 -99 q 296 -19 433 -99 q 80 197 160 60 q 0 496 0 334 q 80 795 0 658 q 296 1011 160 932 q 595 1091 433 1091 q 894 1011 757 1091 q 1111 795 1031 932 z "},"":{"ha":1190,"x_min":0,"x_max":1190,"o":"m 981 462 q 995 497 995 476 q 981 532 995 518 l 701 812 l 630 883 q 595 897 616 897 q 560 883 574 897 l 490 812 l 209 532 q 195 497 195 518 q 209 462 195 476 l 280 391 q 315 377 294 377 q 350 391 336 377 l 496 538 l 496 149 q 511 114 496 129 q 546 99 525 99 l 645 99 q 680 114 665 99 q 694 149 694 129 l 694 538 l 841 391 q 876 377 856 377 q 911 391 896 377 l 981 462 m 1111 795 q 1151 726 1111 795 q 1190 496 1190 658 q 1111 197 1190 334 q 894 -19 1031 60 q 595 -99 757 -99 q 296 -19 433 -99 q 80 197 160 60 q 0 496 0 334 q 80 795 0 658 q 296 1011 160 932 q 595 1091 433 1091 q 894 1011 757 1091 q 1111 795 1031 932 z "},"":{"ha":1190,"x_min":0,"x_max":1190,"o":"m 981 460 q 995 495 995 474 q 981 530 995 516 l 911 601 q 876 615 897 615 q 841 601 855 615 l 694 454 l 694 843 q 680 878 694 863 q 645 893 665 893 l 546 893 q 511 878 525 893 q 496 843 496 863 l 496 454 l 350 601 q 315 615 335 615 q 280 601 295 615 l 209 530 q 195 495 195 516 q 209 460 195 474 l 490 180 l 560 109 q 595 95 574 95 q 630 109 616 95 l 701 180 l 981 460 m 1111 795 q 1151 726 1111 795 q 1190 496 1190 658 q 1111 197 1190 334 q 894 -19 1031 60 q 595 -99 757 -99 q 296 -19 433 -99 q 80 197 160 60 q 0 496 0 334 q 80 795 0 658 q 296 1011 160 932 q 595 1091 433 1091 q 894 1011 757 1091 q 1111 795 1031 932 z "},"":{"ha":1190,"x_min":0,"x_max":1190,"o":"m 296 1011 q 365 1051 296 1011 q 595 1091 433 1091 q 894 1011 757 1091 q 1111 795 1031 932 q 1190 496 1190 658 q 1111 197 1190 334 q 894 -19 1031 60 q 595 -99 757 -99 q 296 -19 433 -99 q 80 197 160 60 q 0 496 0 334 q 80 795 0 658 q 296 1011 160 932 m 808 687 q 800 680 806 687 q 790 673 794 674 q 793 677 791 673 q 797 685 795 680 q 800 691 799 690 q 817 702 805 696 q 857 711 828 707 q 897 703 884 718 q 904 713 895 705 q 915 722 913 722 q 927 726 918 724 q 939 732 936 728 l 940 749 q 927 754 931 748 q 922 770 922 760 q 917 764 922 769 q 913 770 917 770 q 904 770 910 771 q 898 769 899 768 q 886 775 890 771 q 880 787 882 778 q 877 799 877 797 q 869 807 875 803 q 862 815 863 811 q 860 820 861 817 q 858 825 859 822 q 854 829 856 827 q 850 831 853 831 q 845 827 848 831 q 839 819 842 823 q 836 815 836 815 q 831 817 833 817 q 827 816 829 816 q 824 813 826 815 q 820 811 822 811 q 813 808 818 809 q 807 807 809 808 q 806 815 818 811 q 794 818 798 818 q 799 827 801 821 q 793 838 798 833 l 797 838 q 790 844 796 841 q 777 851 784 848 q 767 856 769 854 q 740 863 760 860 q 715 863 720 867 q 711 855 711 859 q 714 844 711 852 q 717 835 717 837 q 713 825 718 830 q 708 815 708 819 q 718 803 708 810 q 726 787 729 797 q 714 774 724 780 q 701 765 704 768 q 700 751 698 759 q 708 738 703 742 q 710 735 710 736 q 707 731 709 733 q 703 728 705 729 q 698 725 701 727 l 695 724 q 679 729 687 720 q 669 749 672 737 q 656 772 663 768 q 634 771 639 778 q 602 791 630 781 q 557 794 583 798 q 557 806 562 795 q 543 815 552 818 q 546 829 545 820 q 546 839 546 838 q 556 857 549 849 q 561 864 556 858 q 568 874 566 870 q 569 879 571 879 q 608 887 596 876 q 617 901 612 891 q 625 914 622 910 q 636 918 632 918 q 647 914 639 918 q 658 910 654 910 q 670 918 669 909 q 664 934 671 928 q 667 947 674 933 q 660 954 663 953 q 639 950 651 957 q 641 944 633 947 q 634 936 640 945 q 621 922 627 927 q 608 926 615 918 q 604 937 608 927 q 597 947 601 946 q 584 935 591 947 q 576 947 587 942 q 557 953 565 953 q 551 974 572 963 q 535 978 546 977 q 520 975 525 979 q 516 966 516 970 q 520 960 515 963 q 528 956 524 957 q 537 953 532 954 q 543 950 542 951 q 550 939 554 942 q 543 937 548 939 q 534 933 538 935 q 529 930 530 932 q 529 919 527 927 q 528 908 532 911 q 521 922 524 912 q 515 935 518 932 q 496 930 521 928 l 488 931 q 476 929 485 931 q 460 929 467 928 q 450 935 453 929 q 450 950 446 941 q 453 952 450 953 q 444 959 450 954 q 436 966 439 964 q 363 934 401 954 q 373 935 368 933 q 383 940 377 936 q 391 944 389 943 q 423 949 417 955 l 427 953 q 443 934 438 941 q 419 935 437 937 q 402 925 404 930 q 406 911 408 916 q 397 919 403 914 q 386 928 391 925 q 374 932 381 931 q 357 931 362 932 q 175 759 244 869 q 184 753 181 753 q 188 746 188 752 q 190 737 189 739 q 199 739 191 735 q 202 725 206 733 q 236 704 202 725 q 252 687 250 691 q 244 674 254 679 q 237 680 243 675 q 230 684 231 686 q 231 669 228 680 q 239 660 233 659 q 231 647 233 660 q 229 620 229 635 q 229 601 229 605 l 230 601 q 234 574 228 591 q 251 559 241 556 q 267 525 241 556 q 273 519 271 519 q 282 513 275 517 q 294 505 289 508 q 301 497 298 501 q 309 479 305 493 q 320 461 314 466 q 327 446 319 457 q 336 428 336 435 q 334 427 335 428 q 332 426 332 426 q 344 415 334 421 q 356 405 353 410 q 357 398 357 403 q 360 389 358 392 q 366 388 361 386 q 347 436 367 403 q 334 458 336 455 q 330 470 332 462 q 326 481 328 478 q 331 480 328 481 q 338 477 334 479 q 343 474 341 476 q 345 472 346 473 q 346 458 343 467 q 356 444 350 450 q 369 429 361 438 q 378 419 377 421 q 389 404 383 415 q 389 394 395 394 q 405 386 396 394 q 418 370 413 378 q 424 350 422 364 q 428 332 426 336 q 434 321 429 326 q 444 314 439 316 q 457 308 449 312 q 467 302 464 304 q 481 294 470 301 q 498 285 491 288 q 510 282 505 282 q 521 284 515 282 q 532 287 528 286 q 554 275 543 288 q 570 259 565 262 q 613 250 598 244 q 613 245 612 250 q 620 233 615 239 q 627 221 624 226 q 631 215 629 217 q 645 203 635 210 q 659 191 655 196 q 664 198 663 195 q 670 183 662 192 q 684 175 677 174 q 694 200 694 177 q 656 214 670 188 q 655 218 656 215 q 651 225 653 222 q 649 231 650 228 q 649 237 649 235 q 653 239 650 239 q 661 242 660 239 q 660 252 662 245 q 656 262 657 259 q 648 277 656 268 q 639 289 640 287 q 626 283 635 282 q 614 290 618 284 q 613 286 614 289 q 612 281 612 282 q 600 281 601 281 q 602 295 601 284 q 605 312 603 306 q 609 322 605 315 q 615 333 612 328 q 618 343 617 338 q 614 350 618 347 q 601 352 610 353 q 581 336 586 351 q 578 328 580 334 q 574 319 577 322 q 567 314 572 316 q 549 312 562 312 q 530 316 536 313 q 513 339 520 322 q 505 367 505 355 q 507 388 505 375 q 510 407 509 401 q 505 426 510 414 q 512 434 508 428 q 520 442 517 439 q 524 443 522 443 q 527 443 525 443 q 530 444 529 443 q 532 449 532 446 q 529 451 532 450 q 526 453 527 453 q 548 455 532 451 q 570 453 565 458 q 587 455 581 445 q 585 462 587 456 q 584 473 583 469 q 607 466 588 452 q 619 462 609 463 q 632 458 629 460 q 638 454 635 457 q 642 450 641 451 q 646 451 643 450 q 653 456 649 452 q 662 437 660 445 q 677 403 670 406 q 685 401 682 401 q 689 409 688 402 q 689 420 689 415 q 687 429 688 424 l 687 436 q 687 450 687 443 l 686 456 q 672 465 674 458 q 673 479 669 472 q 684 494 677 487 q 691 496 685 494 q 703 501 696 498 q 712 508 709 505 q 724 535 729 522 q 732 542 729 535 q 729 544 732 542 q 723 548 725 546 q 719 550 720 550 q 721 562 726 553 q 727 570 725 564 q 732 578 729 577 q 749 577 739 569 q 749 589 754 583 q 765 597 753 594 q 780 605 777 600 q 786 606 785 603 q 787 615 787 609 q 789 625 787 622 q 801 632 792 629 q 811 636 809 635 l 824 644 q 824 647 826 647 q 848 656 838 646 q 843 671 856 664 q 841 679 846 676 q 829 683 836 681 q 838 683 832 684 q 846 684 845 683 q 841 697 858 692 q 808 687 828 701 m 681 8 q 953 154 841 36 q 944 158 951 157 q 934 160 936 159 q 915 167 920 166 q 913 177 916 172 q 907 184 911 181 q 898 190 904 186 q 889 195 891 194 q 884 200 887 197 q 878 204 880 203 q 872 208 877 205 q 866 209 868 210 q 858 208 863 208 l 856 208 q 851 206 853 207 q 847 203 849 205 q 844 201 845 202 q 844 199 843 200 q 816 216 828 212 q 808 221 812 217 q 799 226 803 224 q 792 227 796 228 q 783 222 787 226 q 778 210 779 218 q 777 200 777 202 q 777 214 771 204 q 778 228 782 223 q 770 231 776 233 q 761 228 764 230 q 752 221 757 226 q 745 216 746 217 q 738 212 743 215 q 732 206 733 208 q 727 197 729 203 q 723 188 725 191 q 714 193 722 191 q 707 198 707 195 q 710 171 708 190 q 714 141 711 151 q 705 104 719 117 q 682 73 684 84 q 691 53 679 56 q 685 37 691 47 q 680 20 679 26 q 681 8 680 16 z "},"":{"ha":1290,"x_min":16,"x_max":1288,"o":"m 283 15 q 290 22 283 15 q 298 50 298 29 q 283 84 298 70 q 248 99 268 99 q 213 84 228 99 q 198 50 198 70 q 213 15 198 29 q 248 0 228 0 q 283 15 268 0 m 797 375 l 268 -153 q 198 -182 239 -182 q 128 -153 158 -182 l 46 -70 q 16 0 16 -42 q 46 71 16 41 l 574 598 q 662 464 604 522 q 797 375 721 405 m 1288 712 q 1270 630 1288 682 q 1143 462 1234 526 q 942 397 1052 397 q 697 499 799 397 q 595 744 595 601 q 697 989 595 887 q 942 1091 799 1091 q 1037 1078 987 1091 q 1120 1042 1086 1066 q 1132 1021 1132 1034 q 1120 999 1132 1008 l 893 868 l 893 694 l 1042 612 q 1104 649 1046 614 q 1209 712 1161 684 q 1263 739 1256 739 q 1282 732 1275 739 q 1288 712 1288 724 z "},"":{"ha":1389,"x_min":0,"x_max":1389,"o":"m 794 99 l 1290 99 l 1290 198 l 794 198 l 794 99 m 496 496 l 1290 496 l 1290 595 l 496 595 l 496 496 m 992 893 l 1290 893 l 1290 992 l 992 992 l 992 893 m 1389 248 l 1389 50 q 1374 15 1389 29 q 1339 0 1359 0 l 50 0 q 15 15 29 0 q 0 50 0 29 l 0 248 q 15 283 0 268 q 50 298 29 298 l 1339 298 q 1374 283 1359 298 q 1389 248 1389 268 m 1389 645 l 1389 446 q 1374 412 1389 426 q 1339 397 1359 397 l 50 397 q 15 412 29 397 q 0 446 0 426 l 0 645 q 15 680 0 665 q 50 694 29 694 l 1339 694 q 1374 680 1359 694 q 1389 645 1389 665 m 1389 1042 l 1389 843 q 1374 808 1389 823 q 1339 794 1359 794 l 50 794 q 15 808 29 794 q 0 843 0 823 l 0 1042 q 15 1077 0 1062 q 50 1091 29 1091 l 1339 1091 q 1374 1077 1359 1091 q 1389 1042 1389 1062 z "},"":{"ha":1091,"x_min":4,"x_max":1087,"o":"m 1087 962 q 1077 908 1101 930 l 694 525 l 694 -50 q 664 -95 694 -82 q 645 -99 654 -99 q 610 -84 624 -99 l 412 114 q 397 149 397 129 l 397 525 l 15 908 q 4 962 -9 930 q 50 992 17 992 l 1042 992 q 1087 962 1074 992 z "},"":{"ha":1389,"x_min":0,"x_max":1389,"o":"m 496 992 l 893 992 l 893 1091 l 496 1091 l 496 992 m 1389 496 l 1389 124 q 1352 36 1389 73 q 1265 0 1316 0 l 124 0 q 36 36 73 0 q 0 124 0 73 l 0 496 l 521 496 l 521 372 q 536 337 521 352 q 570 322 550 322 l 818 322 q 853 337 839 322 q 868 372 868 352 l 868 496 l 1389 496 m 794 496 l 794 397 l 595 397 l 595 496 l 794 496 m 1389 868 l 1389 570 l 0 570 l 0 868 q 36 956 0 919 q 124 992 73 992 l 397 992 l 397 1116 q 419 1169 397 1147 q 471 1190 440 1190 l 918 1190 q 970 1169 949 1190 q 992 1116 992 1147 l 992 992 l 1265 992 q 1352 956 1316 992 q 1389 868 1389 919 z "},"":{"ha":1190,"x_min":0,"x_max":1190,"o":"m 994 771 l 719 496 l 994 221 l 1106 332 q 1160 343 1128 357 q 1190 298 1190 330 l 1190 -50 q 1176 -84 1190 -70 q 1141 -99 1161 -99 l 794 -99 q 748 -68 761 -99 q 759 -15 735 -38 l 870 97 l 595 372 l 320 97 l 432 -15 q 443 -68 456 -38 q 397 -99 429 -99 l 50 -99 q 15 -84 29 -99 q 0 -50 0 -70 l 0 298 q 31 343 0 330 q 84 332 61 357 l 196 221 l 471 496 l 196 771 l 84 660 q 50 645 70 645 q 31 649 40 645 q 0 694 0 662 l 0 1042 q 15 1077 0 1062 q 50 1091 29 1091 l 397 1091 q 443 1060 429 1091 q 432 1007 456 1030 l 320 895 l 595 620 l 870 895 l 759 1007 q 748 1060 735 1030 q 794 1091 761 1091 l 1141 1091 q 1176 1077 1161 1091 q 1190 1042 1190 1062 l 1190 694 q 1160 649 1190 662 q 1141 645 1150 645 q 1106 660 1121 645 l 994 771 z "},"":{"ha":1488,"x_min":0,"x_max":1488,"o":"m 460 496 q 254 397 334 492 l 150 397 q 43 428 87 397 q 0 520 0 460 q 96 794 0 794 q 130 777 101 794 q 205 744 159 761 q 298 728 252 728 q 401 746 350 728 q 397 694 397 717 q 460 496 397 587 m 1290 2 q 1233 -145 1290 -91 q 1083 -198 1177 -198 l 405 -198 q 255 -145 312 -198 q 198 2 198 -91 q 201 83 198 43 q 212 167 204 122 q 233 251 220 212 q 266 327 245 290 q 314 389 287 363 q 380 431 341 415 q 467 446 419 446 q 500 430 474 446 q 556 393 525 413 q 639 355 587 372 q 744 339 691 339 q 849 355 797 339 q 932 393 901 372 q 988 430 963 413 q 1022 446 1014 446 q 1108 431 1069 446 q 1174 389 1147 415 q 1222 327 1201 363 q 1256 251 1243 290 q 1276 167 1268 212 q 1287 83 1284 122 q 1290 2 1290 43 m 438 1132 q 467 1103 438 1132 q 496 992 496 1074 q 438 852 496 910 q 298 794 380 794 q 157 852 215 794 q 99 992 99 910 q 157 1132 99 1074 q 298 1190 215 1190 q 438 1132 380 1190 m 954 905 q 998 861 954 905 q 1042 694 1042 818 q 954 484 1042 571 q 744 397 867 397 q 534 484 621 397 q 446 694 446 571 q 534 905 446 818 q 744 992 621 992 q 954 905 867 992 m 1488 520 q 1445 428 1488 460 q 1338 397 1401 397 l 1234 397 q 1028 496 1154 492 q 1091 694 1091 587 q 1087 746 1091 717 q 1190 728 1139 728 q 1283 744 1236 728 q 1358 777 1329 761 q 1392 794 1387 794 q 1488 520 1488 794 m 1331 1132 q 1360 1103 1331 1132 q 1389 992 1389 1074 q 1331 852 1389 910 q 1190 794 1273 794 q 1050 852 1108 794 q 992 992 992 910 q 1050 1132 992 1074 q 1190 1190 1108 1190 q 1331 1132 1273 1190 z "},"":{"ha":1290,"x_min":12,"x_max":1277,"o":"m 1128 248 q 1107 301 1128 279 l 946 462 q 893 484 924 484 q 837 459 860 484 q 852 444 839 457 q 868 428 864 432 q 880 413 873 423 q 890 393 887 403 q 893 372 893 384 q 871 319 893 341 q 818 298 849 298 q 797 300 807 298 q 777 310 787 303 q 763 322 767 318 q 746 339 758 326 q 732 353 734 351 q 706 297 706 329 q 728 244 706 266 l 887 84 q 940 63 908 63 q 993 83 971 63 l 1107 196 q 1128 248 1128 218 m 584 794 q 562 847 584 825 l 402 1008 q 350 1029 381 1029 q 297 1008 319 1029 l 183 895 q 161 843 161 873 q 183 791 161 812 l 344 629 q 397 608 365 608 q 453 632 429 608 q 438 647 450 635 q 421 663 426 659 q 410 678 417 668 q 400 698 402 688 q 397 719 397 708 q 419 772 397 750 q 471 794 440 794 q 493 791 483 794 q 512 781 502 788 q 527 769 522 773 q 544 753 532 765 q 558 738 556 740 q 584 794 584 762 m 1212 406 q 1277 248 1277 341 q 1211 91 1277 155 l 1097 -22 q 940 -87 1033 -87 q 782 -21 846 -87 l 622 140 q 558 297 558 204 q 626 459 558 392 l 558 527 q 397 459 491 459 q 239 524 304 459 l 78 685 q 12 843 12 750 q 78 1001 12 936 l 192 1114 q 350 1178 257 1178 q 508 1112 443 1178 l 667 952 q 732 794 732 887 q 663 632 732 699 l 732 564 q 893 632 798 632 q 1051 567 986 632 l 1212 406 z "},"":{"ha":1488,"x_min":0,"x_max":1488,"o":"m 1488 298 q 1401 87 1488 174 q 1190 0 1314 0 l 347 0 q 102 102 204 0 q 0 347 0 204 q 55 534 0 450 q 200 661 110 619 q 198 694 198 683 q 315 975 198 859 q 595 1091 431 1091 q 817 1023 718 1091 q 963 845 917 955 q 1091 893 1017 893 q 1232 835 1173 893 q 1290 694 1290 777 q 1258 587 1290 636 q 1423 483 1358 564 q 1488 298 1488 402 z "},"":{"ha":1290,"x_min":89,"x_max":1201,"o":"m 1184 68 q 1200 -50 1227 -1 q 1091 -99 1173 -99 l 198 -99 q 90 -50 116 -99 q 106 68 63 -1 l 496 683 l 496 992 l 446 992 q 412 1007 426 992 q 397 1042 397 1022 q 412 1077 397 1062 q 446 1091 426 1091 l 843 1091 q 878 1077 863 1091 q 893 1042 893 1062 q 878 1007 893 1022 q 843 992 863 992 l 794 992 l 794 683 l 1184 68 m 580 630 l 369 298 l 921 298 l 710 630 l 694 654 l 694 683 l 694 992 l 595 992 l 595 683 l 595 654 l 580 630 z "},"":{"ha":1389,"x_min":1,"x_max":1389,"o":"m 709 481 q 717 489 709 481 q 744 496 724 496 q 779 481 764 496 q 794 446 794 467 q 779 412 794 426 q 744 397 764 397 q 709 412 724 397 q 694 446 694 426 q 709 481 694 467 m 977 446 l 1370 138 q 1389 95 1391 122 q 1362 55 1385 67 l 1263 5 q 1240 0 1252 0 q 1216 6 1227 0 l 681 306 l 596 255 q 587 251 590 252 q 594 176 598 213 q 551 62 589 116 q 449 -34 513 7 q 234 -99 346 -99 q 62 -39 129 -99 q 1 122 -8 26 q 44 236 6 181 q 146 332 82 291 q 361 397 248 397 q 478 373 426 397 q 495 390 485 383 l 590 446 l 495 503 q 478 520 485 510 q 361 496 426 496 q 146 561 248 496 q 44 657 82 602 q 1 771 6 712 q 13 859 -3 817 q 62 931 29 901 q 234 992 128 992 q 449 927 346 992 q 551 832 513 887 q 594 717 589 777 q 587 642 598 680 q 596 638 590 641 l 681 587 l 1216 887 q 1240 893 1227 893 q 1263 887 1252 893 l 1362 838 q 1389 798 1385 825 q 1370 755 1391 770 l 977 446 m 449 648 q 465 732 484 680 q 383 822 446 783 q 234 868 312 868 q 146 840 177 868 q 130 756 111 808 q 212 666 150 705 q 361 620 284 620 q 449 648 419 620 m 383 71 q 465 161 446 110 q 449 245 484 212 q 361 273 419 273 q 212 227 284 273 q 130 136 150 188 q 146 53 111 85 q 234 25 177 25 q 383 71 312 25 m 521 546 l 595 501 l 595 509 q 621 553 595 537 l 632 559 l 570 595 l 550 575 q 543 567 548 573 q 533 557 537 560 q 530 555 532 556 q 528 553 529 553 l 521 546 m 694 372 l 769 347 l 1339 794 l 1240 843 l 645 509 l 645 422 l 521 347 l 528 341 q 533 336 529 339 q 542 327 536 333 q 550 318 547 321 l 570 298 l 694 372 m 1240 50 l 1339 99 l 936 415 l 799 308 q 789 303 798 306 l 1240 50 z "},"":{"ha":1389,"x_min":0,"x_max":1389,"o":"m 1314 893 q 1367 871 1345 893 q 1389 818 1389 849 l 1389 -124 q 1367 -177 1389 -155 q 1314 -198 1345 -198 l 570 -198 q 518 -177 539 -198 q 496 -124 496 -155 l 496 99 l 74 99 q 22 121 43 99 q 0 174 0 143 l 0 694 q 16 763 0 725 q 53 822 31 800 l 369 1138 q 428 1175 391 1159 q 496 1190 465 1190 l 818 1190 q 871 1169 849 1190 q 893 1116 893 1147 l 893 862 q 992 893 946 893 l 1314 893 m 893 728 l 661 496 l 893 496 l 893 728 m 397 1025 l 165 794 l 397 794 l 397 1025 m 549 524 l 794 769 l 794 1091 l 496 1091 l 496 769 q 474 716 496 738 q 422 694 453 694 l 99 694 l 99 198 l 496 198 l 496 397 q 512 465 496 428 q 549 524 527 502 m 1290 -99 l 1290 794 l 992 794 l 992 471 q 970 419 992 440 q 918 397 949 397 l 595 397 l 595 -99 l 1290 -99 z "},"":{"ha":1091,"x_min":3,"x_max":1088,"o":"m 1088 117 q 1027 -35 1088 26 q 875 -96 966 -96 q 693 -19 770 -96 l 91 583 q 3 793 3 672 q 88 1002 3 916 q 297 1088 174 1088 q 508 1001 419 1088 l 977 531 q 985 514 985 523 q 961 478 985 501 q 925 454 938 454 q 908 462 915 454 l 438 932 q 298 992 377 992 q 159 934 215 992 q 102 794 102 876 q 161 653 102 712 l 763 51 q 875 2 811 2 q 957 35 925 2 q 990 117 990 67 q 941 229 990 181 l 491 680 q 444 698 470 698 q 407 684 422 698 q 392 646 392 669 q 412 601 392 622 l 729 283 q 737 266 737 275 q 713 229 737 253 q 677 205 689 205 q 660 213 667 205 l 342 531 q 293 646 293 578 q 337 754 293 710 q 445 798 381 798 q 560 749 513 798 l 1011 299 q 1088 117 1088 223 z "},"":{"ha":1190,"x_min":0,"x_max":1190,"o":"m 298 0 l 893 0 l 893 298 l 298 298 l 298 0 m 992 0 l 1091 0 l 1091 694 q 1084 724 1091 705 q 1068 751 1076 743 l 850 969 q 824 984 842 977 q 794 992 805 992 l 794 670 q 772 617 794 639 q 719 595 750 595 l 273 595 q 220 617 242 595 q 198 670 198 639 l 198 992 l 99 992 l 99 0 l 198 0 l 198 322 q 220 375 198 353 q 273 397 242 397 l 918 397 q 970 375 949 397 q 992 322 992 353 l 992 0 m 694 719 l 694 967 q 687 985 694 977 q 670 992 680 992 l 521 992 q 503 985 511 992 q 496 967 496 977 l 496 719 q 503 702 496 709 q 521 694 511 694 l 670 694 q 687 702 680 694 q 694 719 694 709 m 1190 694 l 1190 -25 q 1169 -78 1190 -56 q 1116 -99 1147 -99 l 74 -99 q 22 -78 43 -99 q 0 -25 0 -56 l 0 1017 q 22 1070 0 1048 q 74 1091 43 1091 l 794 1091 q 862 1076 825 1091 q 921 1039 899 1060 l 1138 822 q 1175 763 1159 800 q 1190 694 1190 725 z "},"":{"ha":1190,"x_min":0,"x_max":1190,"o":"m 1190 868 l 1190 124 q 1125 -34 1190 32 q 967 -99 1059 -99 l 223 -99 q 65 -34 131 -99 q 0 124 0 32 l 0 868 q 65 1026 0 960 q 223 1091 131 1091 l 967 1091 q 1125 1026 1059 1091 q 1190 868 1190 960 z "},"":{"ha":1190,"x_min":0,"x_max":1190,"o":"m 1190 149 l 1190 50 q 1176 15 1190 29 q 1141 0 1161 0 l 50 0 q 15 15 29 0 q 0 50 0 29 l 0 149 q 15 184 0 169 q 50 198 29 198 l 1141 198 q 1176 184 1161 198 q 1190 149 1190 169 m 1190 546 l 1190 446 q 1176 412 1190 426 q 1141 397 1161 397 l 50 397 q 15 412 29 397 q 0 446 0 426 l 0 546 q 15 581 0 566 q 50 595 29 595 l 1141 595 q 1176 581 1161 595 q 1190 546 1190 566 m 1190 942 l 1190 843 q 1176 808 1190 823 q 1141 794 1161 794 l 50 794 q 15 808 29 794 q 0 843 0 823 l 0 942 q 15 977 0 963 q 50 992 29 992 l 1141 992 q 1176 977 1161 992 q 1190 942 1190 963 z "},"":{"ha":1389,"x_min":0,"x_max":1389,"o":"m 254 205 q 276 183 254 205 q 298 99 298 161 q 254 -6 298 37 q 149 -50 211 -50 q 43 -6 87 -50 q 0 99 0 37 q 43 205 0 161 q 149 248 87 248 q 254 205 211 248 m 254 601 q 276 580 254 601 q 298 496 298 558 q 254 391 298 434 q 149 347 211 347 q 43 391 87 347 q 0 496 0 434 q 43 601 0 558 q 149 645 87 645 q 254 601 211 645 m 1389 174 l 1389 25 q 1382 7 1389 15 q 1364 0 1374 0 l 422 0 q 404 7 412 0 q 397 25 397 15 l 397 174 q 404 191 397 184 q 422 198 412 198 l 1364 198 q 1382 191 1374 198 q 1389 174 1389 184 m 254 998 q 276 977 254 998 q 298 893 298 955 q 254 787 298 831 q 149 744 211 744 q 43 787 87 744 q 0 893 0 831 q 43 998 0 955 q 149 1042 87 1042 q 254 998 211 1042 m 1389 570 l 1389 422 q 1382 404 1389 412 q 1364 397 1374 397 l 422 397 q 404 404 412 397 q 397 422 397 412 l 397 570 q 404 588 397 581 q 422 595 412 595 l 1364 595 q 1382 588 1374 595 q 1389 570 1389 581 m 1389 967 l 1389 818 q 1382 801 1389 808 q 1364 794 1374 794 l 422 794 q 404 801 412 794 q 397 818 397 808 l 397 967 q 404 985 397 977 q 422 992 412 992 l 1364 992 q 1382 985 1374 992 q 1389 967 1389 977 z "},"":{"ha":1389,"x_min":12,"x_max":1389,"o":"m 295 -65 q 253 -163 295 -127 q 148 -198 211 -198 q 15 -147 66 -198 l 59 -79 q 141 -114 97 -114 q 180 -103 164 -114 q 197 -70 197 -91 q 115 -26 197 -20 l 95 17 q 121 51 102 25 q 153 93 140 77 q 182 122 167 109 l 182 123 q 145 122 170 123 q 107 122 119 122 l 107 81 l 25 81 l 25 198 l 283 198 l 283 130 l 209 41 q 272 3 249 32 q 295 -65 295 -26 m 297 421 l 297 298 l 16 298 q 12 339 12 326 q 30 412 12 379 q 74 464 48 444 q 125 501 99 484 q 169 535 150 518 q 187 570 187 552 q 176 600 187 589 q 145 610 164 610 q 82 565 109 610 l 16 611 q 72 672 35 650 q 153 694 109 694 q 249 662 210 694 q 288 575 288 630 q 261 504 288 536 q 203 454 235 472 q 145 415 171 436 q 117 374 118 394 l 215 374 l 215 421 l 297 421 m 1389 174 l 1389 25 q 1382 7 1389 15 q 1364 0 1374 0 l 422 0 q 404 7 412 0 q 397 25 397 15 l 397 174 q 404 191 397 184 q 422 198 411 198 l 1364 198 q 1382 191 1374 198 q 1389 174 1389 184 m 298 870 l 298 794 l 38 794 l 38 870 l 121 870 q 121 965 121 902 q 122 1059 122 1028 l 122 1068 l 120 1068 q 81 1026 114 1055 l 26 1085 l 132 1184 l 214 1184 l 214 870 l 298 870 m 1389 570 l 1389 422 q 1382 404 1389 412 q 1364 397 1374 397 l 422 397 q 404 404 412 397 q 397 422 397 412 l 397 570 q 404 588 397 581 q 422 595 411 595 l 1364 595 q 1382 588 1374 595 q 1389 570 1389 581 m 1389 967 l 1389 818 q 1382 801 1389 808 q 1364 794 1374 794 l 422 794 q 404 801 412 794 q 397 818 397 808 l 397 967 q 404 985 397 977 q 422 992 412 992 l 1364 992 q 1382 985 1374 992 q 1389 967 1389 977 z "},"":{"ha":1389,"x_min":0,"x_max":1389,"o":"m 1364 496 q 1382 489 1375 496 q 1389 471 1389 482 l 1389 422 q 1382 404 1389 411 q 1364 397 1375 397 l 25 397 q 7 404 14 397 q 0 422 0 411 l 0 471 q 7 489 0 482 q 25 496 14 496 l 1364 496 m 374 546 q 335 608 353 573 q 298 753 298 683 q 401 993 298 894 q 706 1091 505 1091 q 836 1077 745 1091 q 973 1039 887 1067 q 989 948 980 1010 q 1000 806 1000 853 q 996 771 1000 792 l 987 769 l 922 773 l 911 775 q 831 934 872 891 q 668 1004 763 1004 q 527 959 580 1004 q 475 846 475 914 q 526 737 475 789 q 742 637 577 685 q 877 586 796 622 q 950 546 922 564 l 374 546 m 767 347 l 1086 347 q 1091 276 1091 317 q 1059 112 1091 190 q 1004 31 1042 69 q 920 -32 976 4 q 801 -83 858 -69 q 644 -99 739 -99 q 493 -81 556 -99 l 384 -50 q 329 -29 340 -38 q 322 -12 322 -22 l 322 -2 q 321 119 322 82 q 321 172 320 143 l 322 201 l 322 235 l 401 236 q 425 181 413 210 q 442 138 436 153 q 452 117 448 123 q 514 44 479 73 q 595 0 547 16 q 698 -17 641 -17 q 805 4 747 -17 q 900 71 865 24 q 936 171 936 118 q 873 292 936 236 q 767 347 847 315 z "},"":{"ha":1190,"x_min":0,"x_max":1190,"o":"m 37 1018 q 2 1021 9 1019 l 0 1089 q 31 1090 10 1090 q 118 1087 78 1090 q 246 1081 220 1081 q 377 1084 313 1081 q 490 1087 467 1087 q 556 1089 533 1087 l 556 1078 l 557 1028 l 557 1022 q 461 1015 511 1015 q 400 995 415 1015 q 390 893 390 984 q 390 868 390 883 q 391 848 391 853 l 391 670 l 402 453 q 442 297 407 357 q 516 226 469 251 q 653 189 584 189 q 801 211 734 189 q 878 250 845 225 q 929 300 915 278 q 970 388 956 343 q 986 566 986 445 q 983 665 986 627 q 975 760 980 703 q 964 884 969 817 l 961 929 q 942 997 957 981 q 883 1024 916 1025 l 805 1022 l 794 1025 l 796 1091 l 861 1091 l 1020 1084 q 1172 1091 1079 1081 l 1186 1090 q 1190 1050 1190 1060 q 1187 1026 1190 1045 q 1122 1016 1152 1017 q 1061 1003 1066 1008 q 1049 971 1049 991 q 1051 950 1049 966 q 1052 926 1052 935 q 1069 619 1058 911 q 1057 384 1073 468 q 1025 289 1046 325 q 939 194 996 239 q 798 125 880 150 q 600 99 713 99 q 380 135 470 99 q 241 229 288 171 q 177 381 194 288 q 164 564 164 443 l 164 822 q 151 987 164 968 q 37 1018 132 1015 m 1190 -74 l 1190 -25 q 1184 -7 1190 -14 q 1166 0 1177 0 l 25 0 q 7 -7 14 0 q 0 -25 0 -14 l 0 -74 q 7 -92 0 -85 q 25 -99 14 -99 l 1166 -99 q 1184 -92 1177 -99 q 1190 -74 1190 -85 z "},"":{"ha":1290,"x_min":0,"x_max":1290,"o":"m 397 124 l 397 273 q 390 291 397 284 q 372 298 383 298 l 124 298 q 106 291 113 298 q 99 273 99 284 l 99 124 q 106 106 99 113 q 124 99 113 99 l 372 99 q 390 106 383 99 q 397 124 397 113 m 397 422 l 397 570 q 390 588 397 581 q 372 595 383 595 l 124 595 q 106 588 113 595 q 99 570 99 581 l 99 422 q 106 404 99 411 q 124 397 113 397 l 372 397 q 390 404 383 397 q 397 422 397 411 m 794 124 l 794 273 q 787 291 794 284 q 769 298 780 298 l 521 298 q 503 291 510 298 q 496 273 496 284 l 496 124 q 503 106 496 113 q 521 99 510 99 l 769 99 q 787 106 780 99 q 794 124 794 113 m 397 719 l 397 868 q 390 886 397 879 q 372 893 383 893 l 124 893 q 106 886 113 893 q 99 868 99 879 l 99 719 q 106 701 99 708 q 124 694 113 694 l 372 694 q 390 701 383 694 q 397 719 397 708 m 794 422 l 794 570 q 787 588 794 581 q 769 595 780 595 l 521 595 q 503 588 510 595 q 496 570 496 581 l 496 422 q 503 404 496 411 q 521 397 510 397 l 769 397 q 787 404 780 397 q 794 422 794 411 m 1190 124 l 1190 273 q 1184 291 1190 284 q 1166 298 1177 298 l 918 298 q 900 291 907 298 q 893 273 893 284 l 893 124 q 900 106 893 113 q 918 99 907 99 l 1166 99 q 1184 106 1177 99 q 1190 124 1190 113 m 794 719 l 794 868 q 787 886 794 879 q 769 893 780 893 l 521 893 q 503 886 510 893 q 496 868 496 879 l 496 719 q 503 701 496 708 q 521 694 510 694 l 769 694 q 787 701 780 694 q 794 719 794 708 m 1190 422 l 1190 570 q 1184 588 1190 581 q 1166 595 1177 595 l 918 595 q 900 588 907 595 q 893 570 893 581 l 893 422 q 900 404 893 411 q 918 397 907 397 l 1166 397 q 1184 404 1177 397 q 1190 422 1190 411 m 1190 719 l 1190 868 q 1184 886 1190 879 q 1166 893 1177 893 l 918 893 q 900 886 907 893 q 893 868 893 879 l 893 719 q 900 701 893 708 q 918 694 907 694 l 1166 694 q 1184 701 1177 694 q 1190 719 1190 708 m 1290 967 l 1290 124 q 1253 36 1290 73 q 1166 0 1217 0 l 124 0 q 36 36 73 0 q 0 124 0 73 l 0 967 q 36 1055 0 1018 q 124 1091 73 1091 l 1166 1091 q 1253 1055 1217 1091 q 1290 967 1290 1018 z "},"":{"ha":1290,"x_min":21,"x_max":1290,"o":"m 922 740 l 1149 967 l 1066 1050 l 839 823 l 922 740 m 1255 1002 q 1269 967 1269 988 q 1255 932 1269 946 l 258 -64 q 223 -78 244 -78 q 188 -64 202 -78 l 35 89 q 21 124 21 103 q 35 159 21 145 l 1032 1156 q 1066 1170 1046 1170 q 1101 1156 1087 1170 l 1255 1002 m 222 1115 l 298 1091 l 222 1068 l 198 992 l 175 1068 l 99 1091 l 175 1115 l 198 1190 l 222 1115 m 493 989 l 645 942 l 493 896 l 446 744 l 400 896 l 248 942 l 400 989 l 446 1141 l 493 989 m 1214 618 l 1290 595 l 1214 572 l 1190 496 l 1167 572 l 1091 595 l 1167 618 l 1190 694 l 1214 618 m 718 1115 l 794 1091 l 718 1068 l 694 992 l 671 1068 l 595 1091 l 671 1115 l 694 1190 l 718 1115 z "},"":{"ha":1389,"x_min":50,"x_max":1389,"o":"m 467 29 q 481 44 467 29 q 496 99 496 59 q 467 169 496 140 q 397 198 437 198 q 327 169 357 198 q 298 99 298 140 q 327 29 298 59 q 397 0 357 0 q 467 29 437 0 m 198 496 l 496 496 l 496 694 l 374 694 q 357 687 363 694 l 205 536 q 198 519 198 529 l 198 496 m 1161 29 q 1176 44 1161 29 q 1190 99 1190 59 q 1161 169 1190 140 q 1091 198 1132 198 q 1022 169 1051 198 q 992 99 992 140 q 1022 29 992 59 q 1091 0 1051 0 q 1161 29 1132 0 m 1389 942 l 1389 149 q 1386 128 1389 137 q 1375 114 1383 119 q 1363 105 1368 109 q 1344 100 1357 102 q 1327 99 1332 99 q 1307 99 1322 98 q 1290 99 1292 99 q 1232 -41 1290 17 q 1091 -99 1173 -99 q 951 -41 1009 -99 q 893 99 893 17 l 595 99 q 537 -41 595 17 q 397 -99 479 -99 q 257 -41 315 -99 q 198 99 198 17 l 149 99 q 131 99 146 99 q 112 99 116 98 q 94 100 107 99 q 76 105 81 102 q 63 114 71 109 q 53 128 56 119 q 50 149 50 137 q 64 184 50 169 q 99 198 79 198 l 99 446 q 99 474 99 453 q 99 503 98 494 q 101 530 99 512 q 106 558 102 548 q 117 582 109 569 q 134 605 124 595 l 288 759 q 327 784 302 773 q 372 794 351 794 l 496 794 l 496 942 q 511 977 496 963 q 546 992 525 992 l 1339 992 q 1374 977 1359 992 q 1389 942 1389 963 z "},"":{"ha":1190,"x_min":0,"x_max":1190,"o":"m 1111 795 q 1151 726 1111 795 q 1190 496 1190 658 q 1111 197 1190 334 q 894 -19 1031 60 q 595 -99 757 -99 q 426 -74 509 -99 q 487 53 472 -2 q 529 216 494 79 q 585 164 544 186 q 674 142 626 142 q 841 195 767 142 q 955 341 915 248 q 995 550 995 434 q 949 716 995 639 q 815 842 903 794 q 618 891 728 891 q 466 869 536 891 q 346 809 395 846 q 262 724 297 772 q 210 623 226 675 q 193 519 193 571 q 224 377 193 439 q 315 291 255 316 q 344 307 338 282 q 350 331 346 312 q 357 354 355 350 q 348 388 361 372 q 308 505 308 435 q 389 706 308 622 q 601 790 470 790 q 784 726 718 790 q 849 561 849 663 q 796 337 849 429 q 660 245 743 245 q 584 279 613 245 q 567 360 556 312 q 587 432 573 387 q 610 512 601 477 q 619 570 619 546 q 598 635 619 609 q 539 660 577 660 q 457 616 491 660 q 424 506 424 572 q 443 412 424 450 l 367 88 q 357 -50 353 33 q 98 168 197 21 q 0 496 0 315 q 80 795 0 658 q 296 1011 160 932 q 595 1091 433 1091 q 894 1011 757 1091 q 1111 795 1031 932 z "},"":{"ha":1190,"x_min":0,"x_max":1190,"o":"m 967 1091 q 1125 1026 1059 1091 q 1190 868 1190 960 l 1190 124 q 1125 -34 1190 32 q 967 -99 1059 -99 l 405 -99 q 489 64 471 -5 q 530 226 496 90 q 587 174 546 195 q 674 152 628 152 q 903 266 815 152 q 992 556 992 381 q 965 682 992 621 q 890 789 938 742 q 772 865 842 836 q 619 893 701 893 q 469 871 539 893 q 350 811 398 849 q 267 727 301 774 q 215 627 232 679 q 198 525 198 576 q 229 385 198 446 q 319 300 260 325 q 338 300 329 296 q 349 315 346 304 q 360 362 357 349 q 352 395 365 380 q 313 511 313 443 q 393 710 313 627 q 603 792 474 792 q 783 729 718 792 q 848 567 848 667 q 796 345 848 436 q 661 253 743 253 q 586 287 615 253 q 568 367 557 321 q 589 439 574 394 q 612 518 603 484 q 620 576 620 552 q 600 639 620 614 q 541 664 579 664 q 461 620 494 664 q 428 512 428 577 q 446 419 428 457 l 370 98 q 365 -99 352 20 l 223 -99 q 65 -34 131 -99 q 0 124 0 32 l 0 868 q 65 1026 0 960 q 223 1091 131 1091 l 967 1091 z "},"":{"ha":1190,"x_min":0,"x_max":1190,"o":"m 711 489 q 706 539 711 509 l 426 539 l 426 436 l 594 436 q 581 398 591 418 q 552 357 570 377 q 500 322 533 336 q 426 308 467 308 q 295 363 349 308 q 240 496 240 419 q 295 629 240 574 q 426 684 349 684 q 544 638 497 684 l 625 716 q 426 794 541 794 q 215 706 301 794 q 128 496 128 619 q 215 286 128 373 q 426 198 301 198 q 632 280 553 198 q 711 489 711 361 m 978 453 l 1063 453 l 1063 539 l 978 539 l 978 624 l 893 624 l 893 539 l 808 539 l 808 453 l 893 453 l 893 368 l 978 368 l 978 453 m 1190 868 l 1190 124 q 1125 -34 1190 32 q 967 -99 1059 -99 l 223 -99 q 65 -34 131 -99 q 0 124 0 32 l 0 868 q 65 1026 0 960 q 223 1091 131 1091 l 967 1091 q 1125 1026 1059 1091 q 1190 868 1190 960 z "},"":{"ha":1786,"x_min":0,"x_max":1786,"o":"m 1114 483 q 1046 196 1114 322 q 854 -1 979 70 q 568 -72 729 -72 q 347 -27 453 -72 q 166 94 242 18 q 45 275 90 170 q 0 496 0 381 q 45 717 0 612 q 166 898 90 822 q 347 1019 242 974 q 568 1064 453 1064 q 949 915 790 1064 l 794 767 q 568 855 704 855 q 392 807 473 855 q 264 676 311 759 q 216 496 216 594 q 264 316 216 398 q 392 185 311 233 q 568 137 473 137 q 686 155 632 137 q 775 200 740 173 q 836 260 810 226 q 874 325 862 295 q 891 382 886 355 l 568 382 l 568 577 l 1104 577 q 1114 483 1114 529 m 1786 577 l 1786 415 l 1624 415 l 1624 253 l 1461 253 l 1461 415 l 1299 415 l 1299 577 l 1461 577 l 1461 739 l 1624 739 l 1624 577 l 1786 577 z "},"":{"ha":1488,"x_min":0,"x_max":1488,"o":"m 595 298 l 893 298 l 893 372 l 794 372 l 794 719 l 705 719 l 591 613 l 650 551 q 693 595 683 580 l 694 595 l 694 372 l 595 372 l 595 298 m 976 606 q 984 578 976 606 q 992 496 992 550 q 976 386 992 442 q 930 282 960 330 q 851 204 900 234 q 744 174 802 174 q 637 204 686 174 q 558 282 588 234 q 512 386 529 330 q 496 496 496 442 q 512 606 496 550 q 558 710 529 662 q 637 788 588 758 q 744 818 686 818 q 851 788 802 818 q 930 710 900 758 q 976 606 960 662 m 1389 298 l 1389 694 q 1249 753 1307 694 q 1190 893 1190 811 l 298 893 q 239 753 298 811 q 99 694 181 694 l 99 298 q 239 239 181 298 q 298 99 298 181 l 1190 99 q 1249 239 1190 181 q 1389 298 1307 298 m 1488 942 l 1488 50 q 1473 15 1488 29 q 1438 0 1459 0 l 50 0 q 15 15 29 0 q 0 50 0 29 l 0 942 q 15 977 0 963 q 50 992 29 992 l 1438 992 q 1473 977 1459 992 q 1488 942 1488 963 z "},"":{"ha":794,"x_min":0,"x_max":794,"o":"m 779 680 q 786 672 779 680 q 794 645 794 665 q 779 610 794 625 l 432 263 q 397 248 417 248 q 362 263 377 248 l 15 610 q 0 645 0 625 q 15 680 0 665 q 50 694 29 694 l 744 694 q 779 680 764 694 z "},"":{"ha":794,"x_min":0,"x_max":794,"o":"m 779 283 q 794 248 794 268 q 779 213 794 228 q 744 198 764 198 l 50 198 q 15 213 29 198 q 0 248 0 228 q 15 283 0 268 l 362 630 q 397 645 377 645 q 432 630 417 645 l 779 283 z "},"":{"ha":496,"x_min":50,"x_max":496,"o":"m 496 843 l 496 149 q 481 114 496 129 q 446 99 467 99 q 412 114 426 99 l 64 461 q 50 496 50 476 q 64 531 50 516 l 412 878 q 446 893 426 893 q 481 878 467 893 q 496 843 496 863 z "},"":{"ha":496,"x_min":0,"x_max":446,"o":"m 432 531 q 446 496 446 516 q 432 461 446 476 l 84 114 q 50 99 70 99 q 15 114 29 99 q 0 149 0 129 l 0 843 q 15 878 0 863 q 50 893 29 893 q 84 878 70 893 l 432 531 z "},"":{"ha":1290,"x_min":0,"x_max":1290,"o":"m 124 0 l 595 0 l 595 893 l 99 893 l 99 25 q 107 7 99 15 q 124 0 114 0 m 1190 25 l 1190 893 l 694 893 l 694 0 l 1166 0 q 1183 7 1176 0 q 1190 25 1190 15 m 1290 967 l 1290 25 q 1253 -63 1290 -26 q 1166 -99 1217 -99 l 124 -99 q 36 -63 73 -99 q 0 25 0 -26 l 0 967 q 36 1055 0 1018 q 124 1091 73 1091 l 1166 1091 q 1253 1055 1217 1091 q 1290 967 1290 1018 z "},"":{"ha":794,"x_min":0,"x_max":794,"o":"m 779 382 q 786 375 779 382 q 794 347 794 367 q 779 312 794 327 l 432 -35 q 397 -50 417 -50 q 362 -35 377 -50 l 15 312 q 0 347 0 327 q 15 382 0 367 q 50 397 29 397 l 744 397 q 779 382 764 397 m 779 680 q 794 645 794 665 q 779 610 794 625 q 744 595 764 595 l 50 595 q 15 610 29 595 q 0 645 0 625 q 15 680 0 665 l 362 1027 q 397 1042 377 1042 q 432 1027 417 1042 l 779 680 z "},"":{"ha":794,"x_min":0,"x_max":794,"o":"m 779 382 q 786 375 779 382 q 794 347 794 367 q 779 312 794 327 l 432 -35 q 397 -50 417 -50 q 362 -35 377 -50 l 15 312 q 0 347 0 327 q 15 382 0 367 q 50 397 29 397 l 744 397 q 779 382 764 397 z "},"":{"ha":794,"x_min":0,"x_max":794,"o":"m 779 680 q 794 645 794 665 q 779 610 794 625 q 744 595 764 595 l 50 595 q 15 610 29 595 q 0 645 0 625 q 15 680 0 665 l 362 1027 q 397 1042 377 1042 q 432 1027 417 1042 l 779 680 z "},"":{"ha":1389,"x_min":0,"x_max":1389,"o":"m 1389 640 l 1389 25 q 1352 -63 1389 -26 q 1265 -99 1316 -99 l 124 -99 q 36 -63 73 -99 q 0 25 0 -26 l 0 640 q 78 573 34 602 q 463 305 359 382 q 535 255 508 273 q 608 217 563 236 q 694 198 654 198 l 694 198 l 695 198 q 780 217 735 198 q 854 255 826 236 q 925 305 881 273 q 1311 573 1057 401 q 1389 640 1356 603 m 1389 868 q 1351 751 1389 807 q 1256 656 1313 695 q 894 404 965 453 q 861 380 886 398 q 819 351 836 362 q 779 326 802 339 q 734 305 755 312 q 695 298 713 298 l 694 298 l 694 298 q 655 305 676 298 q 610 326 634 312 q 570 351 587 339 q 528 380 553 362 q 495 404 503 398 q 292 545 425 453 q 133 656 160 637 q 43 745 85 688 q 0 851 0 802 q 32 952 0 911 q 124 992 64 992 l 1265 992 q 1352 956 1315 992 q 1389 868 1389 919 z "},"":{"ha":1190,"x_min":0,"x_max":1190,"o":"m 270 706 l 270 -62 l 15 -62 l 15 706 l 270 706 m 287 943 q 248 849 288 887 q 143 811 208 811 l 141 811 q 39 849 78 811 q 0 943 0 887 q 40 1038 0 1001 q 144 1076 80 1076 q 247 1038 208 1076 q 287 943 286 1001 m 1190 378 l 1190 -62 l 935 -62 l 935 349 q 904 476 935 430 q 806 522 873 522 q 724 496 757 522 q 675 429 691 469 q 667 367 667 406 l 667 -62 l 412 -62 q 413 439 413 247 q 412 669 413 632 l 412 706 l 667 706 l 667 594 l 665 594 q 697 638 680 619 q 741 678 713 656 q 808 712 768 700 q 897 724 848 724 q 1110 636 1029 724 q 1190 378 1190 548 z "},"":{"ha":1190,"x_min":0,"x_max":1190,"o":"m 1143 727 q 1167 672 1143 727 q 1190 496 1190 617 q 1143 265 1190 375 q 1016 75 1096 155 q 826 -52 936 -5 q 595 -99 716 -99 q 342 -43 462 -99 q 137 115 222 13 q 132 133 132 123 q 139 149 133 143 l 245 256 q 264 263 253 263 q 282 253 277 261 q 421 140 339 180 q 595 99 503 99 q 749 131 676 99 q 876 215 822 162 q 961 342 929 269 q 992 496 992 415 q 961 650 992 577 q 876 777 929 723 q 749 861 822 830 q 595 893 676 893 q 450 865 519 893 q 326 787 380 838 l 432 680 q 443 626 456 656 q 397 595 429 595 l 50 595 q 15 610 29 595 q 0 645 0 625 l 0 992 q 31 1038 0 1025 q 84 1027 61 1051 l 185 927 q 375 1048 268 1005 q 595 1091 481 1091 q 826 1044 716 1091 q 1016 917 936 997 q 1143 727 1096 837 z "},"":{"ha":1389,"x_min":31,"x_max":1373,"o":"m 1373 0 q 1344 -70 1373 -41 l 1261 -153 q 1190 -182 1231 -182 q 1121 -153 1149 -182 l 839 129 q 810 198 810 157 q 843 273 810 239 l 645 471 l 547 374 q 521 363 536 363 q 494 374 505 363 q 504 364 496 372 q 514 354 512 357 q 522 345 515 352 q 529 335 528 339 q 534 324 531 331 q 538 312 537 318 q 539 298 539 305 q 518 245 539 268 q 505 231 515 243 q 490 215 494 219 q 476 202 486 211 q 459 190 466 194 q 442 183 452 187 q 422 180 432 180 q 369 202 391 180 l 53 518 q 31 570 31 539 q 34 591 31 581 q 41 608 38 601 q 53 625 45 615 q 66 639 62 635 q 82 654 71 643 q 96 667 94 664 q 149 688 119 688 q 163 687 157 688 q 176 683 169 686 q 186 678 182 680 q 196 670 190 677 q 205 663 203 664 q 215 653 208 661 q 225 643 223 645 q 214 670 214 654 q 225 696 214 685 l 494 966 q 521 977 505 977 q 547 966 536 977 q 537 975 546 967 q 528 985 529 983 q 520 994 526 987 q 512 1004 514 1001 q 508 1015 511 1008 q 503 1028 505 1022 q 502 1042 502 1034 q 524 1094 502 1071 q 537 1108 526 1097 q 551 1124 547 1120 q 566 1137 556 1128 q 583 1149 576 1146 q 600 1156 590 1152 q 620 1159 610 1159 q 673 1138 651 1159 l 989 822 q 1011 769 1011 800 q 1007 749 1011 759 q 1000 732 1004 739 q 988 715 997 725 q 975 700 980 705 q 960 686 971 696 q 946 673 948 675 q 893 651 922 651 q 879 652 885 651 q 866 656 873 653 q 856 661 860 660 q 845 669 852 663 q 836 677 839 675 q 826 686 834 678 q 817 696 818 694 q 828 670 828 685 q 817 643 828 654 l 719 546 l 918 347 q 992 381 951 381 q 1063 352 1032 381 l 1344 71 q 1373 0 1373 40 z "},"":{"ha":1389,"x_min":0,"x_max":1389,"o":"m 269 227 q 283 242 269 227 q 298 298 298 257 q 269 368 298 339 q 198 397 239 397 q 128 368 157 397 q 99 298 99 339 q 128 227 99 257 q 198 198 157 198 q 269 227 239 198 m 417 575 q 432 589 417 575 q 446 645 446 604 q 417 715 446 686 q 347 744 388 744 q 277 715 306 744 q 248 645 248 686 q 277 575 248 604 q 347 546 306 546 q 417 575 388 546 m 778 272 l 856 568 q 851 606 861 588 q 821 629 840 623 q 784 624 801 634 q 760 593 766 613 l 682 297 q 599 263 636 293 q 550 187 563 233 q 566 74 535 127 q 656 5 597 20 q 770 20 716 -11 q 839 111 823 51 q 834 202 851 157 q 778 272 817 246 m 1261 227 q 1275 242 1261 227 q 1290 298 1290 257 q 1261 368 1290 339 q 1190 397 1232 397 q 1120 368 1149 397 q 1091 298 1091 339 q 1120 227 1091 257 q 1190 198 1149 198 q 1261 227 1232 198 m 765 724 q 779 738 765 724 q 794 794 794 753 q 765 864 794 835 q 694 893 736 893 q 624 864 653 893 q 595 794 595 835 q 624 724 595 753 q 694 694 653 694 q 765 724 736 694 m 1112 575 q 1126 589 1112 575 q 1141 645 1141 604 q 1112 715 1141 686 q 1042 744 1083 744 q 972 715 1001 744 q 942 645 942 686 q 972 575 942 604 q 1042 546 1001 546 q 1112 575 1083 546 m 1389 298 q 1280 -77 1389 95 q 1238 -99 1265 -99 l 151 -99 q 109 -77 124 -99 q 0 298 0 95 q 55 567 0 439 q 203 789 110 696 q 425 937 296 882 q 694 992 553 992 q 964 937 836 992 q 1186 789 1093 882 q 1334 567 1279 696 q 1389 298 1389 439 z "},"":{"ha":1389,"x_min":0,"x_max":1389,"o":"m 990 839 q 921 866 990 839 q 694 893 853 893 q 399 839 536 893 q 180 694 261 785 q 99 496 99 602 q 155 331 99 409 q 311 195 210 252 l 378 156 l 357 81 q 303 -52 339 11 q 516 81 421 -3 l 550 110 l 594 105 q 694 99 647 99 q 990 153 853 99 q 1209 298 1128 207 q 1290 496 1290 390 q 1209 694 1290 602 q 990 839 1128 785 m 1296 745 q 1342 688 1296 745 q 1389 496 1389 631 q 1296 247 1389 361 q 1043 66 1203 133 q 694 0 884 0 q 582 6 640 0 q 226 -181 429 -129 q 137 -198 188 -192 l 133 -198 q 112 -190 122 -198 q 100 -169 103 -182 l 100 -168 q 100 -159 98 -165 q 101 -151 102 -153 q 105 -144 101 -150 q 109 -137 109 -138 q 115 -130 110 -136 q 121 -123 119 -125 q 145 -96 126 -117 q 172 -67 164 -76 q 196 -36 180 -58 q 221 3 212 -15 q 242 49 230 21 q 262 108 253 77 q 70 278 140 177 q 0 496 0 380 q 93 745 0 631 q 346 926 186 860 q 694 992 505 992 q 1043 926 884 992 q 1296 745 1203 860 z "},"":{"ha":1389,"x_min":0,"x_max":1389,"o":"m 767 853 q 716 873 767 853 q 546 893 664 893 q 324 853 427 893 q 160 743 221 812 q 99 595 99 674 q 140 473 99 532 q 256 370 181 414 l 331 327 l 304 262 q 352 292 330 277 l 386 316 l 427 308 q 546 298 488 298 q 767 338 664 298 q 931 447 870 378 q 992 595 992 516 q 931 743 992 674 q 767 853 870 812 m 272 939 q 335 966 272 939 q 546 992 398 992 q 820 939 694 992 q 1018 794 946 886 q 1091 595 1091 703 q 1018 396 1091 488 q 820 252 946 305 q 546 198 694 198 q 409 211 479 198 q 194 112 313 143 q 127 99 166 105 l 125 99 q 109 105 116 99 q 100 122 102 112 q 99 127 99 124 q 100 132 99 129 q 101 136 100 134 q 103 140 102 139 q 106 145 104 142 q 109 148 108 147 q 112 152 110 150 q 115 156 115 155 q 133 175 119 160 q 153 198 147 190 q 171 221 160 206 q 190 250 182 235 q 206 284 198 266 q 55 422 110 340 q 0 595 0 503 q 73 794 0 703 q 272 939 146 886 m 1183 86 q 1199 52 1190 67 q 1218 22 1207 36 q 1235 0 1229 8 q 1256 -23 1242 -9 q 1273 -43 1270 -38 q 1277 -46 1274 -43 q 1280 -50 1279 -49 q 1283 -54 1281 -51 q 1286 -58 1285 -57 q 1288 -62 1287 -60 q 1289 -67 1289 -64 q 1290 -72 1290 -69 q 1289 -77 1290 -74 q 1279 -94 1287 -88 q 1262 -99 1271 -100 q 1195 -87 1223 -94 q 980 12 1076 -56 q 843 0 910 0 q 477 102 633 0 q 546 99 522 99 q 785 134 670 99 q 990 234 900 169 q 1139 398 1087 305 q 1190 595 1190 491 q 1173 713 1190 655 q 1331 575 1273 658 q 1389 397 1389 492 q 1334 223 1389 304 q 1183 86 1279 142 z "},"":{"ha":694,"x_min":1,"x_max":691,"o":"m 686 752 q 691 718 700 736 l 273 -179 q 240 -198 263 -198 q 229 -197 237 -198 q 210 -182 216 -193 q 206 -159 203 -171 l 359 467 l 44 389 q 35 388 41 388 q 11 397 21 388 q 1 427 -3 408 l 157 1066 q 169 1084 160 1077 q 191 1091 178 1091 l 445 1091 q 470 1082 460 1091 q 480 1059 480 1072 q 476 1045 480 1053 l 343 686 l 650 762 q 660 763 656 763 q 686 752 674 763 z "},"":{"ha":1389,"x_min":0,"x_max":1389,"o":"m 1389 223 l 1389 -25 q 1367 -78 1389 -56 q 1314 -99 1345 -99 l 1066 -99 q 1014 -78 1035 -99 q 992 -25 992 -56 l 992 223 q 1014 276 992 254 q 1066 298 1035 298 l 1141 298 l 1141 446 l 744 446 l 744 298 l 818 298 q 871 276 849 298 q 893 223 893 254 l 893 -25 q 871 -78 893 -56 q 818 -99 849 -99 l 570 -99 q 518 -78 539 -99 q 496 -25 496 -56 l 496 223 q 518 276 496 254 q 570 298 539 298 l 645 298 l 645 446 l 248 446 l 248 298 l 322 298 q 375 276 353 298 q 397 223 397 254 l 397 -25 q 375 -78 397 -56 q 322 -99 353 -99 l 74 -99 q 22 -78 43 -99 q 0 -25 0 -56 l 0 223 q 22 276 0 254 q 74 298 43 298 l 149 298 l 149 446 q 178 516 149 487 q 248 546 208 546 l 645 546 l 645 694 l 570 694 q 518 716 539 694 q 496 769 496 738 l 496 1017 q 518 1070 496 1048 q 570 1091 539 1091 l 818 1091 q 871 1070 849 1091 q 893 1017 893 1048 l 893 769 q 871 716 893 738 q 818 694 849 694 l 744 694 l 744 546 l 1141 546 q 1211 516 1181 546 q 1240 446 1240 487 l 1240 298 l 1314 298 q 1367 276 1345 298 q 1389 223 1389 254 z "},"":{"ha":1290,"x_min":0,"x_max":1290,"o":"m 694 549 l 694 99 q 636 -40 694 19 q 496 -99 577 -99 q 357 -40 415 -99 q 298 99 298 19 q 312 134 298 119 q 347 149 327 149 q 382 134 367 149 q 397 99 397 119 q 427 30 397 60 q 496 0 457 0 q 565 30 535 0 q 595 99 595 60 l 595 549 q 645 557 621 557 q 694 549 669 557 m 1290 528 q 1282 510 1290 518 q 1265 503 1275 503 q 1247 511 1256 503 q 1175 564 1209 546 q 1096 582 1141 582 q 997 553 1043 582 q 917 478 950 525 q 903 457 911 470 q 892 438 895 443 q 870 425 884 425 q 848 438 856 425 q 837 457 845 443 q 823 478 829 470 q 744 553 790 525 q 645 582 698 582 q 546 553 592 582 q 467 478 500 525 q 453 457 461 470 q 442 438 445 443 q 419 425 433 425 q 398 438 406 425 q 386 457 395 443 q 373 478 378 470 q 293 553 339 525 q 194 582 246 582 q 115 564 149 582 q 43 511 81 546 q 25 503 33 503 q 7 510 15 503 q 0 528 0 518 q 1 533 0 532 q 134 781 36 675 q 365 939 233 887 q 645 992 498 992 q 858 961 753 992 q 1049 873 962 930 q 1199 728 1135 816 q 1289 533 1263 640 q 1290 528 1290 532 m 694 1091 l 694 1015 q 645 1017 662 1017 q 595 1015 628 1017 l 595 1091 q 610 1126 595 1111 q 645 1141 625 1141 q 680 1126 665 1141 q 694 1091 694 1111 z "},"":{"ha":1389,"x_min":0,"x_max":1389,"o":"m 595 -99 l 1290 -99 l 1290 397 l 967 397 q 915 419 936 397 q 893 471 893 440 l 893 794 l 595 794 l 595 -99 m 794 1017 l 794 1066 q 786 1084 794 1077 q 769 1091 779 1091 l 223 1091 q 206 1084 213 1091 q 198 1066 198 1077 l 198 1017 q 206 999 198 1007 q 223 992 213 992 l 769 992 q 786 999 779 992 q 794 1017 794 1007 m 992 496 l 1224 496 l 992 728 l 992 496 m 1389 397 l 1389 -124 q 1367 -177 1389 -155 q 1314 -198 1345 -198 l 570 -198 q 518 -177 539 -198 q 496 -124 496 -155 l 496 0 l 74 0 q 22 22 43 0 q 0 74 0 43 l 0 1116 q 22 1169 0 1147 q 74 1190 43 1190 l 918 1190 q 970 1169 949 1190 q 992 1116 992 1147 l 992 862 q 1020 840 1008 852 l 1336 524 q 1373 465 1358 502 q 1389 397 1389 428 z "},"":{"ha":794,"x_min":0,"x_max":794,"o":"m 570 744 q 563 727 570 734 q 546 719 556 719 q 528 727 536 719 q 521 744 521 734 q 479 799 521 780 q 397 818 437 818 q 379 826 387 818 q 372 843 372 833 q 379 861 372 853 q 397 868 387 868 q 474 856 436 868 q 541 814 512 843 q 570 744 570 784 m 694 744 q 668 848 694 800 q 598 927 641 896 q 503 975 555 957 q 397 992 450 992 q 291 975 343 992 q 196 927 239 957 q 126 848 153 896 q 99 744 99 800 q 152 605 99 666 q 176 579 160 596 q 199 553 191 562 q 308 322 298 435 l 485 322 q 594 553 495 435 q 618 579 602 562 q 642 605 634 596 q 694 744 694 666 m 794 744 q 714 536 794 624 q 656 469 679 498 q 610 395 633 439 q 584 312 587 350 q 620 248 620 290 q 601 198 620 219 q 620 149 620 177 q 585 86 620 109 q 595 50 595 68 q 571 -5 595 14 q 511 -25 546 -25 q 464 -79 495 -59 q 397 -99 433 -99 q 329 -79 360 -99 q 283 -25 298 -59 q 223 -5 247 -25 q 198 50 198 14 q 208 86 198 68 q 174 149 174 109 q 193 198 174 177 q 174 248 174 219 q 210 312 174 290 q 184 395 207 350 q 138 469 160 439 q 80 536 115 498 q 0 744 0 624 q 34 887 0 821 q 125 997 69 953 q 252 1066 181 1041 q 397 1091 323 1091 q 541 1066 470 1091 q 668 997 612 1041 q 759 887 725 953 q 794 744 794 821 z "},"":{"ha":1389,"x_min":0,"x_max":1389,"o":"m 1389 273 l 1389 124 q 1382 107 1389 114 q 1364 99 1374 99 l 298 99 l 298 -50 q 290 -67 298 -60 q 273 -74 283 -74 q 254 -67 264 -74 l 7 181 q 0 198 0 188 q 7 216 0 209 l 255 464 q 273 471 262 471 q 290 464 283 471 q 298 446 298 457 l 298 298 l 1364 298 q 1382 290 1374 298 q 1389 273 1389 283 m 1382 712 q 1389 694 1389 705 q 1382 677 1389 684 l 1134 429 q 1116 422 1127 422 q 1099 429 1106 422 q 1091 446 1091 436 l 1091 595 l 25 595 q 7 603 15 595 q 0 620 0 610 l 0 769 q 7 786 0 779 q 25 794 15 794 l 1091 794 l 1091 942 q 1098 960 1091 953 q 1116 967 1105 967 q 1135 960 1125 967 l 1382 712 z "},"":{"ha":1488,"x_min":0,"x_max":1488,"o":"m 992 471 q 985 489 992 482 q 967 496 978 496 l 794 496 l 794 769 q 786 786 794 779 q 769 794 779 794 l 620 794 q 603 786 610 794 q 595 769 595 779 l 595 496 l 422 496 q 404 489 412 496 q 397 471 397 481 q 404 453 397 460 l 677 181 q 694 174 684 174 q 712 181 705 174 l 984 453 q 992 471 992 462 m 1488 298 q 1401 87 1488 174 q 1190 0 1314 0 l 347 0 q 102 102 204 0 q 0 347 0 204 q 54 533 0 448 q 200 661 109 618 q 198 694 198 684 q 315 975 198 859 q 595 1091 431 1091 q 817 1024 716 1091 q 963 845 917 956 q 1091 893 1018 893 q 1232 835 1173 893 q 1290 694 1290 777 q 1258 587 1290 636 q 1423 482 1359 563 q 1488 298 1488 401 z "},"":{"ha":1488,"x_min":0,"x_max":1488,"o":"m 992 521 q 985 539 992 532 l 712 811 q 694 818 705 818 q 677 811 684 818 l 405 539 q 397 521 397 530 q 404 503 397 510 q 422 496 411 496 l 595 496 l 595 223 q 603 206 595 213 q 620 198 610 198 l 769 198 q 786 206 779 198 q 794 223 794 213 l 794 496 l 967 496 q 985 503 977 496 q 992 521 992 511 m 1488 298 q 1401 87 1488 174 q 1190 0 1314 0 l 347 0 q 102 102 204 0 q 0 347 0 204 q 54 533 0 448 q 200 661 109 618 q 198 694 198 684 q 315 975 198 859 q 595 1091 431 1091 q 817 1024 716 1091 q 963 845 917 956 q 1091 893 1018 893 q 1232 835 1173 893 q 1290 694 1290 777 q 1258 587 1290 636 q 1423 482 1359 563 q 1488 298 1488 401 z "},"":{"ha":1091,"x_min":0,"x_max":1091,"o":"m 283 184 q 290 176 283 184 q 298 149 298 169 q 283 114 298 129 q 248 99 268 99 q 213 114 228 99 q 198 149 198 129 q 213 184 198 169 q 248 198 228 198 q 283 184 268 198 m 1091 102 q 1035 -46 1091 8 q 884 -99 978 -99 l 207 -99 q 57 -46 113 -99 q 0 102 0 8 q 4 203 0 154 q 23 310 9 252 q 60 413 37 368 q 122 493 82 457 q 215 539 163 528 q 198 446 198 499 l 198 289 q 126 235 153 274 q 99 149 99 196 q 143 43 99 87 q 248 0 186 0 q 353 43 310 0 q 397 149 397 87 q 369 235 397 196 q 298 289 342 274 l 298 446 q 317 519 298 494 q 546 438 419 438 q 774 519 672 438 q 794 446 794 494 l 794 397 q 653 339 711 397 q 595 198 595 281 l 595 129 q 570 74 570 107 q 592 22 570 43 q 645 0 614 0 q 698 22 676 0 q 719 74 719 43 q 694 129 719 107 l 694 198 q 724 268 694 239 q 794 298 753 298 q 863 268 834 298 q 893 198 893 239 l 893 129 q 868 74 868 107 q 890 22 868 43 q 942 0 911 0 q 995 22 973 0 q 1017 74 1017 43 q 992 129 1017 107 l 992 198 q 965 297 992 251 q 893 370 939 343 q 893 403 893 377 q 893 440 894 428 q 891 472 893 452 q 886 508 890 492 q 876 539 882 525 q 969 493 929 528 q 1032 413 1009 457 q 1068 310 1054 368 q 1087 203 1083 252 q 1091 102 1091 154 m 756 1004 q 800 960 756 1004 q 843 794 843 917 q 756 583 843 670 q 546 496 669 496 q 335 583 422 496 q 248 794 248 670 q 335 1004 248 917 q 546 1091 422 1091 q 756 1004 669 1091 z "},"":{"ha":1091,"x_min":0,"x_max":1091,"o":"m 977 610 q 985 617 977 610 q 992 645 992 625 q 977 680 992 665 q 942 694 963 694 q 908 680 922 694 q 893 645 893 665 q 908 610 893 625 q 942 595 922 595 q 977 610 963 595 m 1091 645 q 1064 559 1091 597 q 992 505 1036 521 l 992 198 q 890 -12 992 75 q 645 -99 788 -99 q 400 -12 501 -99 q 298 198 298 75 l 298 301 q 85 400 171 316 q 0 595 0 484 l 0 992 q 15 1027 0 1012 q 50 1042 29 1042 q 62 1040 54 1042 q 98 1077 75 1063 q 149 1091 122 1091 q 219 1062 190 1091 q 248 992 248 1033 q 219 922 248 951 q 149 893 190 893 q 99 907 123 893 l 99 595 q 172 455 99 513 q 347 397 245 397 q 522 455 450 397 q 595 595 595 513 l 595 907 q 546 893 571 893 q 475 922 505 893 q 446 992 446 951 q 475 1062 446 1033 q 546 1091 505 1091 q 596 1077 573 1091 q 632 1040 619 1063 q 645 1042 640 1042 q 680 1027 665 1042 q 694 992 694 1012 l 694 595 q 609 400 694 484 q 397 301 524 316 l 397 198 q 470 58 397 116 q 645 0 543 0 q 820 58 747 0 q 893 198 893 116 l 893 505 q 821 559 849 521 q 794 645 794 597 q 837 750 794 707 q 942 794 880 794 q 1048 750 1004 794 q 1091 645 1091 707 z "},"":{"ha":1389,"x_min":0,"x_max":1389,"o":"m 496 893 l 893 893 l 893 992 l 496 992 l 496 893 m 223 893 l 223 -99 l 174 -99 q 51 -48 102 -99 q 0 74 0 3 l 0 719 q 51 842 0 791 q 174 893 102 893 l 223 893 m 1091 893 l 1091 -99 l 298 -99 l 298 893 l 397 893 l 397 1017 q 419 1070 397 1048 q 471 1091 440 1091 l 918 1091 q 970 1070 949 1091 q 992 1017 992 1048 l 992 893 l 1091 893 m 1389 719 l 1389 74 q 1338 -48 1389 3 q 1215 -99 1287 -99 l 1166 -99 l 1166 893 l 1215 893 q 1338 842 1287 893 q 1389 719 1389 791 z "},"":{"ha":1389,"x_min":50,"x_max":1339,"o":"m 694 -136 q 707 -124 707 -136 q 694 -112 707 -112 q 616 -79 649 -112 q 583 0 583 -46 q 570 12 583 12 q 558 0 558 12 q 598 -96 558 -57 q 694 -136 638 -136 m 1339 99 q 1310 29 1339 59 q 1240 0 1280 0 l 893 0 q 835 -140 893 -82 q 694 -198 777 -198 q 554 -140 612 -198 q 496 0 496 -82 l 149 0 q 79 29 109 0 q 50 99 50 59 q 120 167 88 132 q 186 260 152 203 q 244 383 220 317 q 283 543 267 449 q 298 744 298 636 q 388 963 298 862 q 626 1086 479 1064 q 620 1116 620 1101 q 642 1169 620 1147 q 694 1190 663 1190 q 747 1169 725 1190 q 769 1116 769 1147 q 763 1086 769 1101 q 1001 963 910 1064 q 1091 744 1091 862 q 1106 543 1091 636 q 1145 383 1121 449 q 1203 260 1169 317 q 1269 167 1237 203 q 1339 99 1301 132 z "},"":{"ha":1488,"x_min":0,"x_max":1438,"o":"m 1246 589 q 1268 611 1246 589 q 1290 694 1290 632 q 1246 800 1290 756 q 1141 843 1203 843 l 1091 843 l 1091 546 l 1141 546 q 1246 589 1203 546 m 0 99 l 1389 99 q 1331 -41 1389 17 q 1190 -99 1273 -99 l 198 -99 q 58 -41 116 -99 q 0 99 0 17 m 1351 905 q 1395 861 1351 905 q 1438 694 1438 818 q 1351 484 1438 571 q 1141 397 1264 397 l 1091 397 l 1091 372 q 1040 250 1091 301 q 918 198 989 198 l 372 198 q 250 250 301 198 q 198 372 198 301 l 198 942 q 213 977 198 963 q 248 992 228 992 l 1141 992 q 1351 905 1264 992 z "},"":{"ha":1091,"x_min":0,"x_max":1091,"o":"m 496 1141 l 496 645 q 469 559 496 598 q 397 505 441 520 l 397 -99 q 367 -169 397 -140 q 298 -198 338 -198 l 198 -198 q 129 -169 158 -198 q 99 -99 99 -140 l 99 505 q 28 559 55 520 q 0 645 0 598 l 0 1141 q 15 1176 0 1161 q 50 1190 29 1190 q 84 1176 70 1190 q 99 1141 99 1161 l 99 818 q 114 784 99 798 q 149 769 129 769 q 184 784 169 769 q 198 818 198 798 l 198 1141 q 213 1176 198 1161 q 248 1190 228 1190 q 283 1176 268 1190 q 298 1141 298 1161 l 298 818 q 312 784 298 798 q 347 769 327 769 q 382 784 367 769 q 397 818 397 798 l 397 1141 q 412 1176 397 1161 q 446 1190 426 1190 q 481 1176 467 1190 q 496 1141 496 1161 m 1091 1141 l 1091 -99 q 1062 -169 1091 -140 q 992 -198 1032 -198 l 893 -198 q 823 -169 853 -198 q 794 -99 794 -140 l 794 298 l 620 298 q 603 305 610 298 q 595 322 595 312 l 595 942 q 668 1118 595 1045 q 843 1190 741 1190 l 1042 1190 q 1077 1176 1062 1190 q 1091 1141 1091 1161 z "},"":{"ha":1190,"x_min":0,"x_max":1190,"o":"m 1138 896 q 1175 837 1159 874 q 1190 769 1190 800 l 1190 -124 q 1169 -177 1190 -155 q 1116 -198 1147 -198 l 74 -198 q 22 -177 43 -198 q 0 -124 0 -155 l 0 1116 q 22 1169 0 1147 q 74 1190 43 1190 l 769 1190 q 837 1175 800 1190 q 896 1138 874 1159 l 1138 896 m 794 1085 l 794 794 l 1085 794 q 1068 825 1077 816 l 825 1068 q 794 1085 816 1077 m 1091 -99 l 1091 694 l 769 694 q 716 716 738 694 q 694 769 694 738 l 694 1091 l 99 1091 l 99 -99 l 1091 -99 m 298 570 q 305 588 298 581 q 322 595 312 595 l 868 595 q 886 588 879 595 q 893 570 893 581 l 893 521 q 886 503 893 510 q 868 496 879 496 l 322 496 q 305 503 312 496 q 298 521 298 510 l 298 570 m 868 397 q 886 390 879 397 q 893 372 893 383 l 893 322 q 886 305 893 312 q 868 298 879 298 l 322 298 q 305 305 312 298 q 298 322 298 312 l 298 372 q 305 390 298 383 q 322 397 312 397 l 868 397 m 868 198 q 886 191 879 198 q 893 174 893 184 l 893 124 q 886 106 893 113 q 868 99 879 99 l 322 99 q 305 106 312 99 q 298 124 298 113 l 298 174 q 305 191 298 184 q 322 198 312 198 l 868 198 z "},"":{"ha":1091,"x_min":0,"x_max":1091,"o":"m 298 174 l 298 124 q 290 107 298 114 q 273 99 283 99 l 223 99 q 206 107 213 99 q 198 124 198 114 l 198 174 q 206 191 198 184 q 223 198 213 198 l 273 198 q 290 191 283 198 q 298 174 298 184 m 298 372 l 298 322 q 290 305 298 312 q 273 298 283 298 l 223 298 q 206 305 213 298 q 198 322 198 312 l 198 372 q 206 389 198 382 q 223 397 213 397 l 273 397 q 290 389 283 397 q 298 372 298 382 m 496 372 l 496 322 q 489 305 496 312 q 471 298 481 298 l 422 298 q 404 305 412 298 q 397 322 397 312 l 397 372 q 404 389 397 382 q 422 397 412 397 l 471 397 q 489 389 481 397 q 496 372 496 382 m 298 570 l 298 521 q 290 503 298 511 q 273 496 283 496 l 223 496 q 206 503 213 496 q 198 521 198 511 l 198 570 q 206 588 198 581 q 223 595 213 595 l 273 595 q 290 588 283 595 q 298 570 298 581 m 893 174 l 893 124 q 885 107 893 114 q 868 99 878 99 l 818 99 q 801 107 808 99 q 794 124 794 114 l 794 174 q 801 191 794 184 q 818 198 808 198 l 868 198 q 885 191 878 198 q 893 174 893 184 m 694 372 l 694 322 q 687 305 694 312 q 670 298 680 298 l 620 298 q 603 305 610 298 q 595 322 595 312 l 595 372 q 603 389 595 382 q 620 397 610 397 l 670 397 q 687 389 680 397 q 694 372 694 382 m 496 570 l 496 521 q 489 503 496 511 q 471 496 481 496 l 422 496 q 404 503 412 496 q 397 521 397 511 l 397 570 q 404 588 397 581 q 422 595 412 595 l 471 595 q 489 588 481 595 q 496 570 496 581 m 298 769 l 298 719 q 290 702 298 709 q 273 694 283 694 l 223 694 q 206 702 213 694 q 198 719 198 709 l 198 769 q 206 786 198 779 q 223 794 213 794 l 273 794 q 290 786 283 794 q 298 769 298 779 m 893 372 l 893 322 q 885 305 893 312 q 868 298 878 298 l 818 298 q 801 305 808 298 q 794 322 794 312 l 794 372 q 801 389 794 382 q 818 397 808 397 l 868 397 q 885 389 878 397 q 893 372 893 382 m 694 570 l 694 521 q 687 503 694 511 q 670 496 680 496 l 620 496 q 603 503 610 496 q 595 521 595 511 l 595 570 q 603 588 595 581 q 620 595 610 595 l 670 595 q 687 588 680 595 q 694 570 694 581 m 496 769 l 496 719 q 489 702 496 709 q 471 694 481 694 l 422 694 q 404 702 412 694 q 397 719 397 709 l 397 769 q 404 786 397 779 q 422 794 412 794 l 471 794 q 489 786 481 794 q 496 769 496 779 m 298 967 l 298 918 q 290 900 298 908 q 273 893 283 893 l 223 893 q 206 900 213 893 q 198 918 198 908 l 198 967 q 206 985 198 977 q 223 992 213 992 l 273 992 q 290 985 283 992 q 298 967 298 977 m 893 570 l 893 521 q 885 503 893 511 q 868 496 878 496 l 818 496 q 801 503 808 496 q 794 521 794 511 l 794 570 q 801 588 794 581 q 818 595 808 595 l 868 595 q 885 588 878 595 q 893 570 893 581 m 694 769 l 694 719 q 687 702 694 709 q 670 694 680 694 l 620 694 q 603 702 610 694 q 595 719 595 709 l 595 769 q 603 786 595 779 q 620 794 610 794 l 670 794 q 687 786 680 794 q 694 769 694 779 m 496 967 l 496 918 q 489 900 496 908 q 471 893 481 893 l 422 893 q 404 900 412 893 q 397 918 397 908 l 397 967 q 404 985 397 977 q 422 992 412 992 l 471 992 q 489 985 481 992 q 496 967 496 977 m 893 769 l 893 719 q 885 702 893 709 q 868 694 878 694 l 818 694 q 801 702 808 694 q 794 719 794 709 l 794 769 q 801 786 794 779 q 818 794 808 794 l 868 794 q 885 786 878 794 q 893 769 893 779 m 694 967 l 694 918 q 687 900 694 908 q 670 893 680 893 l 620 893 q 603 900 610 893 q 595 918 595 908 l 595 967 q 603 985 595 977 q 620 992 610 992 l 670 992 q 687 985 680 992 q 694 967 694 977 m 893 967 l 893 918 q 885 900 893 908 q 868 893 878 893 l 818 893 q 801 900 808 893 q 794 918 794 908 l 794 967 q 801 985 794 977 q 818 992 808 992 l 868 992 q 885 985 878 992 q 893 967 893 977 m 694 -99 l 992 -99 l 992 1091 l 99 1091 l 99 -99 l 397 -99 l 397 74 q 404 92 397 84 q 422 99 412 99 l 670 99 q 687 92 680 99 q 694 74 694 84 l 694 -99 m 1091 1141 l 1091 -149 q 1077 -184 1091 -169 q 1042 -198 1062 -198 l 50 -198 q 15 -184 29 -198 q 0 -149 0 -169 l 0 1141 q 15 1176 0 1161 q 50 1190 29 1190 l 1042 1190 q 1077 1176 1062 1190 q 1091 1141 1091 1161 z "},"":{"ha":1091,"x_min":0,"x_max":1091,"o":"m 298 174 l 298 124 q 290 107 298 114 q 273 99 283 99 l 223 99 q 206 107 213 99 q 198 124 198 114 l 198 174 q 206 191 198 184 q 223 198 213 198 l 273 198 q 290 191 283 198 q 298 174 298 184 m 298 372 l 298 322 q 290 305 298 312 q 273 298 283 298 l 223 298 q 206 305 213 298 q 198 322 198 312 l 198 372 q 206 389 198 382 q 223 397 213 397 l 273 397 q 290 389 283 397 q 298 372 298 382 m 496 372 l 496 322 q 489 305 496 312 q 471 298 481 298 l 422 298 q 404 305 412 298 q 397 322 397 312 l 397 372 q 404 389 397 382 q 422 397 412 397 l 471 397 q 489 389 481 397 q 496 372 496 382 m 298 570 l 298 521 q 290 503 298 511 q 273 496 283 496 l 223 496 q 206 503 213 496 q 198 521 198 511 l 198 570 q 206 588 198 581 q 223 595 213 595 l 273 595 q 290 588 283 595 q 298 570 298 581 m 893 174 l 893 124 q 885 107 893 114 q 868 99 878 99 l 818 99 q 801 107 808 99 q 794 124 794 114 l 794 174 q 801 191 794 184 q 818 198 808 198 l 868 198 q 885 191 878 198 q 893 174 893 184 m 694 372 l 694 322 q 687 305 694 312 q 670 298 680 298 l 620 298 q 603 305 610 298 q 595 322 595 312 l 595 372 q 603 389 595 382 q 620 397 610 397 l 670 397 q 687 389 680 397 q 694 372 694 382 m 496 570 l 496 521 q 489 503 496 511 q 471 496 481 496 l 422 496 q 404 503 412 496 q 397 521 397 511 l 397 570 q 404 588 397 581 q 422 595 412 595 l 471 595 q 489 588 481 595 q 496 570 496 581 m 893 372 l 893 322 q 885 305 893 312 q 868 298 878 298 l 818 298 q 801 305 808 298 q 794 322 794 312 l 794 372 q 801 389 794 382 q 818 397 808 397 l 868 397 q 885 389 878 397 q 893 372 893 382 m 694 570 l 694 521 q 687 503 694 511 q 670 496 680 496 l 620 496 q 603 503 610 496 q 595 521 595 511 l 595 570 q 603 588 595 581 q 620 595 610 595 l 670 595 q 687 588 680 595 q 694 570 694 581 m 893 570 l 893 521 q 885 503 893 511 q 868 496 878 496 l 818 496 q 801 503 808 496 q 794 521 794 511 l 794 570 q 801 588 794 581 q 818 595 808 595 l 868 595 q 885 588 878 595 q 893 570 893 581 m 694 -99 l 992 -99 l 992 794 l 794 794 l 794 769 q 772 716 794 738 q 719 694 750 694 l 372 694 q 319 716 341 694 q 298 769 298 738 l 298 794 l 99 794 l 99 -99 l 397 -99 l 397 74 q 404 92 397 84 q 422 99 412 99 l 670 99 q 687 92 680 99 q 694 74 694 84 l 694 -99 m 694 818 l 694 1066 q 687 1084 694 1077 q 670 1091 680 1091 l 620 1091 q 603 1084 610 1091 q 595 1066 595 1077 l 595 992 l 496 992 l 496 1066 q 489 1084 496 1077 q 471 1091 481 1091 l 422 1091 q 404 1084 412 1091 q 397 1066 397 1077 l 397 818 q 404 801 397 808 q 422 794 412 794 l 471 794 q 489 801 481 794 q 496 818 496 808 l 496 893 l 595 893 l 595 818 q 603 801 595 808 q 620 794 610 794 l 670 794 q 687 801 680 794 q 694 818 694 808 m 1091 843 l 1091 -149 q 1077 -184 1091 -169 q 1042 -198 1062 -198 l 50 -198 q 15 -184 29 -198 q 0 -149 0 -169 l 0 843 q 15 878 0 863 q 50 893 29 893 l 298 893 l 298 1116 q 319 1169 298 1147 q 372 1190 341 1190 l 719 1190 q 772 1169 750 1190 q 794 1116 794 1147 l 794 893 l 1042 893 q 1077 878 1062 893 q 1091 843 1091 863 z "},"":{"ha":1488,"x_min":50,"x_max":1488,"o":"m 467 29 q 481 44 467 29 q 496 99 496 58 q 467 169 496 140 q 397 198 438 198 q 327 169 356 198 q 298 99 298 140 q 327 29 298 58 q 397 0 356 0 q 467 29 438 0 m 198 496 l 496 496 l 496 694 l 374 694 q 357 687 363 693 l 205 536 q 198 519 200 527 l 198 496 m 1161 29 q 1176 44 1161 29 q 1190 99 1190 58 q 1161 169 1190 140 q 1091 198 1132 198 q 1021 169 1050 198 q 992 99 992 140 q 1021 29 992 58 q 1091 0 1050 0 q 1161 29 1132 0 m 1290 620 l 1290 769 q 1283 787 1290 780 q 1265 794 1276 794 l 1091 794 l 1091 967 q 1084 985 1091 978 q 1066 992 1077 992 l 918 992 q 900 985 907 992 q 893 967 893 978 l 893 794 l 719 794 q 701 787 708 794 q 694 769 694 780 l 694 620 q 701 602 694 609 q 719 595 708 595 l 893 595 l 893 422 q 900 404 893 411 q 918 397 907 397 l 1066 397 q 1084 404 1077 397 q 1091 422 1091 411 l 1091 595 l 1265 595 q 1283 602 1276 595 q 1290 620 1290 609 m 1488 1042 l 1488 149 q 1473 114 1488 129 q 1438 99 1459 99 l 1290 99 q 1232 -41 1290 17 q 1091 -99 1173 -99 q 951 -41 1009 -99 q 893 99 893 17 l 595 99 q 537 -41 595 17 q 397 -99 479 -99 q 257 -41 315 -99 q 198 99 198 17 l 99 99 q 64 114 79 99 q 50 149 50 129 q 64 184 50 169 q 99 198 79 198 l 99 521 q 109 566 99 541 q 134 605 119 591 l 288 759 q 327 784 302 773 q 372 794 352 794 l 496 794 l 496 1042 q 511 1077 496 1062 q 546 1091 525 1091 l 1438 1091 q 1473 1077 1459 1091 q 1488 1042 1488 1062 z "},"":{"ha":1389,"x_min":0,"x_max":1389,"o":"m 992 322 l 992 471 q 985 489 992 482 q 967 496 978 496 l 794 496 l 794 670 q 787 687 794 680 q 769 694 780 694 l 620 694 q 602 687 609 694 q 595 670 595 680 l 595 496 l 422 496 q 404 489 411 496 q 397 471 397 482 l 397 322 q 404 305 397 312 q 422 298 411 298 l 595 298 l 595 124 q 602 106 595 113 q 620 99 609 99 l 769 99 q 787 106 780 99 q 794 124 794 113 l 794 298 l 967 298 q 985 305 978 298 q 992 322 992 312 m 496 893 l 893 893 l 893 992 l 496 992 l 496 893 m 198 893 l 198 -99 l 174 -99 q 51 -48 102 -99 q 0 74 0 3 l 0 719 q 51 842 0 791 q 174 893 102 893 l 198 893 m 1116 893 l 1116 -99 l 273 -99 l 273 893 l 397 893 l 397 1017 q 419 1070 397 1048 q 471 1091 440 1091 l 918 1091 q 970 1070 949 1091 q 992 1017 992 1048 l 992 893 l 1116 893 m 1389 719 l 1389 74 q 1338 -48 1389 3 q 1215 -99 1287 -99 l 1190 -99 l 1190 893 l 1215 893 q 1338 842 1287 893 q 1389 719 1389 791 z "},"":{"ha":1488,"x_min":0,"x_max":1488,"o":"m 1488 446 q 1265 372 1487 422 l 992 347 l 818 298 l 769 298 l 542 25 l 595 25 q 630 21 615 25 q 645 12 645 18 q 630 3 645 7 q 595 0 615 0 l 521 0 l 397 0 l 347 0 l 347 25 l 397 25 l 397 347 l 273 347 l 124 174 l 50 174 l 25 198 l 25 347 l 50 347 l 50 372 l 149 372 l 149 378 l 0 397 l 0 496 l 149 515 l 149 521 l 50 521 l 50 546 l 25 546 l 25 694 l 50 719 l 124 719 l 273 546 l 397 546 l 397 868 l 347 868 l 347 893 l 397 893 l 521 893 l 595 893 q 630 889 615 893 q 645 880 645 886 q 630 872 645 875 q 595 868 615 868 l 542 868 l 769 595 l 818 595 l 992 546 l 1265 521 q 1487 449 1467 476 q 1488 446 1488 446 z "},"":{"ha":1290,"x_min":50,"x_max":1290,"o":"m 496 496 l 496 794 l 298 794 l 298 595 q 327 525 298 554 q 397 496 356 496 l 496 496 m 1290 149 l 1290 0 l 397 0 l 397 149 l 496 298 l 397 298 q 186 385 274 298 q 99 595 99 472 l 99 843 l 50 893 l 74 992 l 446 992 l 471 1091 l 1215 1091 l 1240 942 l 1190 918 l 1190 298 l 1290 149 z "},"":{"ha":1190,"x_min":0,"x_max":1190,"o":"m 992 149 l 992 843 q 977 878 992 863 q 942 893 963 893 l 843 893 q 808 878 823 893 q 794 843 794 863 l 794 595 l 397 595 l 397 843 q 382 878 397 863 q 347 893 367 893 l 248 893 q 213 878 228 893 q 198 843 198 863 l 198 149 q 213 114 198 129 q 248 99 228 99 l 347 99 q 382 114 367 99 q 397 149 397 129 l 397 397 l 794 397 l 794 149 q 808 114 794 129 q 843 99 823 99 l 942 99 q 977 114 963 99 q 992 149 992 129 m 1190 868 l 1190 124 q 1125 -34 1190 32 q 967 -99 1059 -99 l 223 -99 q 65 -34 131 -99 q 0 124 0 32 l 0 868 q 65 1026 0 960 q 223 1091 131 1091 l 967 1091 q 1125 1026 1059 1091 q 1190 868 1190 960 z "},"":{"ha":1190,"x_min":0,"x_max":1190,"o":"m 992 446 l 992 546 q 977 581 992 566 q 942 595 963 595 l 694 595 l 694 843 q 680 878 694 863 q 645 893 665 893 l 546 893 q 511 878 525 893 q 496 843 496 863 l 496 595 l 248 595 q 213 581 228 595 q 198 546 198 566 l 198 446 q 213 412 198 426 q 248 397 228 397 l 496 397 l 496 149 q 511 114 496 129 q 546 99 525 99 l 645 99 q 680 114 665 99 q 694 149 694 129 l 694 397 l 942 397 q 977 412 963 397 q 992 446 992 426 m 1190 868 l 1190 124 q 1125 -34 1190 32 q 967 -99 1059 -99 l 223 -99 q 65 -34 131 -99 q 0 124 0 32 l 0 868 q 65 1026 0 960 q 223 1091 131 1091 l 967 1091 q 1125 1026 1059 1091 q 1190 868 1190 960 z "},"":{"ha":794,"x_min":35,"x_max":784,"o":"m 478 142 q 486 124 486 134 q 478 106 486 114 l 439 67 q 422 60 432 60 q 404 67 412 60 l 43 429 q 35 446 35 436 q 43 464 35 457 l 404 825 q 422 833 412 833 q 439 825 432 833 l 478 787 q 486 769 486 779 q 478 751 486 759 l 174 446 l 478 142 m 776 142 q 784 124 784 134 q 776 106 784 114 l 737 67 q 719 60 729 60 q 701 67 709 60 l 340 429 q 332 446 332 436 q 340 464 332 457 l 701 825 q 719 833 709 833 q 737 825 729 833 l 776 787 q 784 769 784 779 q 776 751 784 759 l 471 446 l 776 142 z "},"":{"ha":794,"x_min":10,"x_max":759,"o":"m 453 464 q 461 446 461 457 q 453 429 461 436 l 92 67 q 74 60 84 60 q 57 67 64 60 l 18 106 q 10 124 10 114 q 18 142 10 134 l 322 446 l 18 751 q 10 769 10 759 q 18 787 10 779 l 57 825 q 74 833 64 833 q 92 825 84 833 l 453 464 m 751 464 q 759 446 759 457 q 751 429 759 436 l 390 67 q 372 60 382 60 q 354 67 362 60 l 315 106 q 308 124 308 114 q 315 142 308 134 l 620 446 l 315 751 q 308 769 308 759 q 315 787 308 779 l 354 825 q 372 833 362 833 q 390 825 382 833 l 751 464 z "},"":{"ha":893,"x_min":60,"x_max":833,"o":"m 825 191 q 833 174 833 184 q 825 156 833 164 l 787 117 q 769 109 779 109 q 751 117 759 109 l 446 422 l 142 117 q 124 109 134 109 q 106 117 114 109 l 67 156 q 60 174 60 164 q 67 191 60 184 l 429 553 q 446 560 436 560 q 464 553 457 560 l 825 191 m 825 489 q 833 471 833 481 q 825 453 833 461 l 787 415 q 769 407 779 407 q 751 415 759 407 l 446 719 l 142 415 q 124 407 134 407 q 106 415 114 407 l 67 453 q 60 471 60 461 q 67 489 60 481 l 429 850 q 446 858 436 858 q 464 850 457 858 l 825 489 z "},"":{"ha":893,"x_min":60,"x_max":833,"o":"m 825 539 q 833 521 833 531 q 825 503 833 511 l 464 142 q 446 134 457 134 q 429 142 436 134 l 67 503 q 60 521 60 511 q 67 539 60 531 l 106 577 q 124 585 114 585 q 142 577 134 585 l 446 273 l 751 577 q 769 585 759 585 q 787 577 779 585 l 825 539 m 825 836 q 833 818 833 829 q 825 801 833 808 l 464 439 q 446 432 457 432 q 429 439 436 432 l 67 801 q 60 818 60 808 q 67 836 60 829 l 106 875 q 124 883 114 883 q 142 875 134 883 l 446 570 l 751 875 q 769 883 759 883 q 787 875 779 883 l 825 836 z "},"":{"ha":496,"x_min":35,"x_max":486,"o":"m 478 787 q 486 769 486 779 q 478 751 486 759 l 174 446 l 478 142 q 486 124 486 134 q 478 106 486 114 l 439 67 q 422 60 432 60 q 404 67 412 60 l 43 429 q 35 446 35 436 q 43 464 35 457 l 404 825 q 422 833 412 833 q 439 825 432 833 l 478 787 z "},"":{"ha":496,"x_min":10,"x_max":461,"o":"m 453 464 q 461 446 461 457 q 453 429 461 436 l 92 67 q 74 60 84 60 q 57 67 64 60 l 18 106 q 10 124 10 114 q 18 142 10 134 l 322 446 l 18 751 q 10 769 10 759 q 18 787 10 779 l 57 825 q 74 833 64 833 q 92 825 84 833 l 453 464 z "},"":{"ha":893,"x_min":60,"x_max":833,"o":"m 825 291 q 833 273 833 283 q 825 255 833 263 l 787 216 q 769 208 779 208 q 751 216 759 208 l 446 521 l 142 216 q 124 208 134 208 q 106 216 114 208 l 67 255 q 60 273 60 263 q 67 291 60 283 l 429 652 q 446 660 436 660 q 464 652 457 660 l 825 291 z "}}}
